<?xml version="1.0" encoding="UTF-8"?>
<!-- Created with Inkscape (http://www.inkscape.org/) -->
<svg width="58.217" height="32.843" version="1.1" viewBox="0 0 58.217 32.843" xmlns="http://www.w3.org/2000/svg" xmlns:cc="http://creativecommons.org/ns#" xmlns:dc="http://purl.org/dc/elements/1.1/" xmlns:rdf="http://www.w3.org/1999/02/22-rdf-syntax-ns#" xmlns:xlink="http://www.w3.org/1999/xlink">
 <title>onu.</title>
 <defs>
  <linearGradient id="linearGradient2" x1="2.9589" x2="14.103" y1="7.7744" y2="7.7744" gradientTransform="matrix(1.2081 0 0 1.2202 -2.4128 -1.5672)" gradientUnits="userSpaceOnUse">
   <stop stop-color="#9b9b9b" offset="0"/>
   <stop stop-color="#ffffff" stop-opacity="0" offset="1"/>
  </linearGradient>
  <radialGradient id="radialGradient4" cx="9.434" cy="7.7009" r="4.1069" gradientTransform="matrix(1.2078 -.027689 .025579 1.1383 -2.6068 -.71948)" gradientUnits="userSpaceOnUse">
   <stop stop-color="#ffffff" offset=".52425"/>
   <stop stop-color="#545454" stop-opacity=".88682" offset="1"/>
  </radialGradient>
  <radialGradient id="radialGradient9" cx="8.4425" cy="7.7914" r="5.0947" gradientTransform="matrix(2.8988 .026956 -.024848 2.7261 -16.493 -13.528)" gradientUnits="userSpaceOnUse">
   <stop stop-color="#000000" offset="0"/>
   <stop stop-color="#4c4c4c" offset="1"/>
  </radialGradient>
  <radialGradient id="radialGradient6" cx="34.312" cy="19.772" r="11.993" gradientTransform="matrix(2.4501 .20438 -.040389 .48419 -48.957 6.6445)" gradientUnits="userSpaceOnUse">
   <stop stop-color="#000000" offset="0"/>
   <stop stop-color="#383838" offset="1"/>
  </radialGradient>
  <radialGradient id="radialGradient7" cx="34.312" cy="19.772" r="11.993" gradientTransform="matrix(2.4338 .20301 -.040119 .48096 -50.022 3.9754)" gradientUnits="userSpaceOnUse">
   <stop stop-color="#dedede" offset="0"/>
   <stop stop-color="#ffffff" stop-opacity=".46284" offset="1"/>
  </radialGradient>
  <linearGradient id="linearGradient12" x1="2.8351" x2="31.969" y1="10.845" y2="10.845" gradientUnits="userSpaceOnUse">
   <stop stop-color="#1a1a1a" offset=".65897"/>
   <stop stop-color="#1a1a1a" stop-opacity="0" offset="1"/>
  </linearGradient>
  <linearGradient id="linearGradient14" x1="2.8351" x2="31.969" y1="10.845" y2="10.845" gradientUnits="userSpaceOnUse">
   <stop stop-color="#ffffff" offset="0"/>
   <stop stop-color="#ffffff" stop-opacity="0" offset="1"/>
  </linearGradient>
  <linearGradient id="linearGradient16" x1="2.7309" x2="32.02" y1="10.851" y2="10.851" gradientUnits="userSpaceOnUse">
   <stop stop-color="#ffffff" offset="0"/>
   <stop stop-color="#ffffff" stop-opacity="0" offset="1"/>
  </linearGradient>
  <linearGradient id="linearGradient18" x1="2.7309" x2="32.02" y1="10.851" y2="10.851" gradientUnits="userSpaceOnUse">
   <stop stop-color="#1a1a1a" offset="0"/>
   <stop stop-color="#1a1a1a" stop-opacity="0" offset="1"/>
  </linearGradient>
  <linearGradient id="linearGradient20" x1="1.4788" x2="13.68" y1="19.055" y2="12.727" gradientUnits="userSpaceOnUse">
   <stop stop-color="#ffffff" offset="0"/>
   <stop stop-color="#010101" offset="1"/>
  </linearGradient>
 </defs>
 <g transform="matrix(1.8095 0 0 1.871 1.1138 3.9769)" fill-rule="evenodd" stroke-miterlimit="3.6" stroke-width="0">
  <path d="m14.625 5.202v5.4353q0 1.7301-1.6988 3.1999-1.6829 1.4698-3.4769 1.4698h-3.1276q-1.8258 0-3.4928-1.4851-1.667-1.5004-1.667-3.1846v-5.4353q0-1.6842 1.6194-3.1693 1.6352-1.5004 3.5404-1.5004h3.1276q1.794-0.030622 3.4769 1.4392 1.6988 1.4698 1.6988 3.2305zm-10.764 0.10718v5.2056q0 0.70429 0.52391 1.1177l1.0002 0.82677q0.3334 0.27559 0.9367 0.27559h3.0959q0.68268 0 1.2383-0.47463l0.80969-0.68898q0.49216-0.36745 0.49216-1.0258v-5.2056q0-0.76553-0.49216-1.133l-0.9367-0.7196q-0.47628-0.38276-1.1113-0.38276h-2.7625q-0.90494 0-1.3971 0.41339l-0.90494 0.75022q-0.49216 0.39808-0.49216 1.0411z" fill="url(#linearGradient2)" aria-label="o"/>
  <path d="m13.56 5.5011v4.9226q0 1.5669-1.252 2.8981-1.2404 1.3312-2.5626 1.3312h-2.3052q-1.3457 0-2.5743-1.3451-1.2286-1.3589-1.2286-2.8842v-4.9226q0-1.5253 1.1935-2.8704 1.2052-1.3589 2.6094-1.3589h2.3052q1.3223-0.027732 2.5626 1.3035 1.252 1.3312 1.252 2.9258zm-7.9336 0.097067v4.7146q0 0.63786 0.38615 1.0123l0.73719 0.74879q0.24573 0.24959 0.69038 0.24959h2.2818q0.50316 0 0.91271-0.42986l0.59677-0.62399q0.36274-0.3328 0.36274-0.92906v-4.7146q0-0.69333-0.36274-1.0261l-0.69038-0.65173q-0.35104-0.34666-0.8191-0.34666h-2.036q-0.66698 0-1.0297 0.3744l-0.66698 0.67946q-0.36274 0.36053-0.36274 0.94292z" fill="url(#radialGradient4)" aria-label="o"/>
  <path d="m13.941 10.473v-5.0663q0-1.6126-1.5532-2.9827-1.5387-1.37-3.179-1.37h-2.8597q-1.6694 0-3.1935 1.3843-1.5242 1.3986-1.5242 2.9684v5.0663q0 1.5698 1.4806 2.9541 1.4952 1.3986 3.2371 1.3986h2.8597q1.6403 0.02854 3.179-1.3415 1.5532-1.37 1.5532-3.0112zm-9.8419-0.0999v-4.8522q0-0.65647 0.47903-1.0418l0.91452-0.77064q0.30484-0.25688 0.85645-0.25688h2.8306q0.62419 0 1.1323 0.44241l0.74032 0.6422q0.45 0.34251 0.45 0.95617v4.8522q0 0.71356-0.45 1.0561l-0.85645 0.67074q-0.43548 0.35678-1.0161 0.35678h-2.5258q-0.82742 0-1.2774-0.38532l-0.82742-0.69929q-0.45-0.37105-0.45-0.97044z" fill="url(#radialGradient9)" aria-label="o"/>
 </g>
 <metadata>
  <rdf:RDF>
   <cc:Work rdf:about="">
    <dc:title>onu.</dc:title>
   </cc:Work>
  </rdf:RDF>
 </metadata>
 <g transform="matrix(1 0 0 .9867 -.8445 -1.4313)" stroke-width=".10067">
  <path d="m4.7536 18.319 1.4721-1.2478c7.8994-4.1547 20.459-11.721 23.34-12.201l-3.7101 3.8167 5.913-4.9761c0.10603-3.0221-26.087 12.509-26.087 12.509l-2.4349 1.0563z" fill="url(#linearGradient18)" stroke="url(#linearGradient16)" stroke-width=".50336"/>
  <path d="m8.5797 18.678-3.8339-3.5391 3.6643 3.901-3.4625-3.9033 3.2577 4.2465-3.0566-4.2286 2.8187 4.5497-2.6204-4.512 2.3517 4.8078-2.1581-4.7504 1.8613 5.018-1.6744-4.9417 1.3524 5.1784-1.1741-5.0839 0.83009 5.2873-0.66204-5.1755 0.29952 5.3437-0.14344-5.2157-0.23403 5.347 0.37659-5.2041-0.76525 5.2971 0.89288-5.1407-1.2889 5.1946 1.4003-5.0263-1.7997 5.0404 1.8938-4.8619-2.2926 4.8362 2.3685-4.6492-2.7627 4.5839 2.8196-4.3902-3.2054 4.286 3.2427-4.0877-3.6162 3.9456 3.6336-3.7445-3.9911 3.5659 3.9884-3.3641-4.3263 3.1508 4.3035-2.9503-4.6186 2.7044 4.5759-2.5071-4.8649 2.2311 4.8028-2.039-5.0629 1.7356 4.9819-1.5507-5.2105 1.2229 5.1116-1.047-5.3064 0.69802 5.1904-0.53281-5.3495 0.1662 5.2177-0.01336-5.3395-0.36726 5.1931 0.50622-5.2764-0.89708 5.1169 1.0208-5.1608-1.418 4.9898 1.5252-4.994-1.9248 4.8132 2.0144-4.7775-2.4125 4.5887 2.4836-4.5136-2.8762 4.3186 2.9282-4.2048-3.3113 4.0056 3.3436-3.8542-3.7135 3.6527 3.7258-3.4653-4.0788 3.2636 4.071-3.042-4.4036 2.8421 4.3757-2.5884-4.6846 2.3922 4.637-2.1091-4.919 1.9187 4.8521-1.6089-5.1046 1.426 5.019-1.0926-5.2394 0.9192 5.1361-0.56551-5.3221 0.40324 5.2021-0.032786-5.352-0.11672 5.2164 0.50026-5.3287-0.63553 5.1788 1.0283-5.2524-1.148 5.0898 1.5462-5.1239-1.6491 4.9502 2.0487-4.9445-2.1338 4.7614 2.5308-4.7159-2.5973 4.5253 2.9878-4.4405-3.0349 4.2442 3.4151-4.1209-3.4424 3.921 3.8084-3.7604-3.8157 3.5587 4.1639-3.3625-4.1511 3.1611 4.478-2.9312-4.4452 2.7321 4.7476-2.4708-4.6952 2.2759 4.9701-1.9858-4.8984 1.7971 5.1431-1.4811-5.053 1.3004 5.265-0.96165-5.1574 0.79087 5.3346-0.43265-5.2105 0.27343 5.3511 0.10065-5.2119-0.24673 5.3145 0.63296-5.1614-0.76444 5.2251 1.159-5.0596-1.2745 5.0837 1.6735-4.9076-1.772 4.8919 2.1713-4.7068-2.2518 4.6514 2.6476-4.4592-2.7093 4.3646 3.0976-4.1672-3.1398z" fill="#1a1a1a" stroke="#ffffff"/>
 </g>
 <g transform="matrix(1.2662 0 0 1.2192 -12.307 -4.2338)" fill-rule="evenodd" stroke-linecap="round" stroke-linejoin="round" stroke-miterlimit="3.6">
  <path d="m36.519 20.564-2.5047 1.6297v5.8734q0 0.37188-0.27344 0.64531-0.27344 0.27344-0.64531 0.27344t-0.64531-0.27344q-0.27344-0.27344-0.27344-0.64531v-8.7172q0-0.38281 0.2625-0.65625 0.27344-0.28438 0.65625-0.28438 0.37188 0 0.64531 0.28438 0.27344 0.27344 0.27344 0.65625v0.6125l1.6734-1.0172q0.84219-0.53594 1.9031-0.53594h0.85312q1.0938 0 1.8922 0.77656 0.79844 0.77656 0.84219 1.9141l0.25156 6.9672q0.01094 0.37188-0.2625 0.64531-0.27344 0.27344-0.65625 0.27344-0.36094 0-0.63438-0.24062-0.27344-0.25156-0.28438-0.67812l-0.27344-6.8578q-0.03281-0.9625-1.0062-0.9625h-0.89688q-0.41562 0-0.89688 0.31719zm13.552 6.5625 3.0953-1.9688v-5.8078q0-0.38281 0.2625-0.65625 0.27344-0.28438 0.65625-0.28438 0.38281 0 0.64531 0.28438 0.27344 0.27344 0.27344 0.65625v8.7172q0 0.37188-0.27344 0.64531-0.27344 0.27344-0.64531 0.27344t-0.64531-0.27344q-0.27344-0.27344-0.27344-0.64531v-0.72188l-1.5969 1.0391q-0.94062 0.60156-1.9031 0.60156h-0.85312q-1.1266 0-1.9359-0.7875t-0.86406-1.925l-0.2625-6.9234q-0.02188-0.36094 0.25156-0.63438 0.28438-0.28438 0.66719-0.28438 0.37188 0 0.63438 0.27344 0.27344 0.27344 0.28438 0.64531l0.24062 6.7922q0.03281 0.98438 1.1266 0.98438z" fill="url(#radialGradient7)" aria-label="nu"/>
  <path transform="matrix(.99334 0 0 .99334 -.69586 -2.6249)" d="m38.165 23.344-2.5215 1.6406v5.9128q0 0.37437-0.27527 0.64964-0.27527 0.27527-0.64964 0.27527t-0.64964-0.27527q-0.27527-0.27527-0.27527-0.64964v-8.7757q0-0.38538 0.26426-0.66065 0.27527-0.28628 0.66065-0.28628 0.37437 0 0.64964 0.28628 0.27527 0.27527 0.27527 0.66065v0.61661l1.6847-1.024q0.84784-0.53953 1.9159-0.53953h0.85885q1.1011 0 1.9049 0.78177 0.80379 0.78177 0.84784 1.9269l0.25325 7.0139q0.01101 0.37437-0.26426 0.64964-0.27527 0.27527-0.66065 0.27527-0.36336 0-0.63863-0.24224-0.27527-0.25325-0.28628-0.68268l-0.27527-6.9038q-0.03303-0.96896-1.013-0.96896h-0.90289q-0.41841 0-0.90289 0.31932zm13.642 6.6065 3.1161-1.982v-5.8468q0-0.38538 0.26426-0.66065 0.27527-0.28628 0.66065-0.28628 0.38538 0 0.64964 0.28628 0.27527 0.27527 0.27527 0.66065v8.7757q0 0.37437-0.27527 0.64964-0.27527 0.27527-0.64964 0.27527-0.37437 0-0.64964-0.27527-0.27527-0.27527-0.27527-0.64964v-0.72672l-1.6076 1.046q-0.94694 0.6056-1.9159 0.6056h-0.85885q-1.1341 0-1.9489-0.79278-0.81481-0.79278-0.86986-1.9379l-0.26426-6.9699q-0.02202-0.36336 0.25325-0.63863 0.28628-0.28628 0.67166-0.28628 0.37437 0 0.63863 0.27527 0.27527 0.27527 0.28628 0.64964l0.24224 6.8378q0.03303 0.99098 1.1341 0.99098z" fill="url(#radialGradient6)" stroke-width="1.0067" aria-label="nu"/>
 </g>
 <g transform="matrix(-1.6979 0 0 -1.7784 56.464 38.388)">
  <path d="m4.7536 18.319 1.4721-1.2478c7.7791-4.0672 14.314-8.1343 23.34-12.201l-3.942 4.2867 6.1449-5.4462c0.10603-3.0221-26.087 12.509-26.087 12.509l-2.4349 1.0563z" fill="url(#linearGradient12)" stroke="url(#linearGradient14)" stroke-width=".40168"/>
  <path d="m7.6971 13.883-5.0977 3.25 5.3605-3.0414-5.3516 2.8437 5.5955-2.615-5.5699 2.4185 5.7933-2.1712-5.7511 1.9771 5.9526-1.713-5.8941 1.5226 6.0722-1.2434-5.9978 1.058 6.1514-0.76546-6.0616 0.58635 6.1897-0.28245-6.0851 0.11079 6.1869 0.20243-6.0681-0.36551 6.1428 0.68597-6.0107-0.83938 6.0578 1.1649-5.9133-1.3077 5.9326 1.6362-5.7765-1.7672 5.7678 2.0965-5.6013-2.2151 5.5647 2.5429-5.3889-2.6481 5.3246 2.9723-5.1405-3.0636 5.049 3.382-4.858-3.4587 4.7398 3.7692-4.5431-3.8307 4.3991 4.1313-4.198-4.1773 4.029 4.4659-3.825-4.496 3.6322 4.7707-3.4265-4.7849 3.2112 5.0438-3.0052-5.0419 2.7689 5.2834-2.5639-5.2653 2.3081 5.4878-2.1055-5.4537 1.8319 5.6557-1.6331-5.6058 1.3436 5.7859-1.1499-5.7206 0.84631 5.8777-0.65901-5.7974 0.3434 5.9303-0.16373-5.8355-0.1618 5.9434 0.33264-5.8348-0.66592 5.917 0.8268-5.7953-1.1656 5.8513 1.3155-5.7173-1.6575 5.7466 1.7954-5.6011-2.1384 5.6036 2.2633-5.4477-2.6051 5.4234 2.7162-5.2581-3.0545 5.207 3.151-5.0334-3.4835 4.956 3.5649-4.7753-3.8893 4.6721 3.955-4.4854-4.2692 4.357 4.3188-4.1656-4.6208 4.0129 4.6538-3.8181-4.9415 3.6422 4.9579-3.4452-5.2294 3.2472 5.229-3.0494-5.4825 2.8306 5.4653-2.6333-5.6991 2.3951 5.6652-2.1996-5.8778 1.9437 5.8275-1.7513-6.0174 1.4794 5.9509-1.2914-6.1169 1.0052 6.0348-0.82287-6.1757 0.52439 6.0784-0.34886-6.1935 0.04004 6.0817 0.12747-6.17-0.44457 6.0444 0.60295-6.1054-0.92623 5.967 1.0744-6.0002-1.4017 5.8498 1.5387-5.8551-1.8679 5.6937 1.9928-5.671-2.3216 5.4997 2.4336-5.4492-2.7599 5.2691 2.8582-5.1911-3.1798 5.0034 3.2639-4.8985-3.5786 4.7045 3.6477-4.5732-3.9535 4.3742 4.0073-4.2176-4.3021 4.0148 4.3403-3.8338-4.6221 3.6287 4.6443-3.4246-4.9114 3.2185 4.9175-2.9925-5.1679 2.7868 5.1579-2.5406-5.3901 2.3366 5.364-2.0717-5.5764 1.8709 5.5344-1.5891-5.7256 1.3927 5.668-1.0959-5.8367 0.90521 5.7638-0.59535-5.9089 0.41171 5.8213-0.090877-5.9418-0.084529 5.84 0.4142-5.9352-0.5802 5.8199 0.91653-5.8891-1.072 5.7611 1.4128-5.8037-1.5567 5.6639 1.8996-5.6798-2.031 5.529 2.3738-5.5181-2.4918 5.3574 2.8321-5.3196-2.936 5.15 3.2717-5.0858-3.3607 4.9085 3.6894-4.8181-3.763 4.6342 4.0827-4.5183-4.1403 4.3291 4.4487-4.1885-4.49 3.9952 4.7851-3.8308-4.8099 3.6347z" fill="#1a1a1a" stroke="url(#linearGradient20)" stroke-width=".098566"/>
 </g>
</svg>
