<?xml version="1.0" encoding="UTF-8" standalone="no"?>
<!-- Created with Inkscape (http://www.inkscape.org/) -->

<svg
   width="512"
   height="512"
   viewBox="0 0 512 512"
   version="1.1"
   id="svg1"
   inkscape:version="1.4.2 (f4327f4, 2025-05-13)"
   sodipodi:docname="onu.svg"
   xmlns:inkscape="http://www.inkscape.org/namespaces/inkscape"
   xmlns:sodipodi="http://sodipodi.sourceforge.net/DTD/sodipodi-0.dtd"
   xmlns:xlink="http://www.w3.org/1999/xlink"
   xmlns="http://www.w3.org/2000/svg"
   xmlns:svg="http://www.w3.org/2000/svg">
  <sodipodi:namedview
     id="namedview1"
     pagecolor="#505050"
     bordercolor="#eeeeee"
     borderopacity="1"
     inkscape:showpageshadow="0"
     inkscape:pageopacity="0"
     inkscape:pagecheckerboard="0"
     inkscape:deskcolor="#505050"
     inkscape:document-units="px"
     inkscape:zoom="1.5936935"
     inkscape:cx="252.55798"
     inkscape:cy="255.69534"
     inkscape:window-width="1440"
     inkscape:window-height="829"
     inkscape:window-x="-8"
     inkscape:window-y="-8"
     inkscape:window-maximized="1"
     inkscape:current-layer="svg1" />
  <defs
     id="defs1">
    <linearGradient
       id="linearGradient50"
       inkscape:collect="always">
      <stop
         style="stop-color:#ffffff;stop-opacity:1;"
         offset="0"
         id="stop50" />
      <stop
         style="stop-color:#ffffff;stop-opacity:0;"
         offset="1"
         id="stop51" />
    </linearGradient>
    <filter
       inkscape:collect="always"
       style="color-interpolation-filters:sRGB"
       id="filter4"
       x="-0.23487749"
       y="-0.46335531"
       width="1.4697558"
       height="1.9267093">
      <feGaussianBlur
         inkscape:collect="always"
         stdDeviation="67.7 191.955"
         id="feGaussianBlur4" />
    </filter>
    <clipPath
       clipPathUnits="userSpaceOnUse"
       id="clipPath32">
      <g
         inkscape:label="Clip"
         id="g33">
        <ellipse
           style="opacity:0.998217;fill:#000000;fill-opacity:1;fill-rule:evenodd;stroke:none;stroke-width:5.40469;stroke-linecap:round;stroke-linejoin:round;stroke-miterlimit:3.6;stroke-dasharray:10.8094, 5.40469, 2.70235, 5.40469"
           id="ellipse33"
           ry="197.34033"
           rx="196.52637"
           cy="255.99998"
           cx="252.74403"
           sodipodi:insensitive="true" />
      </g>
    </clipPath>
    <clipPath
       clipPathUnits="userSpaceOnUse"
       id="clipPath33">
      <g
         inkscape:label="Clip"
         id="g34">
        <ellipse
           style="opacity:0.998217;fill:#000000;fill-opacity:1;fill-rule:evenodd;stroke:none;stroke-width:5.40469;stroke-linecap:round;stroke-linejoin:round;stroke-miterlimit:3.6;stroke-dasharray:10.8094, 5.40469, 2.70235, 5.40469"
           id="ellipse34"
           ry="197.34033"
           rx="196.52637"
           cy="255.99998"
           cx="252.74403"
           sodipodi:insensitive="true" />
      </g>
    </clipPath>
    <clipPath
       clipPathUnits="userSpaceOnUse"
       id="clipPath34">
      <g
         inkscape:label="Clip"
         id="g35">
        <ellipse
           style="opacity:0.998217;fill:#000000;fill-opacity:1;fill-rule:evenodd;stroke:none;stroke-width:5.40469;stroke-linecap:round;stroke-linejoin:round;stroke-miterlimit:3.6;stroke-dasharray:10.8094, 5.40469, 2.70235, 5.40469"
           id="ellipse35"
           ry="197.34033"
           rx="196.52637"
           cy="255.99998"
           cx="252.74403"
           sodipodi:insensitive="true" />
      </g>
    </clipPath>
    <clipPath
       clipPathUnits="userSpaceOnUse"
       id="clipPath35">
      <g
         inkscape:label="Clip"
         id="g36">
        <ellipse
           style="opacity:0.998217;fill:#000000;fill-opacity:1;fill-rule:evenodd;stroke:none;stroke-width:5.40469;stroke-linecap:round;stroke-linejoin:round;stroke-miterlimit:3.6;stroke-dasharray:10.8094, 5.40469, 2.70235, 5.40469"
           id="ellipse36"
           ry="197.34033"
           rx="196.52637"
           cy="255.99998"
           cx="252.74403"
           sodipodi:insensitive="true" />
      </g>
    </clipPath>
    <clipPath
       clipPathUnits="userSpaceOnUse"
       id="clipPath36">
      <g
         inkscape:label="Clip"
         id="g37">
        <ellipse
           style="opacity:0.998217;fill:#000000;fill-opacity:1;fill-rule:evenodd;stroke:none;stroke-width:5.40469;stroke-linecap:round;stroke-linejoin:round;stroke-miterlimit:3.6;stroke-dasharray:10.8094, 5.40469, 2.70235, 5.40469"
           id="ellipse37"
           ry="197.34033"
           rx="196.52637"
           cy="255.99998"
           cx="252.74403"
           sodipodi:insensitive="true" />
      </g>
    </clipPath>
    <clipPath
       clipPathUnits="userSpaceOnUse"
       id="clipPath37">
      <g
         inkscape:label="Clip"
         id="g38">
        <ellipse
           style="opacity:0.998217;fill:#000000;fill-opacity:1;fill-rule:evenodd;stroke:none;stroke-width:5.40469;stroke-linecap:round;stroke-linejoin:round;stroke-miterlimit:3.6;stroke-dasharray:10.8094, 5.40469, 2.70235, 5.40469"
           id="ellipse38"
           ry="197.34033"
           rx="196.52637"
           cy="255.99998"
           cx="252.74403"
           sodipodi:insensitive="true" />
      </g>
    </clipPath>
    <clipPath
       clipPathUnits="userSpaceOnUse"
       id="clipPath38">
      <g
         inkscape:label="Clip"
         id="g39">
        <ellipse
           style="opacity:0.998217;fill:#000000;fill-opacity:1;fill-rule:evenodd;stroke:none;stroke-width:5.40469;stroke-linecap:round;stroke-linejoin:round;stroke-miterlimit:3.6;stroke-dasharray:10.8094, 5.40469, 2.70235, 5.40469"
           id="ellipse39"
           ry="197.34033"
           rx="196.52637"
           cy="255.99998"
           cx="252.74403"
           sodipodi:insensitive="true" />
      </g>
    </clipPath>
    <clipPath
       clipPathUnits="userSpaceOnUse"
       id="clipPath39">
      <g
         inkscape:label="Clip"
         id="g40">
        <ellipse
           style="opacity:0.998217;fill:#000000;fill-opacity:1;fill-rule:evenodd;stroke:none;stroke-width:5.40469;stroke-linecap:round;stroke-linejoin:round;stroke-miterlimit:3.6;stroke-dasharray:10.8094, 5.40469, 2.70235, 5.40469"
           id="ellipse40"
           ry="197.34033"
           rx="196.52637"
           cy="255.99998"
           cx="252.74403"
           sodipodi:insensitive="true" />
      </g>
    </clipPath>
    <clipPath
       clipPathUnits="userSpaceOnUse"
       id="clipPath40">
      <g
         inkscape:label="Clip"
         id="g41">
        <ellipse
           style="opacity:0.998217;fill:#000000;fill-opacity:1;fill-rule:evenodd;stroke:none;stroke-width:5.40469;stroke-linecap:round;stroke-linejoin:round;stroke-miterlimit:3.6;stroke-dasharray:10.8094, 5.40469, 2.70235, 5.40469"
           id="ellipse41"
           ry="197.34033"
           rx="196.52637"
           cy="255.99998"
           cx="252.74403"
           sodipodi:insensitive="true" />
      </g>
    </clipPath>
    <clipPath
       clipPathUnits="userSpaceOnUse"
       id="clipPath41">
      <g
         inkscape:label="Clip"
         id="g42">
        <ellipse
           style="opacity:0.998217;fill:#000000;fill-opacity:1;fill-rule:evenodd;stroke:none;stroke-width:5.40469;stroke-linecap:round;stroke-linejoin:round;stroke-miterlimit:3.6;stroke-dasharray:10.8094, 5.40469, 2.70235, 5.40469"
           id="ellipse42"
           ry="197.34033"
           rx="196.52637"
           cy="255.99998"
           cx="252.74403"
           sodipodi:insensitive="true" />
      </g>
    </clipPath>
    <clipPath
       clipPathUnits="userSpaceOnUse"
       id="clipPath42">
      <g
         inkscape:label="Clip"
         id="g43">
        <ellipse
           style="opacity:0.998217;fill:#000000;fill-opacity:1;fill-rule:evenodd;stroke:none;stroke-width:5.40469;stroke-linecap:round;stroke-linejoin:round;stroke-miterlimit:3.6;stroke-dasharray:10.8094, 5.40469, 2.70235, 5.40469"
           id="ellipse43"
           ry="197.34033"
           rx="196.52637"
           cy="255.99998"
           cx="252.74403"
           sodipodi:insensitive="true" />
      </g>
    </clipPath>
    <clipPath
       clipPathUnits="userSpaceOnUse"
       id="clipPath43">
      <g
         inkscape:label="Clip"
         id="g44">
        <ellipse
           style="opacity:0.998217;fill:#000000;fill-opacity:1;fill-rule:evenodd;stroke:none;stroke-width:5.40469;stroke-linecap:round;stroke-linejoin:round;stroke-miterlimit:3.6;stroke-dasharray:10.8094, 5.40469, 2.70235, 5.40469"
           id="ellipse44"
           ry="197.34033"
           rx="196.52637"
           cy="255.99998"
           cx="252.74403"
           sodipodi:insensitive="true" />
      </g>
    </clipPath>
    <clipPath
       clipPathUnits="userSpaceOnUse"
       id="clipPath44">
      <g
         inkscape:label="Clip"
         id="g45">
        <ellipse
           style="opacity:0.998217;fill:#000000;fill-opacity:1;fill-rule:evenodd;stroke:none;stroke-width:5.40469;stroke-linecap:round;stroke-linejoin:round;stroke-miterlimit:3.6;stroke-dasharray:10.8094, 5.40469, 2.70235, 5.40469"
           id="ellipse45"
           ry="197.34033"
           rx="196.52637"
           cy="255.99998"
           cx="252.74403"
           sodipodi:insensitive="true" />
      </g>
    </clipPath>
    <clipPath
       clipPathUnits="userSpaceOnUse"
       id="clipPath45">
      <g
         inkscape:label="Clip"
         id="g46">
        <ellipse
           style="opacity:0.998217;fill:#000000;fill-opacity:1;fill-rule:evenodd;stroke:none;stroke-width:5.40469;stroke-linecap:round;stroke-linejoin:round;stroke-miterlimit:3.6;stroke-dasharray:10.8094, 5.40469, 2.70235, 5.40469"
           id="ellipse46"
           ry="197.34033"
           rx="196.52637"
           cy="255.99998"
           cx="252.74403"
           sodipodi:insensitive="true" />
      </g>
    </clipPath>
    <clipPath
       clipPathUnits="userSpaceOnUse"
       id="clipPath46">
      <g
         inkscape:label="Clip"
         id="g47">
        <ellipse
           style="opacity:0.998217;fill:#000000;fill-opacity:1;fill-rule:evenodd;stroke:none;stroke-width:5.40469;stroke-linecap:round;stroke-linejoin:round;stroke-miterlimit:3.6;stroke-dasharray:10.8094, 5.40469, 2.70235, 5.40469"
           id="ellipse47"
           ry="197.34033"
           rx="196.52637"
           cy="255.99998"
           cx="252.74403"
           sodipodi:insensitive="true" />
      </g>
    </clipPath>
    <clipPath
       clipPathUnits="userSpaceOnUse"
       id="clipPath47">
      <g
         inkscape:label="Clip"
         id="g48"
         transform="matrix(0.99870029,0,0,1.5076456,-0.09639939,-304.00743)">
        <ellipse
           style="opacity:0.998217;fill:#000000;fill-opacity:1;fill-rule:evenodd;stroke:none;stroke-width:5.40469;stroke-linecap:round;stroke-linejoin:round;stroke-miterlimit:3.6;stroke-dasharray:10.8094, 5.40469, 2.70235, 5.40469"
           id="ellipse48"
           ry="197.34033"
           rx="196.52637"
           cy="255.99998"
           cx="252.74403"
           sodipodi:insensitive="true" />
      </g>
    </clipPath>
    <clipPath
       clipPathUnits="userSpaceOnUse"
       id="clipPath48">
      <g
         inkscape:label="Clip"
         id="g49"
         transform="matrix(1,0,0,1.0037704,0,-1.7822794)">
        <ellipse
           style="opacity:0.998217;fill:#000000;fill-opacity:1;fill-rule:evenodd;stroke:none;stroke-width:5.40469;stroke-linecap:round;stroke-linejoin:round;stroke-miterlimit:3.6;stroke-dasharray:10.8094, 5.40469, 2.70235, 5.40469"
           id="ellipse49"
           ry="197.34033"
           rx="196.52637"
           cy="255.99998"
           cx="252.74403"
           sodipodi:insensitive="true" />
      </g>
    </clipPath>
    <clipPath
       clipPathUnits="userSpaceOnUse"
       id="clipPath49">
      <g
         inkscape:label="Clip"
         id="g50">
        <ellipse
           style="opacity:0.998217;fill:#000000;fill-opacity:1;fill-rule:evenodd;stroke:none;stroke-width:5.40469;stroke-linecap:round;stroke-linejoin:round;stroke-miterlimit:3.6;stroke-dasharray:10.8094, 5.40469, 2.70235, 5.40469"
           id="ellipse50"
           ry="197.34033"
           rx="196.52637"
           cy="255.99998"
           cx="252.74403"
           sodipodi:insensitive="true" />
      </g>
    </clipPath>
    <linearGradient
       inkscape:collect="always"
       xlink:href="#linearGradient50"
       id="linearGradient51"
       x1="56.048201"
       y1="81.949821"
       x2="448.59008"
       y2="81.949821"
       gradientUnits="userSpaceOnUse" />
    <filter
       inkscape:collect="always"
       style="color-interpolation-filters:sRGB"
       id="filter51"
       x="-0.55948505"
       y="-0.131186"
       width="2.1189701"
       height="1.262372">
      <feGaussianBlur
         inkscape:collect="always"
         stdDeviation="2.7119924"
         id="feGaussianBlur51" />
    </filter>
    <filter
       inkscape:collect="always"
       style="color-interpolation-filters:sRGB"
       id="filter52"
       x="-0.32534927"
       y="-0.75696983"
       width="1.6506985"
       height="2.5139397">
      <feGaussianBlur
         inkscape:collect="always"
         stdDeviation="18.360444"
         id="feGaussianBlur52" />
    </filter>
    <filter
       inkscape:collect="always"
       style="color-interpolation-filters:sRGB"
       id="filter53"
       x="-0.015148563"
       y="-0.063882211"
       width="1.0302971"
       height="1.1277644">
      <feGaussianBlur
         inkscape:collect="always"
         stdDeviation="2.2726172"
         id="feGaussianBlur53" />
    </filter>
  </defs>
  <ellipse
     style="opacity:0.998217;fill:#000000;fill-opacity:1;fill-rule:evenodd;stroke:none;stroke-width:5.40469;stroke-linecap:round;stroke-linejoin:round;stroke-miterlimit:3.6;stroke-dasharray:10.8094, 5.40469, 2.70235, 5.40469"
     id="path2"
     ry="197.34033"
     rx="196.52637"
     cy="255.99998"
     cx="252.74403"
     clip-path="url(#clipPath49)" />
  <path
     style="opacity:0.998217;fill:url(#linearGradient51);fill-rule:evenodd;stroke:#ffffff;stroke-width:5.918;stroke-linecap:round;stroke-linejoin:round;stroke-miterlimit:3.6;stroke-dasharray:none;stroke-dashoffset:0;filter:url(#filter4)"
     d="M 206.56698,108.57416 -215.45465,1109.2111 488.9043,159.85316 40.928943,228.96501 Z"
     id="path3"
     sodipodi:nodetypes="ccccc"
     transform="matrix(0.9909332,0,0,0.64823828,2.3056247,204.91195)"
     clip-path="url(#clipPath47)" />
  <path
     style="opacity:0.359036;mix-blend-mode:normal;fill:#000a4b;fill-opacity:1;fill-rule:evenodd;stroke:none;stroke-width:4.8172;stroke-linecap:round;stroke-linejoin:round;stroke-miterlimit:3.6;stroke-dasharray:none;stroke-dashoffset:0;filter:url(#filter52)"
     d="m 208.30148,255.35717 c 4.769,0.70537 5.50515,1.04191 5.57557,2.54896 l 0.0811,1.73629 0.52936,-1.70206 c 0.50652,-1.62867 0.73996,-1.65953 5.41329,-0.71569 2.68617,0.5425 5.34182,0.81137 5.90144,0.59748 0.55961,-0.21389 1.01748,0.005 1.01748,0.48665 0,0.48154 0.58642,0.6505 1.30314,0.37547 0.71673,-0.27504 1.54089,-0.17001 1.83148,0.23338 0.7702,1.0692 5.99088,2.75974 8.52254,2.75974 1.19937,0 2.18068,0.27711 2.18068,0.6158 0,0.675 5.74635,2.64017 7.72009,2.64017 0.67859,0 1.23381,0.36629 1.23381,0.81399 0,0.44769 0.47943,0.81399 1.0654,0.81399 2.77642,0 3.8956,2.1548 5.02575,9.67624 1.01491,6.75444 0.99817,8.27447 -0.14779,13.41885 -0.7111,3.19222 -3.24778,9.7196 -5.64001,14.51284 l -4.34766,8.71128 -4.54285,-2.00906 c -2.49856,-1.10499 -5.15997,-2.10529 -5.91425,-2.2229 -0.75427,-0.11761 -1.73986,-0.44433 -2.1902,-0.72603 -3.42623,-2.14322 -20.5437,-6.84905 -23.44596,-6.44562 -0.81016,0.11262 -1.90905,-0.15569 -2.44197,-0.59624 -0.53292,-0.44055 -3.99089,-1.242 -7.68437,-1.78101 -3.69349,-0.539 -6.71543,-1.06947 -6.71543,-1.17881 0,-0.10934 1.27848,-1.8071 2.84107,-3.77281 1.56259,-1.96571 2.84462,-4.03188 2.84897,-4.5915 0.006,-0.79691 -7.00644,-1.0194 -32.34822,-1.02632 l -32.35612,-0.009 -6.30843,-8.88182 c -5.7962,-8.16064 -6.30843,-9.2048 -6.30843,-12.85945 0,-2.18769 0.45787,-4.53879 1.01749,-5.22467 0.90211,-1.10564 15.09448,-5.20121 15.75048,-4.54521 0.14277,0.14277 0.505,3.20234 0.80496,6.79903 l 0.54537,6.53945 7.01716,4.41371 c 9.54052,6.00088 15.74564,8.03111 24.6272,8.05766 6.60163,0.0197 7.426,-0.17811 13.58344,-3.26001 7.74469,-3.87633 8.95978,-5.5002 12.6492,-16.90455 2.88461,-8.91661 2.41486,-8.61335 11.30518,-7.2984 z m 4.95535,7.33771 c 0.22581,0.55962 0.41056,0.10175 0.41056,-1.01749 0,-1.11923 -0.18475,-1.5771 -0.41056,-1.01748 -0.22582,0.55961 -0.22582,1.47535 0,2.03497 z m -1.40611,4.27345 c -0.39891,1.78339 -0.32339,2.11268 0.28002,1.22099 0.45444,-0.67154 0.83187,-1.92306 0.83872,-2.78114 0.0166,-2.08255 -0.44925,-1.43283 -1.11874,1.56015 z m -7.34955,12.92168 c -2.98417,4.42075 -5.30064,8.16285 -5.14772,8.31578 0.2616,0.26159 9.47035,-13.30768 10.82207,-15.94652 1.2089,-2.36001 -0.29973,-0.33125 -5.67435,7.63074 z"
     id="path25"
     clip-path="url(#clipPath35)"
     transform="matrix(1.3396004,0,0,1.7289092,-38.676929,-204.96331)" />
  <path
     style="opacity:0.359036;mix-blend-mode:normal;fill:#000a4b;fill-opacity:1;fill-rule:evenodd;stroke:none;stroke-width:4.8172;stroke-linecap:round;stroke-linejoin:round;stroke-miterlimit:3.6;stroke-dasharray:none;stroke-dashoffset:0;filter:url(#filter51)"
     d="m 259.90274,271.28239 c 0.50323,0.8058 1.38445,3.64459 1.95827,6.30842 0.57382,2.66384 1.38062,5.28516 1.79289,5.82517 0.41227,0.54001 0.51328,1.36417 0.22447,1.83148 -0.28881,0.46731 -0.22878,1.30752 0.13342,1.86714 0.36219,0.55961 0.69237,3.24839 0.73373,5.97506 0.0414,2.72667 0.31242,5.34142 0.60237,5.81056 0.64682,1.04658 -5.93768,20.5705 -6.93746,20.5705 -0.39397,0 -1.60171,-0.58014 -2.68388,-1.28921 l -1.96757,-1.2892 1.68405,-4.20523 c 4.73205,-11.81634 6.24421,-17.51738 5.90656,-22.26846 -0.65761,-9.25304 -1.04538,-12.43754 -1.62965,-13.3829 -0.32561,-0.52686 -0.68503,-1.72552 -0.79871,-2.66369 -0.11368,-0.93817 -0.46258,-2.34678 -0.77534,-3.13025 -0.74649,-1.86992 0.58289,-1.8392 1.75685,0.0406 z"
     id="path28"
     clip-path="url(#clipPath32)"
     transform="matrix(4.4872227,0,0,2.0919986,-862.21652,-334.6351)" />
  <path
     d="m 152.05565,256.79157 q 0,18.29429 -11.68638,31.25273 -11.6017,12.95846 -28.03039,12.95846 -16.598049,0 -28.199749,-12.95846 -11.601702,-13.05373 -11.601702,-31.25273 0,-18.29427 11.601702,-31.25272 11.6017,-13.05374 28.199749,-13.05374 16.42869,0 28.03039,12.95845 11.68638,12.95844 11.68638,31.34801 z m -7.19814,0 q 0,-15.05466 -9.56928,-25.63104 -9.4846,-10.57639 -23.03404,-10.57639 -13.549428,0 -23.118709,10.67167 -9.484606,10.57639 -9.484606,25.53576 0,14.86411 9.484606,25.53577 9.569281,10.67168 23.118709,10.67168 13.54944,0 23.03404,-10.57639 9.56928,-10.67168 9.56928,-25.63106 z m 48.5239,-41.44798 v 12.1009 q 7.45219,-8.48016 13.46475,-11.71976 6.01255,-3.23962 13.54943,-3.23962 8.12966,0 14.81969,3.90659 4.7423,2.85848 8.55307,9.52827 3.89547,6.57451 3.89547,13.53015 v 50.40456 h 6.01255 q 2.54053,0 3.64141,1.1434 1.1009,1.04811 1.1009,2.85848 0,1.71508 -1.1009,2.85848 -1.10088,1.1434 -3.64141,1.1434 h -19.05388 q -2.6252,0 -3.7261,-1.1434 -1.10088,-1.1434 -1.10088,-2.85848 0,-1.81037 1.10088,-2.85848 1.1009,-1.1434 3.7261,-1.1434 h 5.92788 v -49.0706 q 0,-8.48015 -5.50446,-14.29241 -5.50446,-5.90753 -14.735,-5.90753 -7.02877,0 -12.19449,3.23961 -5.16573,3.14434 -14.73501,15.81694 v 50.21399 h 8.04497 q 2.54053,0 3.64142,1.1434 1.10088,1.04811 1.10088,2.85848 0,1.71508 -1.10088,2.85848 -1.10089,1.1434 -3.64142,1.1434 h -23.2034 q -2.54051,0 -3.6414,-1.1434 -1.10089,-1.1434 -1.10089,-2.85848 0,-1.81037 1.10089,-2.85848 1.10089,-1.1434 3.6414,-1.1434 h 8.04498 v -66.41205 h -6.01256 q -2.54052,0 -3.6414,-1.1434 -1.1009,-1.14339 -1.1009,-2.95375 0,-1.7151 1.1009,-2.8585 1.10088,-1.14339 3.6414,-1.14339 z m 151.41488,82.51485 v -11.71978 q -14.56564,14.8641 -31.50242,14.8641 -10.41613,0 -15.8359,-6.38394 -7.02877,-8.38488 -7.02877,-19.53296 v -51.64323 h -9.56928 q -2.54052,0 -3.64141,-1.1434 -1.10089,-1.14339 -1.10089,-2.95375 0,-1.7151 1.10089,-2.8585 1.10089,-1.14339 3.64141,-1.14339 h 16.68273 v 59.74227 q 0,7.81318 4.40357,12.86317 4.40356,5.04999 11.00892,5.04999 17.3602,0 31.84115,-17.91316 v -51.64323 h -13.12601 q -2.54051,0 -3.64141,-1.1434 -1.10088,-1.14339 -1.10088,-2.95375 0,-1.7151 1.10088,-2.8585 1.1009,-1.14339 3.64141,-1.14339 h 20.23946 v 74.51109 h 6.01256 q 2.54052,0 3.64142,1.1434 1.10089,1.04811 1.10089,2.85848 0,1.71508 -1.10089,2.85848 -1.1009,1.1434 -3.64142,1.1434 z m 78.24798,-22.96315 h 3.04863 q 4.74229,0 8.12965,3.81132 3.38736,3.71602 3.38736,9.05185 0,5.5264 -3.47203,9.24243 -3.38737,3.71602 -8.04498,3.71602 h -3.04863 q -4.7423,0 -8.12966,-3.71602 -3.38736,-3.81131 -3.38736,-9.14714 0,-5.52641 3.38736,-9.24243 3.47204,-3.71603 8.12966,-3.71603 z"
     id="text28"
     style="font-size:163.611px;font-family:Monospace;-inkscape-font-specification:Monospace;opacity:0.617;fill:#ffffff;fill-rule:evenodd;stroke-width:18.9014;stroke-linecap:round;stroke-linejoin:round;stroke-miterlimit:3.6"
     aria-label="onu." />
  <path
     d="m 150.96227,258.35856 q 0,17.64588 -11.5257,30.14503 -11.44217,12.49917 -27.64496,12.49917 -16.369828,0 -27.812004,-12.49917 -11.442177,-12.59106 -11.442177,-30.14503 0,-17.64585 11.442177,-30.14501 11.442176,-12.59107 27.812004,-12.59107 16.20279,0 27.64496,12.49915 11.5257,12.49915 11.5257,30.23693 z m -7.09917,0 q 0,-14.52107 -9.4377,-24.72258 -9.35419,-10.20153 -22.71732,-10.20153 -13.363122,0 -22.800824,10.29343 -9.354192,10.20153 -9.354192,24.63068 0,14.33728 9.354192,24.6307 9.437702,10.29344 22.800824,10.29344 13.36313,0 22.71732,-10.20153 9.4377,-10.29344 9.4377,-24.72261 z m 47.85669,-39.97892 v 11.672 q 7.34972,-8.17959 13.27961,-11.30437 5.92988,-3.12479 13.36312,-3.12479 8.01788,0 14.61592,3.76812 4.67709,2.75717 8.43547,9.19056 3.8419,6.34149 3.8419,13.05059 v 48.61806 h 5.92988 q 2.5056,0 3.59134,1.10287 1.08576,1.01096 1.08576,2.75717 0,1.65429 -1.08576,2.75716 -1.08574,1.10288 -3.59134,1.10288 H 232.3938 q -2.5891,0 -3.67486,-1.10288 -1.08575,-1.10287 -1.08575,-2.75716 0,-1.74621 1.08575,-2.75717 1.08576,-1.10287 3.67486,-1.10287 h 5.84637 v -47.33138 q 0,-8.17958 -5.42877,-13.78583 -5.42877,-5.69815 -14.53239,-5.69815 -6.93212,0 -12.02682,3.12479 -5.0947,3.03289 -14.5324,15.25633 v 48.43424 h 7.93435 q 2.5056,0 3.59135,1.10287 1.08575,1.01096 1.08575,2.75717 0,1.65429 -1.08575,2.75716 -1.08575,1.10288 -3.59135,1.10288 h -22.88435 q -2.50558,0 -3.59133,-1.10288 -1.08575,-1.10287 -1.08575,-2.75716 0,-1.74621 1.08575,-2.75717 1.08575,-1.10287 3.59133,-1.10287 h 7.93436 v -64.05819 h -5.92988 q -2.50559,0 -3.59133,-1.10287 -1.08577,-1.10286 -1.08577,-2.84906 0,-1.65431 1.08577,-2.75718 1.08574,-1.10287 3.59133,-1.10287 z m 149.33291,79.59025 v -11.3044 q -14.36536,14.33727 -31.06926,14.33727 -10.2729,0 -15.61815,-6.15767 -6.93213,-8.08769 -6.93213,-18.84065 v -49.81282 h -9.4377 q -2.50558,0 -3.59134,-1.10287 -1.08575,-1.10286 -1.08575,-2.84906 0,-1.65431 1.08575,-2.75718 1.08576,-1.10287 3.59134,-1.10287 h 16.45334 v 57.6248 q 0,7.53626 4.34302,12.40726 4.34302,4.871 10.85755,4.871 17.1215,0 31.40333,-17.27826 v -49.81282 h -12.94552 q -2.50558,0 -3.59134,-1.10287 -1.08575,-1.10286 -1.08575,-2.84906 0,-1.65431 1.08575,-2.75718 1.08576,-1.10287 3.59134,-1.10287 h 19.96116 v 71.87017 h 5.92989 q 2.50558,0 3.59135,1.10287 1.08575,1.01096 1.08575,2.75717 0,1.65429 -1.08575,2.75716 -1.08577,1.10288 -3.59135,1.10288 z m 77.17206,-22.14926 h 3.00671 q 4.67709,0 8.01787,3.67623 3.34078,3.58431 3.34078,8.73102 0,5.33053 -3.42429,8.91485 -3.34079,3.58431 -7.93436,3.58431 h -3.00671 q -4.67709,0 -8.01787,-3.58431 -3.34079,-3.67622 -3.34079,-8.82293 0,-5.33054 3.34079,-8.91485 3.4243,-3.58432 8.01787,-3.58432 z"
     id="path53"
     style="font-size:163.611px;font-family:Monospace;-inkscape-font-specification:Monospace;opacity:0.07528958;fill:#ffffff;fill-rule:evenodd;stroke-width:18.4353;stroke-linecap:round;stroke-linejoin:round;stroke-miterlimit:3.6;filter:url(#filter53)"
     aria-label="onu." />
</svg>
