<?xml version="1.0" encoding="UTF-8" standalone="no"?>
<!-- Uploaded to: SVG Repo, www.svgrepo.com, Generator: SVG Repo Mixer Tools -->

<svg
   height="800px"
   width="800px"
   version="1.1"
   id="Layer_1"
   viewBox="0 0 511.6 511.6"
   xml:space="preserve"
   sodipodi:docname="puzzle-toy-svgrepo-com.svg"
   inkscape:version="1.4.3 (0d15f75, 2025-12-25)"
   xmlns:inkscape="http://www.inkscape.org/namespaces/inkscape"
   xmlns:sodipodi="http://sodipodi.sourceforge.net/DTD/sodipodi-0.dtd"
   xmlns="http://www.w3.org/2000/svg"
   xmlns:svg="http://www.w3.org/2000/svg"><defs
   id="defs8"><filter
     inkscape:collect="always"
     style="color-interpolation-filters:sRGB"
     id="filter8"
     x="-0.10279407"
     y="-0.10279784"
     width="1.2055881"
     height="1.2055957"><feGaussianBlur
       inkscape:collect="always"
       stdDeviation="10.500114"
       id="feGaussianBlur8" /></filter><filter
     inkscape:collect="always"
     style="color-interpolation-filters:sRGB"
     id="filter9"
     x="-0.070885506"
     y="-0.085807536"
     width="1.141771"
     height="1.1716151"><feGaussianBlur
       inkscape:collect="always"
       stdDeviation="7.2405116"
       id="feGaussianBlur9" /></filter><filter
     inkscape:collect="always"
     style="color-interpolation-filters:sRGB"
     id="filter10"
     x="-0.16993178"
     y="-0.16992423"
     width="1.3398636"
     height="1.3398485"><feGaussianBlur
       inkscape:collect="always"
       stdDeviation="14.338419"
       id="feGaussianBlur10" /></filter><filter
     inkscape:collect="always"
     style="color-interpolation-filters:sRGB"
     id="filter11"
     x="-0.13628766"
     y="-0.11258652"
     width="1.2725753"
     height="1.225173"><feGaussianBlur
       inkscape:collect="always"
       stdDeviation="11.50001"
       id="feGaussianBlur11" /></filter></defs><sodipodi:namedview
   id="namedview8"
   pagecolor="#ffffff"
   bordercolor="#000000"
   borderopacity="0.25"
   inkscape:showpageshadow="2"
   inkscape:pageopacity="0.0"
   inkscape:pagecheckerboard="0"
   inkscape:deskcolor="#d1d1d1"
   inkscape:zoom="0.73125"
   inkscape:cx="399.31624"
   inkscape:cy="384.95726"
   inkscape:window-width="1440"
   inkscape:window-height="829"
   inkscape:window-x="-8"
   inkscape:window-y="-8"
   inkscape:window-maximized="1"
   inkscape:current-layer="Layer_1" />
<path
   style="mix-blend-mode:normal;fill:#2f2f2f;fill-opacity:1;filter:url(#filter11)"
   d="m 213.164,237.986 c -3.341,1.187 -6.924,1.827 -10.664,1.827 -17.658,0 -31.975,-14.317 -31.975,-31.976 0,-17.657 14.317,-31.975 31.975,-31.975 3.739,0 7.322,0.641 10.664,1.827 V 106.58 h -76.44 c 1.179,3.342 1.827,6.925 1.827,10.664 0,17.658 -14.317,31.975 -31.975,31.975 -17.658,0 -31.975,-14.316 -31.975,-31.975 0,-3.739 0.648,-7.322 1.827,-10.664 H 10.651 v 202.506 h 71.108 c -1.179,3.342 -1.827,6.933 -1.827,10.664 0,17.658 14.317,31.975 31.975,31.975 17.658,0 31.975,-14.316 31.975,-31.975 0,-3.731 -0.648,-7.322 -1.827,-10.664 h 71.108 v -71.1 z"
   id="path1"
   transform="matrix(0.89473966,0,0,0.9119083,32.322607,10.494359)" />
<path
   style="mix-blend-mode:normal;fill:#000000;fill-opacity:1;filter:url(#filter10)"
   d="m 405.023,442.326 c -17.674,0 -31.976,-14.317 -31.976,-31.976 0,-17.659 14.302,-31.975 31.976,-31.975 3.715,0 7.307,0.64 10.647,1.826 V 309.085 H 213.164 V 511.6 H 415.67 v -71.101 c -3.341,1.171 -6.933,1.827 -10.647,1.827 z"
   id="path2"
   transform="matrix(0.89473966,0,0,0.9119083,32.322607,10.494359)" />
<path
   style="mix-blend-mode:normal;fill:#191919;fill-opacity:1;filter:url(#filter9)"
   d="m 223.82,378.376 c -3.739,0 -7.322,0.64 -10.656,1.826 V 309.086 H 10.651 v 71.116 c 3.341,-1.187 6.924,-1.826 10.664,-1.826 17.658,0 31.975,14.316 31.975,31.975 0,17.659 -14.317,31.976 -31.975,31.976 -3.739,0 -7.322,-0.656 -10.664,-1.827 v 71.1 h 202.514 v -71.101 c 3.333,1.171 6.917,1.827 10.656,1.827 17.658,0 31.975,-14.317 31.975,-31.976 0,-17.659 -14.318,-31.974 -31.976,-31.974 z"
   id="path3"
   transform="matrix(0.89473966,0,0,0.9119083,32.322607,10.494359)" />
<path
   style="mix-blend-mode:normal;fill:#261a02;fill-opacity:1;filter:url(#filter8)"
   d="m 489.57911,160.58777 c -3.341,1.179 -6.933,1.826 -10.679,1.826 -17.643,0 -31.976,-14.309 -31.976,-31.975 0,-17.658 14.333,-31.976001 31.976,-31.976001 3.746,0 7.338,0.648 10.679,1.827001 V 29.190769 h -202.53 v 71.100001 c -3.325,-1.179001 -6.901,-1.827001 -10.647,-1.827001 -17.658,0 -31.976,14.317001 -31.976,31.976001 0,17.666 14.317,31.975 31.976,31.975 3.746,0 7.322,-0.647 10.647,-1.826 v 71.108 h 71.116 c -1.171,3.341 -1.826,6.916 -1.826,10.663 0,17.658 14.316,31.975 31.975,31.975 17.659,0 31.975,-14.316 31.975,-31.975 0,-3.747 -0.656,-7.322 -1.826,-10.663 h 71.116 z"
   id="path4"
   transform="matrix(0.89473966,0,0,0.9119083,32.322607,10.494359)" />
<path
   style="fill:#8b8b8b;fill-opacity:1;stroke-width:0.903283"
   d="m 394.71275,394.40684 c -15.81363,0 -28.6102,-13.05579 -28.6102,-29.15918 0,-16.10157 12.79657,-29.15827 28.6102,-29.15827 3.32396,0 6.53786,0.5973 9.52629,1.66606 v -64.8376 H 223.04889 v 184.67329 h 181.19015 v -64.85127 c -2.98932,1.08335 -6.20323,1.66697 -9.52629,1.66697 z"
   id="path5" />
<path
   style="fill:#0f4180;fill-opacity:1;stroke-width:0.903283"
   d="m 232.58324,336.0903 c -3.34543,0 -6.55128,0.5973 -9.53435,1.66606 V 272.91877 H 41.852479 v 64.83759 c 2.989325,-1.06876 6.195177,-1.66606 9.541504,-1.66606 15.799313,0 28.6093,13.05579 28.6093,29.15827 0,16.10248 -12.809987,29.15918 -28.6093,29.15918 -3.345432,0 -6.551284,-0.58453 -9.541504,-1.66606 v 64.85127 H 223.04979 v -64.85127 c 2.98217,1.08244 6.18891,1.66606 9.53434,1.66606 15.79932,0 28.6093,-13.05579 28.6093,-29.15918 -8.9e-4,-16.10248 -12.81088,-29.15827 -28.61019,-29.15827 z"
   id="path6" />
<path
   style="fill:#0f4180;fill-opacity:1;stroke-width:0.903283"
   d="m 480.54065,130.32367 c -2.98932,1.07514 -6.20323,1.66514 -9.55492,1.66514 -15.7859,0 -28.6102,-13.05488 -28.6102,-29.15827 0,-16.103386 12.8243,-29.159176 28.6102,-29.159176 3.35169,0 6.5656,0.59092 9.55492,1.66606 V 10.494359 H 299.32903 v 64.843975 c -2.97501,-1.07514 -6.1746,-1.66606 -9.52629,-1.66606 -15.79932,0 -28.6102,13.0558 -28.6102,29.159176 0,16.10339 12.80999,29.15827 28.6102,29.15827 3.35169,0 6.55128,-0.59 9.52629,-1.66514 v 64.84397 h 63.6303 c -1.04774,3.0321 -1.63379,6.30676 -1.63379,9.70909 0,16.10248 12.80909,29.15918 28.6093,29.15918 15.80021,0 28.6093,-13.05579 28.6093,-29.15918 0,-3.40233 -0.58695,-6.67699 -1.63379,-9.70909 h 63.6303 z"
   id="path7" />
<path
   style="fill:#818181;fill-opacity:1;stroke-width:0.903283"
   d="m 223.04889,208.08117 c -2.98932,1.06785 -6.19517,1.66606 -9.5415,1.66606 -15.79931,0 -28.6093,-13.05579 -28.6093,-29.15827 0,-16.10247 12.80999,-29.16556 28.6093,-29.16556 3.34543,0 6.55128,0.59092 9.5415,1.66606 V 88.252784 h -68.3939 c 1.0549,3.03939 1.63469,6.30675 1.63469,9.71638 0,16.102476 -12.80998,29.158266 -28.6093,29.158266 -15.79931,0 -28.6093,-13.05488 -28.6093,-29.158266 0,-3.40963 0.579791,-6.67699 1.63469,-9.71638 H 41.852479 V 272.91968 h 63.623151 c -1.0549,3.04668 -1.63469,6.30676 -1.63469,9.72368 0,16.10247 12.80998,29.15826 28.6093,29.15826 15.79931,0 28.6093,-13.05488 28.6093,-29.15826 0,-3.41692 -0.57979,-6.677 -1.63469,-9.72368 H 223.048 v -64.83851 z"
   id="path8" />
</svg>
