<?xml version="1.0" encoding="UTF-8" standalone="no"?>
<!-- Uploaded to: SVG Repo, www.svgrepo.com, Generator: SVG Repo Mixer Tools -->

<svg
   width="800px"
   height="800px"
   viewBox="0 0 24 24"
   fill="none"
   version="1.1"
   id="svg2"
   sodipodi:docname="flag-2-svgrepo-com.svg"
   xml:space="preserve"
   inkscape:version="1.4.3 (0d15f75, 2025-12-25)"
   xmlns:inkscape="http://www.inkscape.org/namespaces/inkscape"
   xmlns:sodipodi="http://sodipodi.sourceforge.net/DTD/sodipodi-0.dtd"
   xmlns:xlink="http://www.w3.org/1999/xlink"
   xmlns="http://www.w3.org/2000/svg"
   xmlns:svg="http://www.w3.org/2000/svg"><defs
     id="defs2"><linearGradient
       id="linearGradient19"
       inkscape:collect="always"><stop
         style="stop-color:#1c274c;stop-opacity:1;"
         offset="0"
         id="stop19" /><stop
         style="stop-color:#070b12;stop-opacity:1;"
         offset="1"
         id="stop20" /></linearGradient><linearGradient
       inkscape:collect="always"
       xlink:href="#linearGradient19"
       id="linearGradient20"
       x1="14.311551"
       y1="2.4943841"
       x2="11.442504"
       y2="14.921592"
       gradientUnits="userSpaceOnUse"
       gradientTransform="matrix(1.210681,0,0,1.0974518,-1.7180069,-2.5652714)" /></defs><sodipodi:namedview
     id="namedview2"
     pagecolor="#ffffff"
     bordercolor="#000000"
     borderopacity="0.25"
     inkscape:showpageshadow="2"
     inkscape:pageopacity="0.0"
     inkscape:pagecheckerboard="0"
     inkscape:deskcolor="#d1d1d1"
     inkscape:zoom="0.73125"
     inkscape:cx="418.46154"
     inkscape:cy="397.26496"
     inkscape:window-width="1440"
     inkscape:window-height="829"
     inkscape:window-x="-8"
     inkscape:window-y="-8"
     inkscape:window-maximized="1"
     inkscape:current-layer="svg2" /><path
     opacity="0.5"
     fill-rule="evenodd"
     clip-rule="evenodd"
     d="m 5.8445216,1.4446929 c 0,-0.4268561 -0.4186546,-0.77289803 -0.9350813,-0.77289803 -0.5164267,0 -0.9350813,0.34604193 -0.9350813,0.77289803 V 22.055308 c 0,0.426844 0.4186546,0.772898 0.9350813,0.772898 0.5164267,0 0.9350813,-0.346054 0.9350813,-0.772898 V 13.656482 3.3511748 Z"
     fill="#1c274c"
     id="path1"
     style="opacity:1;fill:#3f3300;fill-opacity:1;stroke-width:1.13351" /><path
     id="path10"
     style="fill:url(#linearGradient20);stroke-width:1.15267"
     d="M 9.7430747,0.83614357 C 9.2383158,0.86020823 8.7341372,0.91739341 8.2345709,1.0079633 L 6.1513958,1.3856197 V 12.360097 l 2.0831751,-0.377658 c 1.9982651,-0.362268 4.0696771,-0.189848 5.9617301,0.496169 2.050409,0.743413 4.306938,0.882203 6.449359,0.39669 l 0.121237,-0.02738 c 0.70958,-0.160777 1.046009,-0.897262 0.66973,-1.465742 L 19.547251,8.5275234 c -0.413448,-0.6245918 -0.62027,-0.9368537 -0.669303,-1.276559 -0.02035,-0.1417029 -0.02035,-0.2852633 0,-0.4269774 0.04903,-0.3397053 0.255855,-0.651998 0.669303,-1.2766237 L 21.095126,3.208826 C 21.50022,2.5967552 20.886713,1.8462108 20.122774,2.019334 18.320311,2.4278056 16.421728,2.3110255 14.696629,1.6855328 L 14.196301,1.5040674 C 12.777261,0.98952983 11.257351,0.76394945 9.7430747,0.83614357 Z M 12.873229,2.8725171 c 1.732464,0 3.231422,0.9061171 3.951692,2.2241407 h -3.961482 v 3.214e-4 c -1.025057,0.0046 -1.863416,0.7245365 -1.938248,1.6373683 L 9.4137079,4.3918878 C 10.221281,3.4663394 11.470499,2.8725171 12.873229,2.8725171 Z M 9.2118175,4.6419654 11.035855,7.4694688 c 0.27205,0.6810915 0.991923,1.1679506 1.837302,1.1679506 l -3.54e-4,-3.859e-4 c 0.31882,0 0.619712,-0.06927 0.885524,-0.1922042 L 12.237905,10.819826 C 10.104774,10.540749 8.4654753,8.877265 8.4654753,6.866492 c 0,-0.8234561 0.2751278,-1.5886527 0.7463422,-2.2245266 z m 3.6614115,0.7394297 c 0.905403,0 1.639315,0.6651742 1.639315,1.4858042 0,0.8206298 -0.733912,1.4858038 -1.639315,1.4858038 -0.905401,0 -1.639314,-0.665174 -1.639314,-1.4858038 0,-0.82063 0.733913,-1.4858042 1.639314,-1.4858042 z m 1.062799,0 h 3.029564 v 6.43e-5 c 0.203442,0.4592264 0.315346,0.9608124 0.31532,1.4857399 0,2.2061281 -1.973377,3.9946827 -4.4074,3.9946827 -0.09861,0 -0.196031,-0.0032 -0.292692,-0.0088 l 2.010394,-3.1398575 -0.0012,-7.073e-4 c 0.150827,-0.2511696 0.23658,-0.5390593 0.23658,-0.8453381 0,-0.6228023 -0.354256,-1.1703404 -0.89056,-1.4858041 z" /></svg>
