<?xml version="1.0" encoding="UTF-8" standalone="no"?>

<svg
   width="1027.123"
   height="580"
   version="1.1"
   viewBox="0 0 1027.123 580.00003"
   id="svg28"
   sodipodi:docname="onu.svg"
   xmlns:inkscape="http://www.inkscape.org/namespaces/inkscape"
   xmlns:sodipodi="http://sodipodi.sourceforge.net/DTD/sodipodi-0.dtd"
   xmlns="http://www.w3.org/2000/svg"
   xmlns:svg="http://www.w3.org/2000/svg"
   xmlns:rdf="http://www.w3.org/1999/02/22-rdf-syntax-ns#"
   xmlns:cc="http://creativecommons.org/ns#"
   xmlns:dc="http://purl.org/dc/elements/1.1/">
  <sodipodi:namedview
     id="namedview28"
     pagecolor="#ffffff"
     bordercolor="#000000"
     borderopacity="0.25"
     inkscape:showpageshadow="2"
     inkscape:pageopacity="0.0"
     inkscape:pagecheckerboard="0"
     inkscape:deskcolor="#d1d1d1"
     inkscape:zoom="0.55494812"
     inkscape:cx="513.56152"
     inkscape:cy="289.21623"
     inkscape:window-width="1440"
     inkscape:window-height="829"
     inkscape:window-x="-8"
     inkscape:window-y="-8"
     inkscape:window-maximized="1"
     inkscape:current-layer="svg28" />
  <title
     id="title1">onu.</title>
  <defs
     id="defs20">
    <linearGradient
       id="linearGradient2"
       x1="2.9589"
       x2="14.103"
       y1="7.7744002"
       y2="7.7744002"
       gradientTransform="matrix(1.2081,0,0,1.2202,-2.4128,-1.5672)"
       gradientUnits="userSpaceOnUse">
      <stop
         stop-color="#9b9b9b"
         offset="0"
         id="stop1" />
      <stop
         stop-color="#ffffff"
         stop-opacity="0"
         offset="1"
         id="stop2" />
    </linearGradient>
    <radialGradient
       id="radialGradient4"
       cx="9.434"
       cy="7.7009001"
       r="4.1069002"
       gradientTransform="matrix(1.2078,-0.027689,0.025579,1.1383,-2.6068,-0.71948)"
       gradientUnits="userSpaceOnUse">
      <stop
         stop-color="#ffffff"
         offset=".52425"
         id="stop3" />
      <stop
         stop-color="#545454"
         stop-opacity=".88682"
         offset="1"
         id="stop4" />
    </radialGradient>
    <radialGradient
       id="radialGradient9"
       cx="8.4425001"
       cy="7.7914"
       r="5.0946999"
       gradientTransform="matrix(2.8988,0.026956,-0.024848,2.7261,-16.493,-13.528)"
       gradientUnits="userSpaceOnUse">
      <stop
         stop-color="#000000"
         offset="0"
         id="stop5" />
      <stop
         stop-color="#4c4c4c"
         offset="1"
         id="stop6" />
    </radialGradient>
    <radialGradient
       id="radialGradient6"
       cx="34.312"
       cy="19.771999"
       r="11.993"
       gradientTransform="matrix(2.4501,0.20438,-0.040389,0.48419,-48.957,6.6445)"
       gradientUnits="userSpaceOnUse">
      <stop
         stop-color="#000000"
         offset="0"
         id="stop7" />
      <stop
         stop-color="#383838"
         offset="1"
         id="stop8" />
    </radialGradient>
    <radialGradient
       id="radialGradient7"
       cx="34.312"
       cy="19.771999"
       r="11.993"
       gradientTransform="matrix(2.4338,0.20301,-0.040119,0.48096,-50.022,3.9754)"
       gradientUnits="userSpaceOnUse">
      <stop
         stop-color="#dedede"
         offset="0"
         id="stop9" />
      <stop
         stop-color="#ffffff"
         stop-opacity=".46284"
         offset="1"
         id="stop10" />
    </radialGradient>
    <linearGradient
       id="linearGradient12"
       x1="2.8350999"
       x2="31.969"
       y1="10.845"
       y2="10.845"
       gradientUnits="userSpaceOnUse">
      <stop
         stop-color="#1a1a1a"
         offset=".65897"
         id="stop11" />
      <stop
         stop-color="#1a1a1a"
         stop-opacity="0"
         offset="1"
         id="stop12" />
    </linearGradient>
    <linearGradient
       id="linearGradient14"
       x1="2.8350999"
       x2="31.969"
       y1="10.845"
       y2="10.845"
       gradientUnits="userSpaceOnUse">
      <stop
         stop-color="#ffffff"
         offset="0"
         id="stop13" />
      <stop
         stop-color="#ffffff"
         stop-opacity="0"
         offset="1"
         id="stop14" />
    </linearGradient>
    <linearGradient
       id="linearGradient16"
       x1="2.7309"
       x2="32.02"
       y1="10.851"
       y2="10.851"
       gradientUnits="userSpaceOnUse">
      <stop
         stop-color="#ffffff"
         offset="0"
         id="stop15" />
      <stop
         stop-color="#ffffff"
         stop-opacity="0"
         offset="1"
         id="stop16" />
    </linearGradient>
    <linearGradient
       id="linearGradient18"
       x1="2.7309"
       x2="32.02"
       y1="10.851"
       y2="10.851"
       gradientUnits="userSpaceOnUse">
      <stop
         stop-color="#1a1a1a"
         offset="0"
         id="stop17" />
      <stop
         stop-color="#1a1a1a"
         stop-opacity="0"
         offset="1"
         id="stop18" />
    </linearGradient>
    <linearGradient
       id="linearGradient20"
       x1="1.4788001"
       x2="13.68"
       y1="19.055"
       y2="12.727"
       gradientUnits="userSpaceOnUse">
      <stop
         stop-color="#ffffff"
         offset="0"
         id="stop19" />
      <stop
         stop-color="#010101"
         offset="1"
         id="stop20" />
    </linearGradient>
  </defs>
  <g
     transform="matrix(31.924085,0,0,34.031554,20.522144,58.988271)"
     fill-rule="evenodd"
     stroke-miterlimit="3.6"
     stroke-width="0"
     id="g22">
    <path
       d="m 14.625,5.202 v 5.4353 q 0,1.7301 -1.6988,3.1999 -1.6829,1.4698 -3.4769,1.4698 H 6.3217 q -1.8258,0 -3.4928,-1.4851 -1.667,-1.5004 -1.667,-3.1846 V 5.202 q 0,-1.6842 1.6194,-3.1693 1.6352,-1.5004 3.5404,-1.5004 h 3.1276 q 1.794,-0.030622 3.4769,1.4392 1.6988,1.4698 1.6988,3.2305 z M 3.861,5.30918 v 5.2056 q 0,0.70429 0.52391,1.1177 l 1.0002,0.82677 q 0.3334,0.27559 0.9367,0.27559 h 3.0959 q 0.68268,0 1.2383,-0.47463 l 0.80969,-0.68898 q 0.49216,-0.36745 0.49216,-1.0258 v -5.2056 q 0,-0.76553 -0.49216,-1.133 L 10.529,3.48723 Q 10.05272,3.10447 9.4177,3.10447 H 6.6552 q -0.90494,0 -1.3971,0.41339 L 4.35316,4.26808 Q 3.861,4.66616 3.861,5.30918 Z"
       fill="url(#linearGradient2)"
       aria-label="o"
       id="path20"
       style="fill:url(#linearGradient2)" />
    <path
       d="m 13.56,5.5011 v 4.9226 q 0,1.5669 -1.252,2.8981 -1.2404,1.3312 -2.5626,1.3312 H 7.4402 q -1.3457,0 -2.5743,-1.3451 Q 3.6373,11.949 3.6373,10.4237 V 5.5011 q 0,-1.5253 1.1935,-2.8704 Q 6.036,1.2718 7.4402,1.2718 H 9.7454 Q 11.0677,1.244068 12.308,2.5753 13.56,3.9065 13.56,5.5011 Z M 5.6264,5.598167 v 4.7146 q 0,0.63786 0.38615,1.0123 l 0.73719,0.74879 q 0.24573,0.24959 0.69038,0.24959 h 2.2818 q 0.50316,0 0.91271,-0.42986 l 0.59677,-0.62399 q 0.36274,-0.3328 0.36274,-0.92906 v -4.7146 q 0,-0.69333 -0.36274,-1.0261 l -0.69038,-0.65173 q -0.35104,-0.34666 -0.8191,-0.34666 h -2.036 q -0.66698,0 -1.0297,0.3744 L 5.98924,4.655307 Q 5.6265,5.015837 5.6265,5.598227 Z"
       fill="url(#radialGradient4)"
       aria-label="o"
       id="path21"
       style="fill:url(#radialGradient4)" />
    <path
       d="M 13.941,10.473 V 5.4067 q 0,-1.6126 -1.5532,-2.9827 -1.5387,-1.37 -3.179,-1.37 H 6.3491 q -1.6694,0 -3.1935,1.3843 -1.5242,1.3986 -1.5242,2.9684 v 5.0663 q 0,1.5698 1.4806,2.9541 1.4952,1.3986 3.2371,1.3986 h 2.8597 q 1.6403,0.02854 3.179,-1.3415 1.5532,-1.37 1.5532,-3.0112 z M 4.0991,10.3731 V 5.5209 q 0,-0.65647 0.47903,-1.0418 L 5.49265,3.70846 Q 5.79749,3.45158 6.3491,3.45158 h 2.8306 q 0.62419,0 1.1323,0.44241 l 0.74032,0.6422 q 0.45,0.34251 0.45,0.95617 v 4.8522 q 0,0.71356 -0.45,1.0561 l -0.85645,0.67074 q -0.43548,0.35678 -1.0161,0.35678 h -2.5258 q -0.82742,0 -1.2774,-0.38532 L 4.54915,11.34357 q -0.45,-0.37105 -0.45,-0.97044 z"
       fill="url(#radialGradient9)"
       aria-label="o"
       id="path22"
       style="fill:url(#radialGradient9)" />
  </g>
  <metadata
     id="metadata22">
    <rdf:RDF>
      <cc:Work
         rdf:about="">
        <dc:title>onu.</dc:title>
      </cc:Work>
    </rdf:RDF>
  </metadata>
  <g
     transform="matrix(17.64249,0,0,17.947052,-14.027145,-39.381293)"
     stroke-width="0.10067"
     id="g24">
    <path
       d="m 4.7536,18.319 1.4721,-1.2478 c 7.8994,-4.1547 20.459,-11.721 23.34,-12.201 l -3.7101,3.8167 5.913,-4.9761 c 0.10603,-3.0221 -26.087,12.509 -26.087,12.509 l -2.4349,1.0563 z"
       fill="url(#linearGradient18)"
       stroke="url(#linearGradient16)"
       stroke-width="0.50336"
       id="path23"
       style="fill:url(#linearGradient18);stroke:url(#linearGradient16)" />
    <path
       d="M 8.5797,18.678 4.7458,15.1389 8.4101,19.0399 4.9476,15.1366 8.2053,19.3831 5.1487,15.1545 7.9674,19.7042 5.347,15.1922 7.6987,20 5.5406,15.2496 l 1.8613,5.018 -1.6744,-4.9417 1.3524,5.1784 -1.1741,-5.0839 0.83009,5.2873 -0.66204,-5.1755 0.29952,5.3437 -0.14344,-5.2157 -0.23403,5.347 0.37659,-5.2041 -0.76525,5.2971 0.89288,-5.1407 -1.2889,5.1946 1.4003,-5.0263 -1.7997,5.0404 1.8938,-4.8619 -2.2926,4.8362 2.3685,-4.6492 -2.7627,4.5839 2.8196,-4.3902 -3.2054,4.286 3.2427,-4.0877 -3.6162,3.9456 3.6336,-3.7445 -3.9911,3.5659 3.9884,-3.3641 -4.3263,3.1508 4.3035,-2.9503 -4.6186,2.7044 4.5759,-2.5071 -4.8649,2.2311 4.8028,-2.039 -5.0629,1.7356 4.9819,-1.5507 -5.2105,1.2229 5.1116,-1.047 -5.3064,0.69802 5.1904,-0.53281 -5.3495,0.1662 5.2177,-0.01336 -5.3395,-0.36726 5.1931,0.50622 -5.2764,-0.89708 5.1169,1.0208 -5.1608,-1.418 4.9898,1.5252 -4.994,-1.9248 4.8132,2.0144 -4.7775,-2.4125 4.5887,2.4836 -4.5136,-2.8762 4.3186,2.9282 -4.2048,-3.3113 4.0056,3.3436 -3.8542,-3.7135 3.6527,3.7258 -3.4653,-4.0788 3.2636,4.071 -3.042,-4.4036 2.8421,4.3757 -2.5884,-4.6846 2.3922,4.637 -2.1091,-4.919 1.9187,4.8521 -1.6089,-5.1046 1.426,5.019 -1.0926,-5.2394 0.9192,5.1361 -0.56551,-5.3221 0.40324,5.2021 -0.032786,-5.352 -0.11672,5.2164 0.50026,-5.3287 -0.63553,5.1788 1.0283,-5.2524 -1.148,5.0898 1.5462,-5.1239 -1.6491,4.9502 2.0487,-4.9445 -2.1338,4.7614 2.5308,-4.7159 -2.5973,4.5253 2.9878,-4.4405 -3.0349,4.2442 3.4151,-4.1209 -3.4424,3.921 3.8084,-3.7604 -3.8157,3.5587 4.1639,-3.3625 -4.1511,3.1611 4.478,-2.9312 -4.4452,2.7321 4.7476,-2.4708 -4.6952,2.2759 4.9701,-1.9858 -4.8984,1.7971 5.1431,-1.4811 -5.053,1.3004 5.265,-0.96165 -5.1574,0.79087 5.3346,-0.43265 -5.2105,0.27343 5.3511,0.10065 -5.2119,-0.24673 5.3145,0.63296 -5.1614,-0.76444 5.2251,1.159 -5.0596,-1.2745 5.0837,1.6735 -4.9076,-1.772 4.8919,2.1713 -4.7068,-2.2518 4.6514,2.6476 -4.4592,-2.7093 4.3646,3.0976 -4.1672,-3.1398 z"
       fill="#1a1a1a"
       stroke="#ffffff"
       id="path24" />
  </g>
  <g
     transform="matrix(22.338921,0,0,22.175987,-216.25418,-90.35587)"
     fill-rule="evenodd"
     stroke-linecap="round"
     stroke-linejoin="round"
     stroke-miterlimit="3.6"
     id="g26">
    <path
       d="m 36.519,20.564 -2.5047,1.6297 v 5.8734 q 0,0.37188 -0.27344,0.64531 -0.27344,0.27344 -0.64531,0.27344 -0.37187,0 -0.64531,-0.27344 Q 32.1768,28.43897 32.1768,28.0671 v -8.7172 q 0,-0.38281 0.2625,-0.65625 0.27344,-0.28438 0.65625,-0.28438 0.37188,0 0.64531,0.28438 0.27344,0.27344 0.27344,0.65625 v 0.6125 l 1.6734,-1.0172 q 0.84219,-0.53594 1.9031,-0.53594 h 0.85312 q 1.0938,0 1.8922,0.77656 0.79844,0.77656 0.84219,1.9141 l 0.25156,6.9672 q 0.01094,0.37188 -0.2625,0.64531 -0.27344,0.27344 -0.65625,0.27344 -0.36094,0 -0.63438,-0.24062 -0.27344,-0.25156 -0.28438,-0.67812 l -0.27344,-6.8578 q -0.03281,-0.9625 -1.0062,-0.9625 h -0.89688 q -0.41562,0 -0.89688,0.31719 z m 13.552,6.5625 3.0953,-1.9688 v -5.8078 q 0,-0.38281 0.2625,-0.65625 0.27344,-0.28438 0.65625,-0.28438 0.38281,0 0.64531,0.28438 0.27344,0.27344 0.27344,0.65625 v 8.7172 q 0,0.37188 -0.27344,0.64531 -0.27344,0.27344 -0.64531,0.27344 -0.37187,0 -0.64531,-0.27344 Q 53.1663,28.43897 53.1663,28.0671 v -0.72188 l -1.5969,1.0391 q -0.94062,0.60156 -1.9031,0.60156 h -0.85312 q -1.1266,0 -1.9359,-0.7875 -0.8093,-0.7875 -0.86406,-1.925 l -0.2625,-6.9234 q -0.02188,-0.36094 0.25156,-0.63438 0.28438,-0.28438 0.66719,-0.28438 0.37188,0 0.63438,0.27344 0.27344,0.27344 0.28438,0.64531 l 0.24062,6.7922 q 0.03281,0.98438 1.1266,0.98438 z"
       fill="url(#radialGradient7)"
       aria-label="nu"
       id="path25"
       style="fill:url(#radialGradient7)" />
    <path
       transform="matrix(0.99334,0,0,0.99334,-0.69586,-2.6249)"
       d="m 38.165,23.344 -2.5215,1.6406 v 5.9128 q 0,0.37437 -0.27527,0.64964 -0.27527,0.27527 -0.64964,0.27527 -0.37437,0 -0.64964,-0.27527 -0.27527,-0.27527 -0.27527,-0.64964 v -8.7757 q 0,-0.38538 0.26426,-0.66065 0.27527,-0.28628 0.66065,-0.28628 0.37437,0 0.64964,0.28628 0.27527,0.27527 0.27527,0.66065 v 0.61661 l 1.6847,-1.024 q 0.84784,-0.53953 1.9159,-0.53953 h 0.85885 q 1.1011,0 1.9049,0.78177 0.80379,0.78177 0.84784,1.9269 l 0.25325,7.0139 q 0.01101,0.37437 -0.26426,0.64964 -0.27527,0.27527 -0.66065,0.27527 -0.36336,0 -0.63863,-0.24224 -0.27527,-0.25325 -0.28628,-0.68268 l -0.27527,-6.9038 q -0.03303,-0.96896 -1.013,-0.96896 h -0.90289 q -0.41841,0 -0.90289,0.31932 z m 13.642,6.6065 3.1161,-1.982 v -5.8468 q 0,-0.38538 0.26426,-0.66065 0.27527,-0.28628 0.66065,-0.28628 0.38538,0 0.64964,0.28628 0.27527,0.27527 0.27527,0.66065 v 8.7757 q 0,0.37437 -0.27527,0.64964 -0.27527,0.27527 -0.64964,0.27527 -0.37437,0 -0.64964,-0.27527 Q 54.9231,31.27177 54.9231,30.8974 v -0.72672 l -1.6076,1.046 q -0.94694,0.6056 -1.9159,0.6056 h -0.85885 q -1.1341,0 -1.9489,-0.79278 -0.81481,-0.79278 -0.86986,-1.9379 l -0.26426,-6.9699 q -0.02202,-0.36336 0.25325,-0.63863 0.28628,-0.28628 0.67166,-0.28628 0.37437,0 0.63863,0.27527 0.27527,0.27527 0.28628,0.64964 l 0.24224,6.8378 q 0.03303,0.99098 1.1341,0.99098 z"
       fill="url(#radialGradient6)"
       stroke-width="1.0067"
       aria-label="nu"
       id="path26"
       style="fill:url(#radialGradient6)" />
  </g>
  <g
     transform="matrix(-29.955183,0,0,-32.347257,997.03748,684.89057)"
     id="g28">
    <path
       d="m 4.7536,18.319 1.4721,-1.2478 c 7.7791,-4.0672 14.314,-8.1343 23.34,-12.201 l -3.942,4.2867 6.1449,-5.4462 C 31.87463,0.6886 5.6816,16.2197 5.6816,16.2197 L 3.2467,17.276 Z"
       fill="url(#linearGradient12)"
       stroke="url(#linearGradient14)"
       stroke-width="0.40168"
       id="path27"
       style="fill:url(#linearGradient12);stroke:url(#linearGradient14)" />
    <path
       d="m 7.6971,13.883 -5.0977,3.25 5.3605,-3.0414 -5.3516,2.8437 5.5955,-2.615 -5.5699,2.4185 5.7933,-2.1712 -5.7511,1.9771 5.9526,-1.713 -5.8941,1.5226 6.0722,-1.2434 -5.9978,1.058 6.1514,-0.76546 -6.0616,0.58635 6.1897,-0.28245 -6.0851,0.11079 6.1869,0.20243 -6.0681,-0.36551 6.1428,0.68597 -6.0107,-0.83938 6.0578,1.1649 -5.9133,-1.3077 5.9326,1.6362 -5.7765,-1.7672 5.7678,2.0965 -5.6013,-2.2151 5.5647,2.5429 -5.3889,-2.6481 5.3246,2.9723 -5.1405,-3.0636 5.049,3.382 -4.858,-3.4587 4.7398,3.7692 -4.5431,-3.8307 4.3991,4.1313 -4.198,-4.1773 4.029,4.4659 -3.825,-4.496 3.6322,4.7707 -3.4265,-4.7849 3.2112,5.0438 -3.0052,-5.0419 2.7689,5.2834 -2.5639,-5.2653 2.3081,5.4878 -2.1055,-5.4537 1.8319,5.6557 -1.6331,-5.6058 1.3436,5.7859 -1.1499,-5.7206 0.84631,5.8777 -0.65901,-5.7974 0.3434,5.9303 -0.16373,-5.8355 -0.1618,5.9434 0.33264,-5.8348 -0.66592,5.917 0.8268,-5.7953 -1.1656,5.8513 1.3155,-5.7173 -1.6575,5.7466 1.7954,-5.6011 -2.1384,5.6036 2.2633,-5.4477 -2.6051,5.4234 2.7162,-5.2581 -3.0545,5.207 3.151,-5.0334 -3.4835,4.956 3.5649,-4.7753 -3.8893,4.6721 3.955,-4.4854 -4.2692,4.357 4.3188,-4.1656 -4.6208,4.0129 4.6538,-3.8181 -4.9415,3.6422 4.9579,-3.4452 -5.2294,3.2472 5.229,-3.0494 -5.4825,2.8306 5.4653,-2.6333 -5.6991,2.3951 5.6652,-2.1996 -5.8778,1.9437 5.8275,-1.7513 -6.0174,1.4794 5.9509,-1.2914 -6.1169,1.0052 6.0348,-0.82287 -6.1757,0.52439 6.0784,-0.34886 -6.1935,0.04004 6.0817,0.12747 -6.17,-0.44457 6.0444,0.60295 -6.1054,-0.92623 5.967,1.0744 -6.0002,-1.4017 5.8498,1.5387 -5.8551,-1.8679 5.6937,1.9928 -5.671,-2.3216 5.4997,2.4336 -5.4492,-2.7599 5.2691,2.8582 -5.1911,-3.1798 5.0034,3.2639 -4.8985,-3.5786 4.7045,3.6477 -4.5732,-3.9535 4.3742,4.0073 -4.2176,-4.3021 4.0148,4.3403 -3.8338,-4.6221 3.6287,4.6443 -3.4246,-4.9114 3.2185,4.9175 -2.9925,-5.1679 2.7868,5.1579 -2.5406,-5.3901 2.3366,5.364 -2.0717,-5.5764 1.8709,5.5344 -1.5891,-5.7256 1.3927,5.668 -1.0959,-5.8367 0.90521,5.7638 -0.59535,-5.9089 0.41171,5.8213 -0.090877,-5.9418 -0.084529,5.84 0.4142,-5.9352 -0.5802,5.8199 0.91653,-5.8891 -1.072,5.7611 1.4128,-5.8037 -1.5567,5.6639 1.8996,-5.6798 -2.031,5.529 2.3738,-5.5181 -2.4918,5.3574 2.8321,-5.3196 -2.936,5.15 3.2717,-5.0858 -3.3607,4.9085 3.6894,-4.8181 -3.763,4.6342 4.0827,-4.5183 -4.1403,4.3291 4.4487,-4.1885 -4.49,3.9952 4.7851,-3.8308 -4.8099,3.6347 z"
       fill="#1a1a1a"
       stroke="url(#linearGradient20)"
       stroke-width="0.098566"
       id="path28"
       style="stroke:url(#linearGradient20)" />
  </g>
</svg>
