<?xml version="1.0" encoding="UTF-8" standalone="no"?>
<!-- Uploaded to: SVG Repo, www.svgrepo.com, Generator: SVG Repo Mixer Tools -->

<svg
   width="800px"
   height="800px"
   viewBox="0 0 32 32"
   enable-background="new 0 0 32 32"
   version="1.1"
   xml:space="preserve"
   id="svg7"
   sodipodi:docname="box-delivery-package-7-svgrepo-com.svg"
   inkscape:version="1.4.3 (0d15f75, 2025-12-25)"
   xmlns:inkscape="http://www.inkscape.org/namespaces/inkscape"
   xmlns:sodipodi="http://sodipodi.sourceforge.net/DTD/sodipodi-0.dtd"
   xmlns:xlink="http://www.w3.org/1999/xlink"
   xmlns="http://www.w3.org/2000/svg"
   xmlns:svg="http://www.w3.org/2000/svg"><defs
   id="defs7"><linearGradient
   id="linearGradient13"
   inkscape:collect="always"><stop
     style="stop-color:#896c00;stop-opacity:1;"
     offset="0"
     id="stop13" /><stop
     style="stop-color:#ffcc00;stop-opacity:1;"
     offset="1"
     id="stop14" /></linearGradient><linearGradient
   id="linearGradient11"
   inkscape:collect="always"><stop
     style="stop-color:#806600;stop-opacity:1;"
     offset="0"
     id="stop11" /><stop
     style="stop-color:#9f7e00;stop-opacity:1;"
     offset="1"
     id="stop12" /></linearGradient><linearGradient
   id="linearGradient9"
   inkscape:collect="always"><stop
     style="stop-color:#735b00;stop-opacity:1;"
     offset="0"
     id="stop9" /><stop
     style="stop-color:#ffd327;stop-opacity:1;"
     offset="1"
     id="stop10" /></linearGradient><linearGradient
   id="linearGradient7"
   inkscape:collect="always"><stop
     style="stop-color:#00c800;stop-opacity:1;"
     offset="0"
     id="stop7" /><stop
     style="stop-color:#007600;stop-opacity:1;"
     offset="1"
     id="stop8" /></linearGradient><linearGradient
   inkscape:collect="always"
   xlink:href="#linearGradient7"
   id="linearGradient8"
   x1="14.531278"
   y1="4.0231271"
   x2="17.560444"
   y2="9.4385118"
   gradientUnits="userSpaceOnUse" /><linearGradient
   inkscape:collect="always"
   xlink:href="#linearGradient9"
   id="linearGradient10"
   x1="4.9912"
   y1="21"
   x2="26.9912"
   y2="21"
   gradientUnits="userSpaceOnUse" /><linearGradient
   inkscape:collect="always"
   xlink:href="#linearGradient11"
   id="linearGradient12"
   x1="4.9945536"
   y1="20.808054"
   x2="15.98785"
   y2="21.191948"
   gradientUnits="userSpaceOnUse" />





<linearGradient
   inkscape:collect="always"
   xlink:href="#linearGradient13"
   id="linearGradient14"
   x1="17.911058"
   y1="9.0998955"
   x2="29.127493"
   y2="19.199217"
   gradientUnits="userSpaceOnUse" /></defs><sodipodi:namedview
   id="namedview7"
   pagecolor="#ffffff"
   bordercolor="#000000"
   borderopacity="0.25"
   inkscape:showpageshadow="2"
   inkscape:pageopacity="0.0"
   inkscape:pagecheckerboard="0"
   inkscape:deskcolor="#d1d1d1"
   inkscape:zoom="0.73125"
   inkscape:cx="400"
   inkscape:cy="358.97436"
   inkscape:window-width="1440"
   inkscape:window-height="829"
   inkscape:window-x="-8"
   inkscape:window-y="-8"
   inkscape:window-maximized="1"
   inkscape:current-layer="g5" />

































<g
   id="Packaging_Delivery15">

<path
   d="m 25.9912,11 h -10 -10 c -0.55,0 -1,0.45 -1,1 v 16 c 0,0.48 0.34,0.89 0.8,0.98 l 9.99,2 h 0.01 c 0.07,0.01 0.13,0.02 0.2,0.02 0.07,0 0.13,-0.01 0.2,-0.02 h 0.01 l 9.99,-2 c 0.46,-0.09 0.8,-0.5 0.8,-0.98 V 12 c 0,-0.55 -0.45,-1 -1,-1 z"
   fill="#48B1DD"
   id="path1"
   style="fill:url(#linearGradient10)"
   sodipodi:insensitive="true" />

<path
   d="m 10.3662,5.7808 5,4 c 0.0452,0.0362 0.0983,0.0541 0.1477,0.0814 0.0401,0.0223 0.0756,0.0488 0.1188,0.0655 0.1135,0.0438 0.2314,0.0701 0.3514,0.071 0.0025,0 0.0046,0.0014 0.0071,0.0014 0.0025,0 0.0046,-0.0014 0.0071,-0.0014 0.1199,-9e-4 0.238,-0.0272 0.3514,-0.071 0.0432,-0.0167 0.0786,-0.0431 0.1185,-0.0653 0.0495,-0.0272 0.1027,-0.0453 0.1479,-0.0815 l 5,-4 C 22.0468,5.4362 22.1171,4.8068 21.7724,4.3756 21.4267,3.9449 20.7988,3.8741 20.3661,4.2193 l -3.375,2.7 V 2 c 0,-0.5522 -0.4473,-1 -1,-1 -0.5527,0 -1,0.4478 -1,1 v 4.9193 l -3.375,-2.7 C 11.4316,4.0718 11.2109,4 10.9922,4 10.6983,4 10.4082,4.1284 10.21,4.3755 9.8652,4.8066 9.9355,5.436 10.3662,5.7808 Z"
   fill="#48B1DD"
   id="path2"
   style="fill:url(#linearGradient8)"
   sodipodi:insensitive="true" />

<path
   d="m 15.9912,11 v 20 c -0.07,0 -0.13,-0.01 -0.2,-0.02 h -0.01 l -9.99,-2 c -0.46,-0.09 -0.8,-0.5 -0.8,-0.98 V 12 c 0,-0.55 0.45,-1 1,-1 z"
   fill="#4391B2"
   id="path3"
   style="fill:url(#linearGradient12)"
   sodipodi:insensitive="true" />

<g
   id="g5"
   style="fill:#554400">



<path
   d="m 16.255217,12.11554 -0.264017,1.052665 -3.17,3.678205 c -0.18,0.216821 -0.5,0.348462 -0.83,0.348462 h -10 c -0.37,0 -0.71,-0.154872 -0.88,-0.41041 -0.18,-0.247795 -0.16,-0.557539 0.05,-0.789847 l 4,-4.646153 C 5.3412,11.131641 5.6612,11 5.9912,11 h 10 c -0.37,0 0.378106,0.622201 0.378106,0.622201 0,0 -0.378804,0.176315 -0.168802,0.408623 z"
   fill="#96CEE5"
   id="path5"
   style="fill:#554400;stroke-width:0.879977"
   sodipodi:nodetypes="cccsscccscccc" /><path
   id="path7"
   style="fill:url(#linearGradient14);stroke-width:0.880059"
   d="m 16.059154,11.049545 c -0.04793,0 -0.08648,0.09078 -0.08648,0.203489 v 1.880836 c 0,0.112709 0.03855,0.203488 0.08648,0.203488 h 0.08602 l 3.070703,3.563688 c 0.18,0.216861 0.5,0.348527 0.83,0.348527 h 10 0.02 c 0.55,0 1,-0.348527 1,-0.774504 0,-0.209116 -0.11,-0.402743 -0.28,-0.542153 l -3.91,-4.530851 c -0.18,-0.216861 -0.5,-0.348526 -0.83,-0.348526 h -9.267344 c -0.0055,-0.0026 -0.01131,-0.004 -0.01719,-0.004 z" />

</g>



</g>





























</svg>
