<?xml version="1.0" encoding="UTF-8" standalone="no"?>
<!-- Uploaded to: SVG Repo, www.svgrepo.com, Generator: SVG Repo Mixer Tools -->

<svg
   height="800px"
   width="800px"
   version="1.1"
   id="Layer_1"
   viewBox="0 0 512.001 512.001"
   xml:space="preserve"
   sodipodi:docname="gear-svgrepo-com (1).svg"
   inkscape:version="1.4.3 (0d15f75, 2025-12-25)"
   xmlns:inkscape="http://www.inkscape.org/namespaces/inkscape"
   xmlns:sodipodi="http://sodipodi.sourceforge.net/DTD/sodipodi-0.dtd"
   xmlns:xlink="http://www.w3.org/1999/xlink"
   xmlns="http://www.w3.org/2000/svg"
   xmlns:svg="http://www.w3.org/2000/svg"><defs
   id="defs7"><linearGradient
     id="linearGradient10"
     inkscape:collect="always"><stop
       style="stop-color:#86868a;stop-opacity:1;"
       offset="0"
       id="stop10" /><stop
       style="stop-color:#bbbbbc;stop-opacity:1;"
       offset="1"
       id="stop11" /></linearGradient><linearGradient
     id="linearGradient8"
     inkscape:collect="always"><stop
       style="stop-color:#afafaf;stop-opacity:1;"
       offset="0"
       id="stop8" /><stop
       style="stop-color:#cacad3;stop-opacity:1;"
       offset="1"
       id="stop9" /></linearGradient><filter
     inkscape:collect="always"
     style="color-interpolation-filters:sRGB"
     id="filter7"
     x="-0.040184749"
     y="-0.030967607"
     width="1.0803695"
     height="1.0619352"><feGaussianBlur
       inkscape:collect="always"
       stdDeviation="6.6064228"
       id="feGaussianBlur7" /></filter><filter
     inkscape:collect="always"
     style="color-interpolation-filters:sRGB"
     id="filter8"
     x="-0.16845751"
     y="-0.15941938"
     width="1.336915"
     height="1.3188388"><feGaussianBlur
       inkscape:collect="always"
       stdDeviation="18.434981"
       id="feGaussianBlur8" /></filter><linearGradient
     inkscape:collect="always"
     xlink:href="#linearGradient8"
     id="linearGradient9"
     x1="3.0562393"
     y1="256.43859"
     x2="510.69615"
     y2="256.43859"
     gradientUnits="userSpaceOnUse" /><linearGradient
     inkscape:collect="always"
     xlink:href="#linearGradient10"
     id="linearGradient11"
     x1="94.759028"
     y1="253.80763"
     x2="415.49593"
     y2="253.80763"
     gradientUnits="userSpaceOnUse" /></defs><sodipodi:namedview
   id="namedview7"
   pagecolor="#ffffff"
   bordercolor="#000000"
   borderopacity="0.25"
   inkscape:showpageshadow="2"
   inkscape:pageopacity="0.0"
   inkscape:pagecheckerboard="0"
   inkscape:deskcolor="#d1d1d1"
   inkscape:zoom="0.73125"
   inkscape:cx="399.31624"
   inkscape:cy="350.76923"
   inkscape:window-width="1440"
   inkscape:window-height="829"
   inkscape:window-x="-8"
   inkscape:window-y="-8"
   inkscape:window-maximized="1"
   inkscape:current-layer="Layer_1" />
<path
   id="path1"
   style="fill:url(#linearGradient9);stroke-width:1.06518"
   d="m 235.04644,10.79596 c -6.91484,20.124262 -23.86028,36.719808 -44.53589,43.354161 -18.63805,6.223866 -39.98255,4.562623 -57.17907,-4.910738 -5.12679,-2.792394 -9.85896,-6.202505 -14.6423,-9.509103 -10.07738,7.147245 -20.154755,14.29449 -30.23213,21.441736 2.873318,8.935541 5.88944,18.025591 6.008513,27.483244 0.621234,18.66176 -6.860875,37.46091 -20.335351,50.73009 -12.328269,12.33086 -29.48429,20.05146 -47.158485,20.75329 -4.116451,0.23695 -8.242555,0.19939 -12.364195,0.2623 -3.850432,11.57016 -7.7008627,23.14033 -11.5512927,34.71049 7.6371677,5.53353 15.4852057,11.09719 21.2526657,18.59394 11.776042,14.67967 17.114837,34.12951 14.29289,52.58421 -2.466996,17.03895 -11.596836,33.15798 -25.399407,43.92473 -3.275243,2.64917 -6.7392678,5.06268 -10.1419378,7.55142 3.851133,11.57085 7.7022648,23.1417 11.5533978,34.71256 9.518992,0.0901 19.228648,0.0823 28.412777,2.85088 18.557326,5.18226 34.722721,18.08038 43.488238,34.8843 8.184705,15.366 10.28238,33.8013 5.349503,50.47308 -1.009953,3.70647 -2.251171,7.34669 -3.409421,11.01038 10.081583,7.15341 20.163175,14.30682 30.244765,21.46024 7.62418,-5.30185 15.33574,-10.7855 24.25269,-13.8405 18.06566,-6.56103 38.88709,-5.5611 56.14314,2.86187 15.91276,7.62189 28.83698,21.19997 35.00501,37.46697 1.51076,3.75272 2.74858,7.60058 4.08955,11.41241 12.4574,0 24.91479,0 37.37219,0 3.02456,-8.77454 6.00871,-17.75255 11.49712,-25.41178 10.80406,-15.69844 28.43041,-26.78423 47.58988,-29.70897 17.22375,-2.76243 35.52058,0.80723 50.10292,10.24483 3.52737,2.1921 6.88337,4.63046 10.30678,6.97105 10.07878,-7.15067 20.15757,-14.30134 30.23634,-21.45201 -2.84312,-8.87397 -5.85778,-17.88879 -6.00182,-27.2773 -0.67985,-18.83076 6.8859,-37.82687 20.55365,-51.15436 12.35705,-12.25217 29.50376,-19.88943 47.14203,-20.5398 4.04718,-0.23058 8.10367,-0.18223 12.15566,-0.25129 3.85044,-11.57086 7.70086,-23.14172 11.5513,-34.71256 -7.66951,-5.56367 -15.56094,-11.15143 -21.33584,-18.69963 -11.63945,-14.57502 -16.95597,-33.82164 -14.25591,-52.12774 2.38865,-17.16223 11.54337,-33.42069 25.42929,-44.26261 3.27611,-2.65389 6.75436,-5.0542 10.15403,-7.55198 -3.84973,-11.57565 -7.69945,-23.15129 -11.54919,-34.72694 -9.48519,-0.09 -19.15777,-0.0791 -28.31399,-2.8215 -18.65745,-5.18256 -34.91293,-18.16127 -43.66997,-35.07719 -8.04776,-15.20237 -10.15464,-33.386744 -5.38659,-49.888832 1.04085,-3.853052 2.32979,-7.636316 3.52735,-11.437292 -10.08018,-7.151357 -20.16036,-14.302714 -30.24055,-21.45407 -7.65227,5.317642 -15.39066,10.823392 -24.34396,13.875906 -18.20317,6.582385 -39.1903,5.49314 -56.50437,-3.117929 -15.56095,-7.585134 -28.21651,-20.877106 -34.37416,-36.801587 -1.59228,-3.8923597 -2.88266,-7.8924589 -4.27421,-11.8550854 -12.45599,0 -24.91199,0 -37.36798,0 -1.0479,2.9922365 -2.09578,5.9844731 -3.14366,8.9767094 z m 22.33615,98.5732 c 34.39974,0.0679 68.70823,12.01089 95.17302,33.51322 25.41649,20.37492 43.80645,49.0531 51.08897,80.39161 7.1811,30.2873 4.29059,62.8261 -8.49007,91.3299 -12.04734,27.14291 -32.66095,50.57344 -58.31619,66.31215 -20.94401,12.911 -45.19488,20.70623 -69.92633,22.25232 -29.07658,1.91365 -58.71586,-4.5562 -84.06589,-18.62632 -24.71492,-13.62953 -45.35391,-34.19939 -58.76289,-58.6267 -11.47276,-20.78922 -17.62385,-44.32884 -17.82401,-67.9388 -0.23877,-22.15698 4.68917,-44.37433 14.50639,-64.36496 12.80146,-26.27151 33.72961,-48.68976 59.34009,-63.56469 20.06868,-11.71179 42.97476,-18.76093 66.30672,-20.3137 3.65087,-0.24847 7.31029,-0.3629 10.97019,-0.36403 z" />
<g
   id="g6"
   style="mix-blend-mode:normal;filter:url(#filter7)"
   transform="matrix(1.0205318,0,0,0.96458643,-11.62964,7.3154414)">
	<path
   style="fill:#aeadb3"
   d="M 324.286,51.155 C 308.777,46.646 295.373,35.029 289.57,18.047 L 283.404,0 c -14.954,0 -21.69,0 -29.107,0 l 6.166,18.047 c 9.296,27.208 38.091,40.672 63.823,33.108 z"
   id="path2" />
	<path
   style="fill:#aeadb3"
   d="m 114.187,43.761 c 13.679,9.627 29.965,11.597 44.421,7.395 -5.299,-1.558 -10.472,-3.986 -15.314,-7.395 L 127.698,32.785 c -6.197,4.503 -10.646,7.735 -14.322,10.405 z"
   id="path3" />
	<path
   style="fill:#aeadb3"
   d="m 492.681,214.395 15.258,-11.442 c -8.532,-26.258 -8.404,-25.865 -16.936,-52.123 l -19.069,-0.288 c -34.668,-0.523 -59.126,-34.185 -48.91,-67.318 l 5.62,-18.225 C 406.307,48.77 406.642,49.014 384.305,32.785 L 369.519,43.19 c 9.571,6.954 13.878,10.083 30.017,21.808 l -5.62,18.225 c -10.216,33.134 14.241,66.795 48.91,67.318 l 19.069,0.288 c 8.532,26.258 8.404,25.865 16.936,52.123 l -15.258,11.442 c -27.74,20.801 -27.74,62.41 0,83.21 l 15.258,11.442 c -8.532,26.258 -8.404,25.865 -16.936,52.123 l -19.069,0.288 c -34.668,0.523 -59.126,34.185 -48.91,67.318 l 5.62,18.225 c -16.139,11.726 -20.446,14.855 -30.017,21.808 l 14.786,10.405 c 22.337,-16.229 22.002,-15.985 44.339,-32.214 l -5.62,-18.225 c -10.216,-33.134 14.241,-66.795 48.91,-67.318 l 19.069,-0.288 c 8.532,-26.258 8.404,-25.865 16.936,-52.123 l -15.258,-11.442 c -27.74,-20.798 -27.74,-62.407 0,-83.208 z"
   id="path4" />
	<path
   style="fill:#aeadb3"
   d="m 114.187,468.24 -0.811,0.57 c 3.675,2.671 8.124,5.903 14.322,10.405 l 15.596,-10.976 c 4.842,-3.407 10.015,-5.836 15.314,-7.395 -14.457,-4.202 -30.742,-2.231 -44.421,7.396 z"
   id="path5" />
	<path
   style="fill:#aeadb3"
   d="M 260.463,493.953 254.296,512 c 7.417,0 14.153,0 29.107,0 l 6.166,-18.047 c 5.802,-16.981 19.207,-28.598 34.716,-33.108 -25.731,-7.564 -54.526,5.901 -63.822,33.108 z"
   id="path6" />
</g>
<path
   id="path7"
   style="fill:url(#linearGradient11);stroke-width:0.989888"
   sodipodi:type="inkscape:offset"
   inkscape:radius="9.6425867"
   inkscape:original="M 251.08008 104.43945 C 238.94564 104.78117 226.73772 106.52853 214.98047 109.75977 C 211.09225 110.82659 207.16932 112.07279 203.32031 113.46289 C 192.11131 117.51934 181.29347 122.9614 171.33398 129.5918 C 168.79458 131.2821 166.32736 133.03787 163.97852 134.80273 C 152.82658 143.2195 142.79543 153.23797 134.35156 164.39648 C 129.67932 170.58104 125.3932 177.28008 121.7207 184.20703 C 117.08311 192.92031 113.29621 202.15545 110.48242 211.65234 C 108.7279 217.5498 107.34912 223.61962 106.35938 229.66016 C 104.76292 239.42991 104.15742 249.20132 104.48828 259.10156 C 104.6725 264.49836 105.19972 270.10397 105.9668 275.41992 C 106.36411 278.03913 106.79748 280.61664 107.31445 283.16016 C 112.35087 308.60549 124.3829 332.60398 141.60352 352.10352 C 149.42104 360.9949 158.41593 369.03808 168.18359 375.87695 C 175.14792 380.76721 182.66577 385.12699 190.35547 388.76562 C 200.5951 393.6032 211.38664 397.29674 222.4668 399.70898 C 235.79204 402.62916 249.66915 403.75236 263.39648 403 C 270.62797 402.61252 278.07332 401.67122 285.15625 400.26172 C 304.53438 396.39207 323.17136 388.62966 339.55078 377.60352 C 347.09916 372.53131 354.24029 366.74898 360.70312 360.44922 C 366.27503 355.01523 371.39899 349.20447 376.09961 342.95508 C 384.35636 332.0113 391.15545 319.69985 396.08594 306.82617 C 400.05706 296.49706 402.81363 285.71684 404.38281 274.77539 C 404.80665 271.75046 405.16681 268.5072 405.40234 265.45117 C 405.88641 259.33599 405.97241 253.07902 405.70117 246.97656 C 405.22783 236.83979 403.73067 226.75071 401.22266 216.91211 C 397.40163 201.91741 391.09095 187.39399 382.73047 174.26562 C 374.23476 160.85797 363.55034 148.82913 351.26172 138.71875 C 348.26931 136.26775 345.01361 133.78026 341.74023 131.50977 C 338.47251 129.2298 335.16827 127.11809 331.75586 125.12305 C 315.4723 115.55629 297.33768 109.10514 278.63672 106.20508 C 269.61513 104.81393 260.2729 104.19538 251.08008 104.43945 z M 255.59375 116.08984 C 287.31834 116.15344 318.95852 127.33884 343.36523 147.47461 C 366.80516 166.55461 383.76428 193.40906 390.48047 222.75586 C 397.10312 251.11827 394.43714 281.58899 382.65039 308.28125 C 371.53993 333.6991 352.52925 355.64047 328.86914 370.37891 C 309.55389 382.46935 287.18903 389.76897 264.38086 391.2168 C 237.56548 393.00882 210.23216 386.95129 186.85352 373.77539 C 164.06059 361.01208 145.02636 341.74984 132.66016 318.875 C 122.0796 299.40702 116.40726 277.36335 116.22266 255.25391 C 116.00246 234.50511 120.54585 213.69865 129.59961 194.97852 C 141.40555 170.37668 160.70734 149.38269 184.32617 135.45312 C 202.83419 124.48568 223.95905 117.88572 245.47656 116.43164 C 248.84352 116.19895 252.21847 116.09089 255.59375 116.08984 z "
   d="m 250.80859,94.800781 c -12.87711,0.362635 -25.83747,2.214279 -38.38281,5.662109 -4.13871,1.13567 -8.29615,2.45642 -12.38086,3.93164 a 9.643551,9.643551 0 0 0 -0.006,0.002 c -11.93719,4.31998 -23.4342,10.10143 -34.04883,17.16797 -2.70516,1.80064 -5.31874,3.66142 -7.80468,5.5293 a 9.643551,9.643551 0 0 0 -0.0156,0.0117 c -11.8694,8.95826 -22.52237,19.59846 -31.50781,31.47265 a 9.643551,9.643551 0 0 0 -0.004,0.006 c -4.97818,6.58953 -9.52917,13.69978 -13.44922,21.0918 -2.7e-4,5.2e-4 2.8e-4,0.001 0,0.002 -0.002,0.004 -0.006,0.008 -0.008,0.0117 -4.93711,9.27827 -8.96327,19.09835 -11.96094,29.21289 -1.8e-4,6.1e-4 1.8e-4,0.001 0,0.002 -9.9e-4,0.003 -0.003,0.006 -0.004,0.01 -1.874774,6.30357 -3.339108,12.75799 -4.39258,19.1875 a 9.643551,9.643551 0 0 0 0,0.004 c -1.698908,10.39669 -2.343239,20.81393 -1.992188,31.31836 a 9.643551,9.643551 0 0 0 0,0.006 c 0.197853,5.79617 0.757535,11.721 1.572266,17.36718 a 9.643551,9.643551 0 0 0 0.0098,0.0684 c 0.411575,2.71326 0.868836,5.44322 1.427734,8.19532 0.0013,0.007 0.0026,0.0129 0.0039,0.0195 5.384256,27.15757 18.170136,52.63398 36.496096,73.39062 0.002,0.002 0.004,0.005 0.006,0.008 0.002,0.003 0.005,0.005 0.008,0.008 8.3321,9.4741 17.88394,18.01208 28.27734,25.28906 7.42649,5.21389 15.3967,9.83573 23.57813,13.70703 a 9.643551,9.643551 0 0 0 0.006,0.002 c 10.89153,5.14557 22.37203,9.07587 34.17969,11.64649 14.17969,3.10614 28.89902,4.29701 43.49609,3.49805 7.71155,-0.41321 15.58138,-1.4086 23.12695,-2.91016 a 9.643551,9.643551 0 0 0 0.006,-0.002 c 20.63993,-4.12162 40.43506,-12.36389 57.88477,-24.10938 l 0.002,-0.002 c 8.02662,-5.39376 15.6093,-11.53322 22.50195,-18.25195 a 9.643551,9.643551 0 0 0 0.002,-0.002 c 5.91336,-5.76699 11.36529,-11.94878 16.36132,-18.58984 v -0.002 c 8.81512,-11.68412 16.03457,-24.75621 21.28907,-38.47266 l 0.004,-0.0117 c 4.2388,-11.02803 7.17037,-22.50365 8.83789,-34.13086 a 9.643551,9.643551 0 0 0 0.004,-0.0312 c 0.4511,-3.21951 0.83075,-6.63609 1.08398,-9.92187 0.51632,-6.53452 0.60629,-13.16476 0.31836,-19.64258 a 9.643551,9.643551 0 0 0 0,-0.0215 c -0.50359,-10.78469 -2.09698,-21.51916 -4.76757,-31.99609 v -0.002 C 406.48777,198.5245 399.77888,183.09162 390.875,169.10547 l -0.002,-0.004 c -9.05608,-14.29112 -20.41677,-27.07683 -33.48438,-37.82812 a 9.643551,9.643551 0 0 0 -0.0176,-0.0137 c -3.16398,-2.59154 -6.59782,-5.21879 -10.11328,-7.65821 l -0.006,-0.004 c -3.47053,-2.42125 -6.98899,-4.67068 -10.61133,-6.78907 -0.006,-0.003 -0.0118,-0.006 -0.0176,-0.01 -17.34262,-10.18599 -36.60643,-17.036832 -56.50782,-20.123049 a 9.643551,9.643551 0 0 0 -0.01,0 c -9.58706,-1.478346 -19.48308,-2.135142 -29.28125,-1.875 a 9.643551,9.643551 0 0 0 -0.0156,0 z m 4.76563,30.931639 h 0.01 c 29.46772,0.0614 59.04372,10.5338 81.64454,29.17969 a 9.643551,9.643551 0 0 0 0.0488,0.041 c 21.77049,17.72108 37.58867,42.80037 43.80274,69.95313 a 9.643551,9.643551 0 0 0 0.01,0.043 c 6.14464,26.31523 3.64863,54.73436 -7.25976,79.4375 a 9.643551,9.643551 0 0 0 -0.0156,0.0332 c -10.30934,23.58511 -28.06078,44.08217 -50.04297,57.77539 a 9.643551,9.643551 0 0 0 -0.0176,0.01 c -17.9573,11.24042 -38.82348,18.04541 -59.98438,19.38867 a 9.643551,9.643551 0 0 0 -0.0312,0.002 c -24.93792,1.66656 -50.47106,-4.00251 -72.15039,-16.2207 a 9.643551,9.643551 0 0 0 -0.0234,-0.0137 C 170.38332,353.50057 152.6172,335.51467 141.14258,314.28906 a 9.643551,9.643551 0 0 0 -0.01,-0.0195 c -9.81272,-18.05517 -15.0963,-38.58183 -15.26758,-59.0957 a 9.643551,9.643551 0 0 0 0,-0.0215 c -0.20453,-19.273 4.02909,-38.63729 12.41407,-55.97461 a 9.643551,9.643551 0 0 0 0.0137,-0.0273 c 10.95807,-22.83501 28.98443,-42.44692 50.93164,-55.39062 a 9.643551,9.643551 0 0 0 0.0176,-0.0117 c 17.19921,-10.19188 36.902,-16.34495 56.88476,-17.69532 a 9.643551,9.643551 0 0 0 0.0137,-0.002 c 3.12191,-0.21575 6.27006,-0.31688 9.4336,-0.31836 z" />
<path
   id="path8"
   style="opacity:0.209059;mix-blend-mode:normal;fill:#000000;fill-opacity:1;stroke-width:0.898044;filter:url(#filter8)"
   d="m 250.44531,115.54492 c -7.80182,0.27106 -15.49149,1.2523 -23.1463,2.9618 -17.28488,3.83444 -33.76838,11.5224 -47.99957,22.10925 -4.18435,3.10022 -8.18919,6.4683 -11.93067,9.98771 -8.39629,7.90474 -15.77655,16.88143 -21.94299,26.62484 -2.09633,3.32825 -4.15024,6.88169 -5.98492,10.43458 -1.58013,3.03697 -3.01227,6.07774 -4.38422,9.24706 -1.06888,2.52111 -2.15822,5.22134 -3.10757,7.86127 -2.63376,7.29726 -4.7163,14.96753 -6.134,22.66005 -1.01648,5.46539 -1.71735,11.04167 -2.10218,16.54508 -0.16873,2.68533 -0.30764,5.39504 -0.32616,8.01159 -0.0894,6.17811 0.16949,12.25509 0.85092,18.4017 0.87765,7.98902 2.42627,15.9533 4.62882,23.73165 1.10302,3.88856 2.30545,7.54622 3.71719,11.3267 5.79388,15.46169 14.35002,29.88145 25.13704,42.38188 11.79534,13.66383 26.45877,25.07936 42.81765,32.87696 5.3075,2.54248 10.79238,4.71065 16.3972,6.5039 1.33333,0.40441 2.8847,0.89216 4.31728,1.28003 6.12067,1.70863 12.39906,2.92889 18.65999,3.66311 3.73612,0.43958 7.3734,0.69707 11.13015,0.81272 2.73061,0.072 5.65303,0.0694 8.39463,-0.0346 15.31289,-0.55679 30.59094,-3.99937 44.69729,-10.08651 10.98026,-4.71289 21.39641,-11.04065 30.69129,-18.65687 6.05141,-4.92774 11.65826,-10.38941 16.7959,-16.32169 5.17203,-5.96457 9.86663,-12.43369 13.91821,-19.16635 5.55122,-9.22147 10.03258,-19.08362 13.37573,-29.31406 1.8226,-5.60419 3.33651,-11.47118 4.45498,-17.31844 0.61235,-3.17936 1.148,-6.56297 1.53771,-9.78301 0.5884,-4.79733 0.9391,-9.58775 1.06114,-14.4497 0.0571,-2.53688 0.0581,-5.23544 -0.0153,-7.78236 -0.23129,-8.56801 -1.22256,-17.11384 -2.9526,-25.50829 -2.0257,-9.77855 -5.09213,-19.54182 -9.16571,-28.74353 -2.10523,-4.77698 -4.47322,-9.44631 -7.07137,-13.91564 -3.48758,-6.04398 -7.50763,-11.89453 -11.82542,-17.29395 -4.60855,-5.73807 -9.67741,-11.10629 -15.14648,-16.03125 -7.28411,-6.55652 -15.42548,-12.41966 -24.05384,-17.20716 -5.13288,-2.84507 -10.51421,-5.38707 -16.06439,-7.52121 -12.93805,-4.98562 -26.7996,-7.8212 -40.74204,-8.27338 -1.95143,-0.0675 -4.08062,-0.0654 -5.92293,-0.0744 -0.85482,0.0202 -1.70964,0.0404 -2.56446,0.0605 z m 4.60547,9.20117 c 28.18447,0.0867 56.20545,10.52583 77.57211,28.90786 22.29148,18.8526 37.73259,45.52325 43.29473,74.1591 5.5488,27.84674 2.15829,57.48504 -10.0073,83.1802 -11.51043,24.57326 -30.85034,45.53316 -54.78372,58.42029 -21.71327,11.76246 -47.15616,16.60115 -71.65482,13.33677 -22.40141,-2.86816 -43.91001,-12.25681 -61.27733,-26.68854 -20.34636,-16.7216 -35.27102,-39.86308 -42.31445,-65.22607 -7.93506,-28.16732 -6.45557,-58.94439 4.4411,-86.12821 9.61299,-24.13883 26.53811,-45.38651 48.2049,-59.78416 15.78862,-10.52947 34.08039,-17.31659 52.95434,-19.41036 4.50397,-0.51111 9.03748,-0.76601 13.57044,-0.76688 z"
   transform="matrix(0.9266245,0,0,0.92130166,2.4965943,12.132171)" /></svg>
