<?xml version="1.0" encoding="UTF-8" standalone="no"?>
<!-- Uploaded to: SVG Repo, www.svgrepo.com, Generator: SVG Repo Mixer Tools -->

<svg
   height="800px"
   width="800px"
   version="1.1"
   id="Layer_1"
   viewBox="0 0 512 512"
   xml:space="preserve"
   sodipodi:docname="paint-palette-art-svgrepo-com.svg"
   inkscape:version="1.4.3 (0d15f75, 2025-12-25)"
   xmlns:inkscape="http://www.inkscape.org/namespaces/inkscape"
   xmlns:sodipodi="http://sodipodi.sourceforge.net/DTD/sodipodi-0.dtd"
   xmlns:xlink="http://www.w3.org/1999/xlink"
   xmlns="http://www.w3.org/2000/svg"
   xmlns:svg="http://www.w3.org/2000/svg"><defs
   id="defs7"><inkscape:path-effect
     effect="skeletal"
     id="path-effect14"
     is_visible="true"
     lpeversion="1"
     pattern="m 348.79683,181.49508 c 10.87791,-1.83011 33.17507,-3.36459 41.52614,-26.57075 l 2.00491,-32.72598 -44.63864,27.23071 -31.45173,20.39696 z"
     copytype="single_stretched"
     prop_scale="1"
     scale_y_rel="false"
     spacing="0"
     normal_offset="0"
     tang_offset="0"
     prop_units="false"
     vertical_pattern="false"
     hide_knot="false"
     fuse_tolerance="0" /><linearGradient
     id="linearGradient13"
     inkscape:collect="always"><stop
       style="stop-color:#ffcc00;stop-opacity:1;"
       offset="0"
       id="stop13" /><stop
       style="stop-color:#6b5400;stop-opacity:1;"
       offset="1"
       id="stop14" /></linearGradient><linearGradient
     id="linearGradient11"
     inkscape:collect="always"><stop
       style="stop-color:#ffffff;stop-opacity:1;"
       offset="0"
       id="stop11" /><stop
       style="stop-color:#898989;stop-opacity:1;"
       offset="1"
       id="stop12" /></linearGradient><filter
     inkscape:collect="always"
     style="color-interpolation-filters:sRGB"
     id="filter7"
     x="-0.053670952"
     y="-0.10168911"
     width="1.1073419"
     height="1.2033782"><feGaussianBlur
       inkscape:collect="always"
       stdDeviation="10.846838"
       id="feGaussianBlur7" /></filter><filter
     inkscape:collect="always"
     style="color-interpolation-filters:sRGB"
     id="filter8"
     x="-0.099145301"
     y="-0.1982906"
     width="1.1982906"
     height="1.3965812"><feGaussianBlur
       inkscape:collect="always"
       stdDeviation="4.1382423"
       id="feGaussianBlur8" /></filter><filter
     inkscape:collect="always"
     style="color-interpolation-filters:sRGB"
     id="filter9"
     x="-0.4313142"
     y="-0.73095094"
     width="1.8626284"
     height="2.4619019"><feGaussianBlur
       inkscape:collect="always"
       stdDeviation="16.672568"
       id="feGaussianBlur9" /></filter><filter
     inkscape:collect="always"
     style="color-interpolation-filters:sRGB"
     id="filter9-0"
     x="-0.4313142"
     y="-0.73095094"
     width="1.8626284"
     height="2.4619019"><feGaussianBlur
       inkscape:collect="always"
       stdDeviation="16.672568"
       id="feGaussianBlur9-9" /></filter><filter
     inkscape:collect="always"
     style="color-interpolation-filters:sRGB"
     id="filter9-8"
     x="-0.4313142"
     y="-0.73095094"
     width="1.8626284"
     height="2.4619019"><feGaussianBlur
       inkscape:collect="always"
       stdDeviation="16.672568"
       id="feGaussianBlur9-2" /></filter><filter
     inkscape:collect="always"
     style="color-interpolation-filters:sRGB"
     id="filter9-5"
     x="-0.4313142"
     y="-0.73095094"
     width="1.8626284"
     height="2.4619019"><feGaussianBlur
       inkscape:collect="always"
       stdDeviation="16.672568"
       id="feGaussianBlur9-1" /></filter><filter
     inkscape:collect="always"
     style="color-interpolation-filters:sRGB"
     id="filter9-1"
     x="-0.4313142"
     y="-0.73095094"
     width="1.8626284"
     height="2.4619019"><feGaussianBlur
       inkscape:collect="always"
       stdDeviation="16.672568"
       id="feGaussianBlur9-5" /></filter><filter
     inkscape:collect="always"
     style="color-interpolation-filters:sRGB"
     id="filter10"
     x="-0.17523792"
     y="-0.29768785"
     width="1.3504758"
     height="1.5953757"><feGaussianBlur
       inkscape:collect="always"
       stdDeviation="34.889137"
       id="feGaussianBlur10" /></filter><linearGradient
     inkscape:collect="always"
     xlink:href="#linearGradient11"
     id="linearGradient12"
     x1="6.0840564"
     y1="13.712717"
     x2="1.4745767"
     y2="18.655779"
     gradientUnits="userSpaceOnUse"
     gradientTransform="matrix(0.65219031,-0.10688772,0.0873413,0.67620051,5.1373866,33.104666)" /><linearGradient
     inkscape:collect="always"
     xlink:href="#linearGradient13"
     id="linearGradient14"
     x1="5.4543488"
     y1="7.5526829"
     x2="22.841515"
     y2="-5.228035"
     gradientUnits="userSpaceOnUse"
     gradientTransform="matrix(0.65219031,-0.10688772,0.0873413,0.67620051,5.1373866,33.104666)" /><filter
     inkscape:collect="always"
     style="color-interpolation-filters:sRGB"
     id="filter14"
     x="-0.97460608"
     y="-0.98520906"
     width="2.9492122"
     height="2.9704181"><feGaussianBlur
       inkscape:collect="always"
       stdDeviation="29.893779"
       id="feGaussianBlur14" /></filter></defs><sodipodi:namedview
   id="namedview7"
   pagecolor="#ffffff"
   bordercolor="#000000"
   borderopacity="0.25"
   inkscape:showpageshadow="2"
   inkscape:pageopacity="0.0"
   inkscape:pagecheckerboard="0"
   inkscape:deskcolor="#d1d1d1"
   inkscape:zoom="0.57111856"
   inkscape:cx="336.18239"
   inkscape:cy="449.11866"
   inkscape:window-width="1440"
   inkscape:window-height="829"
   inkscape:window-x="-8"
   inkscape:window-y="-8"
   inkscape:window-maximized="1"
   inkscape:current-layer="Layer_1" />
<path
   style="fill:#ffc033;stroke-width:0.717501"
   d="m 417.55911,263.8389 c -7.2385,-12.96861 -20.37866,-20.34387 -36.19534,-20.34387 -20.31574,0 -33.74009,-15.55373 -33.99389,-32.42115 -0.0785,-7.2136 2.28205,-14.58959 7.5538,-20.99269 5.98013,-7.29444 14.71525,-11.42846 23.92121,-11.42846 17.38966,0 31.47501,-7.53765 38.79199,-20.58708 6.92532,-12.40134 6.84685,-27.96308 -0.23542,-40.52607 -32.33962,-57.303918 -92.29993,-92.886205 -156.58609,-92.886205 -86.55593,0 -161.151608,62.734872 -177.439831,149.217235 -2.359813,12.40133 -3.541133,24.80194 -3.461247,37.20327 v 0.48644 c 0.15765,42.95755 14.47842,84.69973 41.310868,118.17459 34.46472,43.03838 85.37531,67.75949 139.59091,67.75949 64.44382,0 124.48402,-35.74395 156.74375,-93.21026 7.00309,-12.48216 7.00309,-27.96308 -7.1e-4,-40.44524 z M 277.3383,100.51851 c 9.75808,-17.425945 31.31806,-23.505002 48.39242,-13.373484 16.91741,10.051416 22.74059,32.341044 12.98321,49.847094 -9.75809,17.34512 -31.39724,23.42417 -48.39242,13.29266 -16.91741,-10.05069 -22.73918,-32.25876 -12.98321,-49.76627 z"
   id="path1" />
<path
   style="fill:#f9a926;filter:url(#filter7)"
   d="M 71.919,418.95 C 120.67,478.052 192.684,512 269.373,512 c 91.157,0 176.085,-49.085 221.717,-128 9.907,-17.141 9.907,-38.4 0,-55.541 -10.239,-17.809 -28.826,-27.937 -51.199,-27.937 -28.737,0 -47.726,-21.359 -48.085,-44.522 H 13.483 v 0.668 c 0.224,58.991 20.48,116.313 58.436,162.282 z"
   id="path2"
   transform="matrix(0.70695412,0,0,0.72820513,70.381015,24.653375)" />





<g
   id="g14"><path
     style="fill:#88cc2a;stroke-width:0.717501"
     d="m 158.52193,247.54749 c -19.52536,0 -35.40921,-16.36131 -35.40921,-36.47361 0,-20.11229 15.88385,-36.47361 35.40921,-36.47361 19.52537,0 35.40921,16.36132 35.40921,36.47361 0,20.1123 -15.88384,36.47361 -35.40921,36.47361 z"
     id="path3" /><path
     style="fill:#736056;stroke-width:0.717501"
     d="m 191.96369,330.943 c -16.91246,-10.05069 -22.77099,-32.33012 -12.95564,-49.82671 9.68174,-17.27739 31.25444,-23.51665 48.36485,-13.34144 16.91176,10.04996 22.77099,32.32648 12.95564,49.82306 -9.73617,17.38299 -31.34493,23.4686 -48.36485,13.34509 z"
     id="path4" /><path
     style="fill:#e6563a;stroke-width:0.717501"
     d="m 179.00805,141.02783 c -9.79485,-17.45216 -3.995,-39.7447 12.95564,-49.826701 16.97609,-10.079087 38.59899,-4.087416 48.36485,13.349451 v 0 c 9.8104,17.48858 3.96389,39.76364 -12.95564,49.82671 -17.05668,10.13297 -38.64918,3.99712 -48.36485,-13.34946 z"
     id="path6" /><path
     style="fill:#7fb335;filter:url(#filter8)"
     d="m 124.677,306.087 c 27.619,0 50.087,-22.468 50.087,-50.087 H 74.59 c 0,27.619 22.467,50.087 50.087,50.087 z"
     id="path7"
     transform="matrix(0.70695412,0,0,0.72820513,70.381015,24.653375)" /><path
     style="opacity:0.650964;mix-blend-mode:normal;fill:#000000;stroke-width:0.115201;filter:url(#filter9)"
     d="m 380.71795,138.28376 c -12.12648,-0.5164 -36.47694,-3.97754 -50.76239,19.2547 l -9.62735,35.00854 54.26325,-19.25469 38.5094,-14.87864 z"
     id="path8"
     sodipodi:nodetypes="cccccc"
     transform="matrix(-0.62852833,0.13728042,-0.13235862,-0.64297408,574.55943,193.46677)" /><path
     style="opacity:0.650964;mix-blend-mode:normal;fill:#000000;stroke-width:0.115201;filter:url(#filter9-0)"
     d="m 380.71795,138.28376 c -12.12648,-0.5164 -36.47694,-3.97754 -50.76239,19.2547 l -9.62735,35.00854 54.26325,-19.25469 38.5094,-14.87864 z"
     id="path8-8"
     sodipodi:nodetypes="cccccc"
     transform="matrix(-0.62852833,0.13728042,-0.13235862,-0.64297408,474.95554,201.65478)" /><path
     style="opacity:0.650964;mix-blend-mode:normal;fill:#000000;stroke-width:0.115201;filter:url(#filter9-8)"
     d="m 380.71795,138.28376 c -12.12648,-0.5164 -36.47694,-3.97754 -50.76239,19.2547 l -9.62735,35.00854 54.26325,-19.25469 38.5094,-14.87864 z"
     id="path8-5"
     sodipodi:nodetypes="cccccc"
     transform="matrix(-0.62852833,0.13728042,-0.13235862,-0.64297408,426.70961,292.63037)" /><path
     style="opacity:0.650964;mix-blend-mode:normal;fill:#000000;stroke-width:0.115201;filter:url(#filter9-5)"
     d="m 380.71795,138.28376 c -12.12648,-0.5164 -36.47694,-3.97754 -50.76239,19.2547 l -9.62735,35.00854 54.26325,-19.25469 38.5094,-14.87864 z"
     id="path8-1"
     sodipodi:nodetypes="cccccc"
     transform="matrix(-0.62852833,0.13728042,-0.13235862,-0.64297408,481.90085,378.85783)" /><path
     style="opacity:0.650964;mix-blend-mode:normal;fill:#000000;stroke-width:0.115201;filter:url(#filter9-1)"
     d="m 380.71795,138.28376 c -12.12648,-0.5164 -36.47694,-3.97754 -50.76239,19.2547 l -9.62735,35.00854 54.26325,-19.25469 38.5094,-14.87864 z"
     id="path8-7"
     sodipodi:nodetypes="cccccc"
     transform="matrix(-0.62852833,0.13728042,-0.13235862,-0.64297408,575.64321,381.82542)" /></g><path
   style="fill:#37afcc;stroke-width:0.717501"
   d="m 351.53574,497.76719 c -18.88416,-5.21104 -82.78411,-184.31276 -77.71171,-203.79589 5.07239,-19.47294 24.45354,-31.00552 43.36174,-25.78793 9.13667,2.51668 21.50058,7.31884 21.50059,16.98611 v 2.24121 c 1e-5,9.67491 -60.12231,47.40429 -36.79933,87.07568 34.14181,74.4133 92.05009,95.99641 49.64871,123.28082 z"
   id="path5"
   sodipodi:nodetypes="cccsscc" /><path
   style="opacity:0.980728;mix-blend-mode:normal;fill:#000000;stroke-width:0.115201;filter:url(#filter10)"
   d="M 730.25057,194.07857 C 718.12409,193.56217 525.85206,75.941198 511.56661,99.173438 423.24524,109.93855 352.9339,135.62411 320.32821,192.547 l 236.67827,-15.99181 c 91.61451,51.04168 195.5186,84.67093 241.1517,200.8612 z"
   id="path8-3"
   sodipodi:nodetypes="cccccc"
   transform="matrix(-0.62852833,0.13728042,-0.13235862,-0.64297408,633.82372,388.93967)" /><g
   style="fill:#ffcc00"
   id="g10"
   transform="matrix(14.450265,0,0,11.768684,246.4773,-43.252292)"><path
     style="fill:url(#linearGradient14);stroke-width:0.671079"
     d="m 17.93809,31.461803 c -0.572828,-0.433673 -5.581577,5.146932 -7.031346,7.122561 -0.719757,0.981106 -0.9377674,1.479481 -1.1477994,1.85916 -0.09174,0.166258 0.06077,0.186838 0.129783,0.210745 0.3512384,0.120588 0.6015954,0.243899 0.9373834,0.497527 0.336442,0.253518 0.525144,0.461512 0.738032,0.76912 0.04313,0.0606 0.106691,0.202098 0.236325,0.06622 0.299164,-0.313499 0.706799,-0.668939 1.426731,-1.648692 1.450508,-1.97506 5.284934,-8.44386 4.710889,-8.876643 z"
     id="path11" /><path
     style="fill:url(#linearGradient12);stroke-width:0.671079"
     d="m 8.1239986,41.980642 c -0.858105,1.168121 0.110152,2.064539 -1.004397,3.80984 -0.502839,0.788806 2.499987,0.08123 3.8031094,-1.694282 0.553255,-0.75426 0.251149,-1.670086 -0.521656,-2.254662 -0.7726294,-0.583221 -1.7244534,-0.615047 -2.2770564,0.139104 z"
     id="path1-2" /></g><path
   style="opacity:0.980728;mix-blend-mode:normal;fill:#37afcc;fill-opacity:1;stroke-width:0.115201;filter:url(#filter14)"
   d="m 350.58563,527.19829 c 4.49912,-0.58972 10.52016,-1.14875 16.97378,-2.41211 m 26.67674,-32.72851 c -5.33987,-12.75928 -14.11751,-26.76456 -30.98767,-30.70853 l -32.57262,4.07878 25.95237,34.37255 m 10.93118,-13.41099 -18.39541,8.74279 -0.65492,0.33091 m 2.00196,2.67556 -8.0446,-43.76263 -21.84472,34.97166 m 27.88736,37.2707 2.07655,0.57982"
   id="path14"
   inkscape:path-effect="#path-effect14"
   inkscape:original-d="m 359.71516,459.44926 -11.20608,38.10067 h 19.05033 z"
   transform="matrix(0.29286021,0,0,0.27990926,249.9507,355.09223)" /></svg>
