<?xml version="1.0" encoding="UTF-8" standalone="no"?>
<!-- Created with Inkscape (http://www.inkscape.org/) -->

<svg
   width="32"
   height="32"
   viewBox="0 0 32 32"
   version="1.1"
   id="svg1"
   xml:space="preserve"
   xmlns:inkscape="http://www.inkscape.org/namespaces/inkscape"
   xmlns:sodipodi="http://sodipodi.sourceforge.net/DTD/sodipodi-0.dtd"
   xmlns:xlink="http://www.w3.org/1999/xlink"
   xmlns="http://www.w3.org/2000/svg"
   xmlns:svg="http://www.w3.org/2000/svg"><sodipodi:namedview
     id="namedview1"
     pagecolor="#ffffff"
     bordercolor="#000000"
     borderopacity="0.25"
     inkscape:showpageshadow="2"
     inkscape:pageopacity="0.0"
     inkscape:pagecheckerboard="0"
     inkscape:deskcolor="#d1d1d1"
     inkscape:document-units="px"
     inkscape:zoom="18.28125"
     inkscape:cx="14.276923"
     inkscape:cy="15.398291"
     inkscape:window-width="1440"
     inkscape:window-height="829"
     inkscape:window-x="-8"
     inkscape:window-y="-8"
     inkscape:window-maximized="1"
     inkscape:current-layer="layer1"><inkscape:page
       x="0"
       y="0"
       width="32"
       height="32"
       id="page2"
       margin="0"
       bleed="0" /></sodipodi:namedview><defs
     id="defs1"><linearGradient
       id="linearGradient7"
       inkscape:collect="always"><stop
         style="stop-color:#ffffff;stop-opacity:1;"
         offset="0.27888447"
         id="stop7" /><stop
         style="stop-color:#aeaeae;stop-opacity:1;"
         offset="0.29880479"
         id="stop8" /></linearGradient><linearGradient
       id="linearGradient5"
       inkscape:collect="always"><stop
         style="stop-color:#000000;stop-opacity:1;"
         offset="0"
         id="stop5" /><stop
         style="stop-color:#1d1d1d;stop-opacity:1;"
         offset="1"
         id="stop6" /></linearGradient><linearGradient
       id="linearGradient3"
       inkscape:collect="always"><stop
         style="stop-color:#2e2e2e;stop-opacity:1;"
         offset="0.2868526"
         id="stop3" /><stop
         style="stop-color:#121212;stop-opacity:1;"
         offset="0.2868526"
         id="stop4" /></linearGradient><linearGradient
       inkscape:collect="always"
       xlink:href="#linearGradient3"
       id="linearGradient4"
       x1="0.65641028"
       y1="20.923079"
       x2="31.070086"
       y2="20.923079"
       gradientUnits="userSpaceOnUse" /><linearGradient
       inkscape:collect="always"
       xlink:href="#linearGradient5"
       id="linearGradient6"
       x1="4.594872"
       y1="11.979488"
       x2="4.4307699"
       y2="9.1897449"
       gradientUnits="userSpaceOnUse" /><linearGradient
       inkscape:collect="always"
       xlink:href="#linearGradient7"
       id="linearGradient8"
       x1="0.65641028"
       y1="20.923079"
       x2="31.070086"
       y2="20.923079"
       gradientUnits="userSpaceOnUse" /><linearGradient
       id="linearGradient9"
       inkscape:collect="always"><stop
         style="stop-color:#ffffff;stop-opacity:1;"
         offset="0.41666666"
         id="stop10" /><stop
         style="stop-color:#ffffff;stop-opacity:0;"
         offset="0.80612242"
         id="stop11" /></linearGradient><linearGradient
       id="linearGradient6-8"
       inkscape:collect="always"><stop
         style="stop-color:#ffffff;stop-opacity:1;"
         offset="0.43877551"
         id="stop6-8" /><stop
         style="stop-color:#ffffff;stop-opacity:0;"
         offset="0.6802721"
         id="stop7-2" /></linearGradient><linearGradient
       id="linearGradient8-4"><stop
         style="stop-color:#000000;stop-opacity:1;"
         offset="0"
         id="stop8-5" /><stop
         style="stop-color:#4c4c4c;stop-opacity:1;"
         offset="1"
         id="stop9" /></linearGradient><linearGradient
       id="linearGradient3-5"><stop
         style="stop-color:#ffffff;stop-opacity:1;"
         offset="0.52425051"
         id="stop3-1" /><stop
         style="stop-color:#545454;stop-opacity:0.88682431;"
         offset="1"
         id="stop4-7" /></linearGradient><linearGradient
       id="linearGradient1"><stop
         style="stop-color:#9b9b9b;stop-opacity:1;"
         offset="0"
         id="stop1" /><stop
         style="stop-color:#ffffff;stop-opacity:0;"
         offset="1"
         id="stop2" /></linearGradient><linearGradient
       xlink:href="#linearGradient1"
       id="linearGradient2"
       x1="2.9588647"
       y1="7.7743621"
       x2="14.103027"
       y2="7.7743621"
       gradientUnits="userSpaceOnUse"
       gradientTransform="matrix(1.2080767,0,0,1.2202276,-2.4127722,-1.5672018)" /><radialGradient
       xlink:href="#linearGradient3-5"
       id="radialGradient4"
       cx="9.4339657"
       cy="7.7009387"
       fx="9.4339657"
       fy="7.7009387"
       r="4.1068563"
       gradientTransform="matrix(1.2077656,-0.02768883,0.02557921,1.1383031,-2.6068216,-0.71948307)"
       gradientUnits="userSpaceOnUse" /><radialGradient
       xlink:href="#linearGradient8-4"
       id="radialGradient9"
       cx="8.4425364"
       cy="7.7914448"
       fx="8.4425364"
       fy="7.7914448"
       r="5.0947361"
       gradientTransform="matrix(2.8988137,0.02695556,-0.02484762,2.7261484,-16.493283,-13.528073)"
       gradientUnits="userSpaceOnUse" /><radialGradient
       xlink:href="#linearGradient3-5"
       id="radialGradient5"
       gradientUnits="userSpaceOnUse"
       gradientTransform="matrix(2.1854742,-0.05180624,0.04628605,2.1297832,-3.2227782,-0.765731)"
       cx="9.4339657"
       cy="7.7009387"
       fx="9.4339657"
       fy="7.7009387"
       r="4.1068563" /><radialGradient
       xlink:href="#linearGradient8-4"
       id="radialGradient6"
       gradientUnits="userSpaceOnUse"
       gradientTransform="matrix(5.245457,0.05043428,-0.04496223,5.100667,-28.350587,-24.730806)"
       cx="8.4425364"
       cy="7.7914448"
       fx="8.4425364"
       fy="7.7914448"
       r="5.0947361" /><linearGradient
       inkscape:collect="always"
       xlink:href="#linearGradient6-8"
       id="linearGradient7-1"
       x1="2.835057"
       y1="10.844599"
       x2="31.969234"
       y2="10.844599"
       gradientUnits="userSpaceOnUse"
       gradientTransform="matrix(0.91444158,0,0,1.0254163,0.87397703,-2.3070817)" /><linearGradient
       inkscape:collect="always"
       xlink:href="#linearGradient9"
       id="linearGradient11"
       x1="2.835057"
       y1="10.844599"
       x2="31.969234"
       y2="10.844599"
       gradientUnits="userSpaceOnUse"
       gradientTransform="matrix(-0.91444158,0,0,-1.0254163,29.599718,34.502488)" /><linearGradient
       inkscape:collect="always"
       xlink:href="#linearGradient1"
       id="linearGradient10"
       gradientUnits="userSpaceOnUse"
       gradientTransform="matrix(2.1860371,0,0,2.2830652,-2.8716422,-2.3518262)"
       x1="2.9588647"
       y1="7.7743621"
       x2="14.103027"
       y2="7.7743621" /></defs><g
     inkscape:label="Layer 1"
     inkscape:groupmode="layer"
     id="layer1"><rect
       style="fill:url(#linearGradient6);stroke:none;stroke-width:1.7573"
       id="rect2"
       width="18.871796"
       height="4.9230781"
       x="0.65641028"
       y="8.8615389"
       rx="0.42120531"
       ry="0.18469925" /><rect
       style="fill:url(#linearGradient4);stroke:url(#linearGradient8);stroke-width:0.180001;stroke-dasharray:none"
       id="rect1"
       width="30.413675"
       height="18.981197"
       x="0.65641028"
       y="11.432479"
       rx="0.67881203"
       ry="0.71211815" /><g
       id="g8"
       transform="matrix(0.45974869,0,-0.03574189,0.46733906,14.298448,14.150419)"><path
         d="m 27.9581,10.313404 v 10.169461 q 0,3.237039 -3.073921,5.98709 -3.045194,2.750053 -6.291486,2.750053 h -5.659465 q -3.3037492,0 -6.3202159,-2.778698 Q 3.5965459,23.633963 3.5965459,20.482865 V 10.313404 q 0,-3.1511007 2.9302818,-5.9297977 2.9590097,-2.8073439 6.4064003,-2.8073439 h 5.659465 q 3.246292,-0.057294 6.291486,2.6927584 3.073921,2.750051 3.073921,6.0443832 z M 8.4803486,10.51393 v 9.739764 q 0,1.317732 0.948032,2.091184 l 1.8098804,1.546903 q 0.603293,0.515634 1.694967,0.515634 h 5.602009 q 1.235315,0 2.240801,-0.888037 l 1.465144,-1.289087 q 0.890576,-0.68751 0.890576,-1.919305 v -9.739765 q 0,-1.4323183 -0.890576,-2.119831 L 20.546213,7.1050107 Q 19.684368,6.3888515 18.535237,6.3888515 h -4.998716 q -1.637511,0 -2.528086,0.7734518 L 9.3709243,8.5659755 Q 8.4803486,9.3107809 8.4803486,10.51393 Z"
         id="text2"
         style="font-size:20.376px;font-family:'OCR A Extended';-inkscape-font-specification:'OCR A Extended';fill:url(#linearGradient10);fill-opacity:1;fill-rule:evenodd;stroke:#000000;stroke-width:0;stroke-linecap:round;stroke-linejoin:round;stroke-miterlimit:3.6"
         aria-label="o" /><path
         d="m 26.032099,10.873126 v 9.210285 q 0,2.931721 -2.265607,5.422389 -2.244437,2.490674 -4.637087,2.490674 h -4.171263 q -2.435001,0 -4.658262,-2.516615 -2.2232611,-2.542554 -2.2232611,-5.396448 v -9.210285 q 0,-2.8538905 2.1597401,-5.3705033 2.180913,-2.5425577 4.721783,-2.5425577 h 4.171263 q 2.39265,-0.051887 4.637087,2.4387794 2.265607,2.4906689 2.265607,5.4742816 z M 11.676185,11.05474 v 8.821117 q 0,1.193443 0.69874,1.893947 l 1.333956,1.401002 q 0.444653,0.466994 1.249261,0.466994 h 4.128913 q 0.910483,0 1.651568,-0.804274 l 1.079868,-1.167496 q 0.656392,-0.622672 0.656392,-1.738284 v -8.821121 q 0,-1.2972228 -0.656392,-1.9198902 L 20.569232,7.9673464 Q 19.934011,7.3187348 19.087055,7.3187348 h -3.68426 q -1.206914,0 -1.863305,0.7005007 L 12.332576,9.2905137 Q 11.676185,9.9650699 11.676185,11.05474 Z"
         id="path14"
         style="font-size:18.8107px;font-family:'OCR A Extended';-inkscape-font-specification:'OCR A Extended';fill:url(#radialGradient5);fill-rule:evenodd;stroke:#000000;stroke-width:0;stroke-linecap:round;stroke-linejoin:round;stroke-miterlimit:3.6"
         aria-label="o" /><path
         d="m 26.721339,20.17554 v -9.479068 q 0,-3.0172824 -2.810585,-5.5806352 Q 21.126431,2.552482 18.15824,2.552482 h -5.174634 q -3.020726,0 -5.7787791,2.5900553 -2.7580531,2.6167559 -2.7580531,5.5539347 v 9.479068 q 0,2.937177 2.6792508,5.527231 2.7055206,2.616758 5.8575814,2.616758 h 5.174634 q 2.968191,0.0534 5.752514,-2.509951 2.810585,-2.563353 2.810585,-5.634038 z M 8.9121939,19.988625 v -9.078538 q 0,-1.2282748 0.8668164,-1.949221 L 11.433842,7.5189823 q 0.551612,-0.4806286 1.549764,-0.4806286 h 5.122101 q 1.129489,0 2.048837,0.8277481 l 1.339629,1.2015728 q 0.814281,0.6408403 0.814281,1.7890064 v 9.078545 q 0,1.335083 -0.814281,1.97592 l -1.549766,1.254973 q -0.788013,0.667541 -1.8387,0.667541 h -4.57049 q -1.497228,0 -2.311512,-0.720943 L 9.7264755,21.80434 Q 8.9121939,21.110099 8.9121939,19.988631 Z"
         id="path23"
         style="font-size:18.8107px;font-family:'OCR A Extended';-inkscape-font-specification:'OCR A Extended';fill:url(#radialGradient6);fill-rule:evenodd;stroke:#000000;stroke-width:0;stroke-linecap:round;stroke-linejoin:round;stroke-miterlimit:3.6"
         aria-label="o" /><g
         id="g15"
         transform="matrix(1.8095185,0,0,1.8710159,1.4943137,0.58043326)"
         style="opacity:0.322"><path
           d="m 14.624767,5.2019709 v 5.4352621 q 0,1.730097 -1.698751,3.199914 -1.682875,1.469818 -3.476884,1.469818 H 6.3215237 q -1.8257614,0 -3.492761,-1.485128 -1.6669994,-1.50044 -1.6669994,-3.184604 V 5.2019709 q 0,-1.6841654 1.619371,-3.1692928 1.635247,-1.5004383 3.5403894,-1.5004383 H 9.449132 q 1.794009,-0.0306216 3.476884,1.4391959 1.698751,1.469817 1.698751,3.2305352 z M 3.8607148,5.3091459 v 5.2056021 q 0,0.704287 0.523914,1.117673 l 1.0001998,0.826772 q 0.3333999,0.27559 0.9366951,0.27559 h 3.0958561 q 0.6826762,0 1.2383412,-0.474628 l 0.809687,-0.688977 Q 11.95757,11.203725 11.95757,10.545369 V 5.3397663 q 0,-0.7655297 -0.492162,-1.1329839 L 10.528712,3.4871844 Q 10.052428,3.1044195 9.4173798,3.1044195 H 6.6549236 q -0.9049428,0 -1.3971044,0.413386 L 4.3528765,4.2680248 Q 3.8607148,4.6661002 3.8607148,5.3091459 Z"
           id="path12"
           style="font-size:20.376px;font-family:'OCR A Extended';-inkscape-font-specification:'OCR A Extended';fill:url(#linearGradient2);fill-opacity:1;fill-rule:evenodd;stroke:#000000;stroke-width:0;stroke-linecap:round;stroke-linejoin:round;stroke-miterlimit:3.6"
           aria-label="o" /><path
           d="m 13.560395,5.5011253 v 4.9226117 q 0,1.566914 -1.25205,2.898099 -1.24035,1.331188 -2.562608,1.331188 H 7.4405587 q -1.3456623,0 -2.5743102,-1.345053 Q 3.6376004,11.949055 3.6376004,10.423737 V 5.5011253 q 0,-1.5253161 1.1935439,-2.8703676 Q 6.0363894,1.2718394 7.4405587,1.2718394 H 9.745737 q 1.322258,-0.027732 2.562608,1.303452 1.25205,1.3311853 1.25205,2.9258339 z M 5.6268402,5.598192 v 4.714614 q 0,0.637858 0.3861466,1.012256 l 0.7371887,0.748792 q 0.2457297,0.249594 0.6903832,0.249594 h 2.2817742 q 0.5031631,0 0.9127111,-0.42986 l 0.596771,-0.62399 q 0.362744,-0.332799 0.362744,-0.929059 V 5.6259231 q 0,-0.6933253 -0.362744,-1.0261217 L 10.541433,3.9480761 Q 10.190389,3.6014133 9.7223329,3.6014133 H 7.6862883 q -0.6669804,0 -1.029724,0.3743959 L 5.9895838,4.655268 Q 5.6268402,5.0157974 5.6268402,5.598192 Z"
           id="path13"
           style="font-size:18.8107px;font-family:'OCR A Extended';-inkscape-font-specification:'OCR A Extended';fill:url(#radialGradient4);fill-rule:evenodd;stroke:#000000;stroke-width:0;stroke-linecap:round;stroke-linejoin:round;stroke-miterlimit:3.6"
           aria-label="o" /><path
           d="M 13.941292,10.472977 V 5.4067089 q 0,-1.6126437 -1.553223,-2.9826763 Q 10.84936,1.0539989 9.2090392,1.0539989 H 6.3493645 q -1.6693536,0 -3.1935453,1.3843043 -1.5241917,1.3985749 -1.5241917,2.9684057 v 5.0662681 q 0,1.56983 1.4806429,2.954134 1.4951605,1.398576 3.2370941,1.398576 h 2.8596747 q 1.6403208,0.02854 3.1790298,-1.341491 1.553223,-1.370033 1.553223,-3.011219 z m -9.8419251,-0.0999 V 5.5208795 q 0,-0.6564746 0.4790315,-1.041798 L 5.4929136,3.7084394 Q 5.7977525,3.4515583 6.3493645,3.4515583 h 2.8306427 q 0.6241934,0 1.1322558,0.4424057 l 0.740323,0.6422034 q 0.449999,0.3425093 0.449999,0.9561685 v 4.8522011 q 0,0.71356 -0.449999,1.056068 l -0.856452,0.670744 q -0.4354821,0.35678 -1.0161268,0.35678 H 6.654203 q -0.827418,0 -1.2774182,-0.385322 L 4.5493659,11.34352 q -0.449999,-0.37105 -0.449999,-0.97044 z"
           id="path15"
           style="font-size:18.8107px;font-family:'OCR A Extended';-inkscape-font-specification:'OCR A Extended';fill:url(#radialGradient9);fill-rule:evenodd;stroke:#000000;stroke-width:0;stroke-linecap:round;stroke-linejoin:round;stroke-miterlimit:3.6"
           aria-label="o" /></g><path
         style="fill:#1a1a1a;stroke:url(#linearGradient11);stroke-width:0.38896;stroke-dasharray:none"
         d="m 25.252807,15.718051 -1.346142,1.279523 C 16.793134,21.168102 10.817497,25.338629 2.5640543,29.509156 L 6.1688031,25.113474 0.54963181,30.698045 C 0.45267449,33.796991 24.404495,17.871193 24.404495,17.871193 l 2.226601,-1.083143 z"
         id="path3" /><path
         id="path4"
         style="fill:#1a1a1a;stroke:#ffffff;stroke-width:0.08;stroke-dasharray:none"
         d="m 22.782795,19.743469 5.228963,-3.482218 -5.498465,3.258715 5.489407,-3.046873 -5.739565,2.801865 5.713322,-2.591255 -5.942471,2.32637 5.899216,-2.118391 -6.105829,1.835394 6.045849,-1.631431 -6.228553,1.332204 6.15225,-1.133612 -6.309829,0.820146 6.217708,-0.628249 -6.349114,0.302631 6.241789,-0.118706 -6.346146,-0.216896 6.224331,0.391626 -6.300946,-0.734983 6.165452,0.899355 -6.213813,-1.248176 6.065542,1.401096 -6.08533,-1.753065 5.925268,1.893516 -5.916348,-2.246286 5.745561,2.373331 -5.707995,-2.724557 5.527618,2.837352 -5.461656,-3.184698 5.272891,3.282494 -5.178969,-3.623646 4.983073,3.70579 -4.861821,-4.038479 4.660094,4.104425 -4.512314,-4.426436 4.306102,4.475745 -4.13278,-4.784936 3.923454,4.817281 -3.725743,-5.111594 3.514696,5.126758 -3.293912,-5.404233 3.082549,5.402115 -2.840161,-5.660909 2.629888,5.641526 -2.367508,-5.879914 2.159724,5.843392 -1.879101,-6.059787 1.675189,6.006369 -1.378187,-6.199333 1.179506,6.129377 -0.868103,-6.297625 0.675972,6.211593 -0.352242,-6.354006 0.167941,6.252475 0.165964,-6.368104 -0.341208,6.251747 0.683065,-6.339822 -0.848086,6.209412 1.19562,-6.26935 -1.34932,6.125757 1.70022,-6.157155 -1.841577,6.001335 2.193504,-6.003988 -2.321576,5.836975 2.672191,-5.810862 -2.786126,5.633771 3.133095,-5.579067 -3.232135,5.393075 3.573148,-5.310145 -3.656634,5.11649 3.989423,-5.005886 -4.0568,4.805855 4.37915,-4.668312 -4.429968,4.463238 4.739732,-4.29967 -4.773654,4.090917 5.068774,-3.902415 -5.085573,3.691374 5.364082,-3.479193 -5.363648,3.267267 5.623695,-3.032815 -5.606031,2.821412 5.845883,-2.566253 -5.811104,2.356785 6.029167,-2.082617 -5.977507,1.876473 6.172328,-1.585118 -6.10413,1.383672 6.274413,-1.077071 -6.19013,0.881666 6.334743,-0.561858 -6.234938,0.373789 6.352918,-0.0429 -6.238252,-0.136575 6.328812,0.476336 -6.20005,-0.646027 6.262591,0.992405 -6.120591,-1.151184 6.154693,1.501869 -6.000398,-1.648676 6.005837,2.001339 -5.840274,-2.135199 5.817012,2.487492 -5.641285,-2.607513 5.589477,2.95709 -5.404752,-3.062472 5.324744,3.407007 -5.132253,-3.497051 5.024577,3.834252 -4.8256,-3.908359 4.690971,4.235982 -4.486832,-4.293658 4.326148,4.609521 -4.118206,-4.650382 3.932534,4.952386 -3.722173,-4.976161 3.512752,5.262293 -3.30137,-5.268821 3.069591,5.53718 -2.858597,-5.52642 2.606003,5.775216 -2.396801,-5.747241 2.125073,5.974823 -1.919054,-5.929815 1.630001,6.134666 -1.428536,-6.072927 1.12408,6.253683 -0.928511,-6.175625 0.61068,6.331084 -0.422308,-6.237225 0.09322,6.366353 0.0867,-6.257317 -0.424868,6.359255 0.595143,-6.235769 -0.940125,6.309836 1.099619,-6.17272 -1.449127,6.218426 1.596777,-6.068595 -1.948483,6.085635 2.08331,-5.924085 -2.434874,5.912346 2.555979,-5.740151 -2.905061,5.699709 3.011637,-5.518016 -3.355914,5.449142 3.447253,-5.259159 -3.784435,5.162312 3.859929,-4.965305 -4.187771,4.841127 4.246918,-4.638406 -4.563238,4.487725 4.605642,-4.28064 -4.908337,4.104459 4.93372,-3.894387 z" /><path
         style="fill:#1a1a1a;fill-opacity:1;stroke:url(#linearGradient7-1);stroke-width:0.38896;stroke-dasharray:none"
         d="M 5.2208877,16.477355 6.5670296,15.197833 C 13.680561,11.027305 19.656198,6.8567775 27.909641,2.6862498 L 24.304892,7.0819325 29.924063,1.4973614 C 30.021021,-1.6015845 6.0691996,14.324213 6.0691996,14.324213 l -2.2266005,1.083143 z"
         id="path10" /><path
         id="path11"
         style="fill:#1a1a1a;stroke:#ffffff;stroke-width:0.08;stroke-dasharray:none"
         d="M 8.0365819,12.029848 3.0629028,15.512411 8.2929266,12.253372 3.071518,15.30055 8.5308716,12.498406 3.0964797,15.089918 8.7488326,12.763317 3.1376238,14.881918 8.9453593,13.046342 3.1946747,14.677934 9.1191434,13.345599 3.267253,14.479323 9.2690293,13.659095 3.3548768,14.287407 9.3940197,13.984746 3.4569617,14.103463 9.4932819,14.320382 3.5728297,13.928716 9.5661561,14.663771 3.7017084,13.764327 9.6121561,15.012627 3.8427409,13.611393 9.6309778,15.364631 3.9949881,13.470929 9.6224939,15.717437 4.1574376,13.343871 9.586762,16.068698 4.329008,13.231064 9.5240197,16.416079 4.5085572,13.133259 9.4346838,16.757263 4.69489,13.051106 9.3193506,17.089985 4.8867676,12.985154 9.1787859,17.412029 5.0829126,12.93584 9.0139255,17.72125 5.2820188,12.903493 8.825867,18.015592 5.4827625,12.888327 8.615862,18.293096 5.6838064,12.890444 8.3853076,18.551915 5.8838137,12.90983 8.1357376,18.790325 6.0814532,12.946356 7.8688142,19.006744 6.27541,12.999778 l 1.3109031,6.199949 -1.1219214,-6.129986 0.8257212,6.29825 -0.6429706,-6.21221 0.3350454,6.354637 -0.1597421,-6.253095 -0.1578615,6.368735 0.3245496,-6.252366 -0.6497168,6.34045 0.8066821,-6.210027 -1.1372494,6.26997 1.2834456,-6.126364 -1.6172135,6.157766 1.7516685,-6.001929 -2.0864144,6.004581 2.2082343,-5.837553 -2.5417316,5.811439 2.6501044,-5.634329 -2.9801339,5.57962 3.0743383,-5.39361 -3.3987027,5.310672 3.478113,-5.116997 -3.7946548,5.006382 3.8587417,-4.806332 -4.1653541,4.668774 4.2136914,-4.46368 -4.5083332,4.300097 4.5405992,-4.091324 -4.8213108,3.902804 4.8372899,-3.691741 -5.102202,3.479537 5.1017892,-3.26759 -5.3491398,3.033116 5.3323376,-2.821693 -5.56048,2.566509 5.5273997,-2.357019 -5.7348164,2.082823 5.685678,-1.876659 -5.8709876,1.585274 5.8061191,-1.383809 -5.9680892,1.077178 5.8879212,-0.881752 -6.0254736,0.561912 5.9305407,-0.373825 -6.0427607,0.04291 5.9336932,0.136588 -6.0198324,-0.476383 5.8973569,0.646091 -5.9568443,-0.992503 5.8217768,1.151297 -5.8542139,-1.502018 5.7074513,1.648839 -5.7126247,-2.001537 5.5551454,2.13541 -5.5330193,-2.487737 5.3658709,2.60777 -5.3165924,-2.957382 5.140886,3.062775 -5.0647841,-3.407345 4.8816906,3.497399 -4.779271,-3.834633 4.5900082,3.908747 -4.4619522,-4.236402 4.26778,4.294084 -4.1149405,-4.60998 3.9171499,4.650845 -3.7405434,-4.952877 3.5404523,4.976653 -3.3412549,-5.262815 3.1401931,5.269344 -2.91973,-5.537728 2.719037,5.526967 -2.4787748,-5.775789 2.2797866,5.747811 -2.0213251,-5.975415 1.8253639,5.930403 -1.5504221,-6.135274 1.3587934,6.07353 -1.069202,-6.254304 0.8831802,6.176237 L 3.9184859,11.528227 4.3201765,17.76607 4.2315106,11.399085 4.1490381,17.657023 4.5531642,11.297138 3.987077,17.533525 4.881304,11.223063 3.8353696,17.396395 5.2137481,11.177352 3.6949273,17.24655 5.5482837,11.160311 3.5666828,17.084982 5.8826834,11.172051 3.451491,16.912771 6.2147233,11.212498 3.3501179,16.73106 6.5421922,11.281377 3.2632378,16.541058 6.8629126,11.378235 3.1914299,16.344032 7.1747495,11.502425 3.1351707,16.141291 7.4756263,11.65312 3.0948362,15.934185 7.7635434,11.82932 3.0706931,15.724093 Z" /></g></g></svg>
