<?xml version="1.0" encoding="UTF-8" standalone="no"?>
<!-- Created with Inkscape (http://www.inkscape.org/) -->

<svg
   width="32"
   height="32"
   viewBox="0 0 32 32"
   version="1.1"
   id="svg1"
   sodipodi:docname="onu.svg"
   inkscape:version="1.4 (e7c3feb100, 2024-10-09)"
   xmlns:inkscape="http://www.inkscape.org/namespaces/inkscape"
   xmlns:sodipodi="http://sodipodi.sourceforge.net/DTD/sodipodi-0.dtd"
   xmlns:xlink="http://www.w3.org/1999/xlink"
   xmlns="http://www.w3.org/2000/svg"
   xmlns:svg="http://www.w3.org/2000/svg"
   xmlns:rdf="http://www.w3.org/1999/02/22-rdf-syntax-ns#"
   xmlns:cc="http://creativecommons.org/ns#"
   xmlns:dc="http://purl.org/dc/elements/1.1/">
  <title
     id="title1">onu.</title>
  <sodipodi:namedview
     id="namedview1"
     pagecolor="#ffffff"
     bordercolor="#000000"
     borderopacity="0.25"
     inkscape:showpageshadow="2"
     inkscape:pageopacity="0.0"
     inkscape:pagecheckerboard="0"
     inkscape:deskcolor="#d1d1d1"
     inkscape:zoom="8.625"
     inkscape:cx="15.536232"
     inkscape:cy="9.5072464"
     inkscape:window-width="1240"
     inkscape:window-height="755"
     inkscape:window-x="-172"
     inkscape:window-y="111"
     inkscape:window-maximized="0"
     inkscape:current-layer="svg1" />
  <defs
     id="defs1">
    <linearGradient
       id="linearGradient8">
      <stop
         style="stop-color:#000000;stop-opacity:1;"
         offset="0"
         id="stop8" />
      <stop
         style="stop-color:#4c4c4c;stop-opacity:1;"
         offset="1"
         id="stop9" />
    </linearGradient>
    <linearGradient
       id="linearGradient3">
      <stop
         style="stop-color:#ffffff;stop-opacity:1;"
         offset="0.52425051"
         id="stop3" />
      <stop
         style="stop-color:#b1b1b1;stop-opacity:0.10995654;"
         offset="1"
         id="stop4" />
    </linearGradient>
    <linearGradient
       id="linearGradient1">
      <stop
         style="stop-color:#9b9b9b;stop-opacity:1;"
         offset="0"
         id="stop1" />
      <stop
         style="stop-color:#ffffff;stop-opacity:0;"
         offset="1"
         id="stop2" />
    </linearGradient>
    <linearGradient
       xlink:href="#linearGradient1"
       id="linearGradient2"
       x1="2.9588647"
       y1="7.7743621"
       x2="14.103027"
       y2="7.7743621"
       gradientUnits="userSpaceOnUse"
       gradientTransform="matrix(1.2080767,0,0,1.2202276,-2.4127722,-1.5672018)" />
    <radialGradient
       xlink:href="#linearGradient3"
       id="radialGradient4"
       cx="9.4339657"
       cy="7.7009387"
       fx="9.4339657"
       fy="7.7009387"
       r="4.1068563"
       gradientTransform="matrix(1.2077656,-0.02768883,0.02557921,1.1383031,-2.6068216,-0.71948307)"
       gradientUnits="userSpaceOnUse" />
    <radialGradient
       xlink:href="#linearGradient8"
       id="radialGradient9"
       cx="8.4425364"
       cy="7.7914448"
       fx="8.4425364"
       fy="7.7914448"
       r="5.0947361"
       gradientTransform="matrix(2.8988137,0.02695556,-0.02484762,2.7261484,-16.493283,-13.528073)"
       gradientUnits="userSpaceOnUse" />
  </defs>
  <g
     id="layer1"
     transform="matrix(1.8095185,0,0,1.8710159,1.4943137,0.58043326)">
    <path
       d="m 14.624767,5.2019709 v 5.4352621 q 0,1.730097 -1.698751,3.199914 -1.682875,1.469818 -3.476884,1.469818 H 6.3215237 q -1.8257614,0 -3.492761,-1.485128 -1.6669994,-1.50044 -1.6669994,-3.184604 V 5.2019709 q 0,-1.6841654 1.619371,-3.1692928 1.635247,-1.5004383 3.5403894,-1.5004383 H 9.449132 q 1.794009,-0.0306216 3.476884,1.4391959 1.698751,1.469817 1.698751,3.2305352 z M 3.8607148,5.3091459 v 5.2056021 q 0,0.704287 0.523914,1.117673 l 1.0001998,0.826772 q 0.3333999,0.27559 0.9366951,0.27559 h 3.0958561 q 0.6826762,0 1.2383412,-0.474628 l 0.809687,-0.688977 Q 11.95757,11.203725 11.95757,10.545369 V 5.3397663 q 0,-0.7655297 -0.492162,-1.1329839 L 10.528712,3.4871844 Q 10.052428,3.1044195 9.4173798,3.1044195 H 6.6549236 q -0.9049428,0 -1.3971044,0.413386 L 4.3528765,4.2680248 Q 3.8607148,4.6661002 3.8607148,5.3091459 Z"
       id="text2"
       style="font-size:20.376px;font-family:'OCR A Extended';-inkscape-font-specification:'OCR A Extended';fill:url(#linearGradient2);fill-opacity:1;fill-rule:evenodd;stroke:#000000;stroke-width:0;stroke-linecap:round;stroke-linejoin:round;stroke-miterlimit:3.6"
       aria-label="o" />
    <path
       d="m 13.560395,5.5011253 v 4.9226117 q 0,1.566914 -1.25205,2.898099 -1.24035,1.331188 -2.562608,1.331188 H 7.4405587 q -1.3456623,0 -2.5743102,-1.345053 Q 3.6376004,11.949055 3.6376004,10.423737 V 5.5011253 q 0,-1.5253161 1.1935439,-2.8703676 Q 6.0363894,1.2718394 7.4405587,1.2718394 H 9.745737 q 1.322258,-0.027732 2.562608,1.303452 1.25205,1.3311853 1.25205,2.9258339 z M 5.6268402,5.598192 v 4.714614 q 0,0.637858 0.3861466,1.012256 l 0.7371887,0.748792 q 0.2457297,0.249594 0.6903832,0.249594 h 2.2817742 q 0.5031631,0 0.9127111,-0.42986 l 0.596771,-0.62399 q 0.362744,-0.332799 0.362744,-0.929059 V 5.6259231 q 0,-0.6933253 -0.362744,-1.0261217 L 10.541433,3.9480761 Q 10.190389,3.6014133 9.7223329,3.6014133 H 7.6862883 q -0.6669804,0 -1.029724,0.3743959 L 5.9895838,4.655268 Q 5.6268402,5.0157974 5.6268402,5.598192 Z"
       id="path14"
       style="font-size:18.8107px;font-family:'OCR A Extended';-inkscape-font-specification:'OCR A Extended';fill:url(#radialGradient4);fill-rule:evenodd;stroke:#000000;stroke-width:0;stroke-linecap:round;stroke-linejoin:round;stroke-miterlimit:3.6"
       aria-label="o" />
    <path
       d="M 13.941292,10.472977 V 5.4067089 q 0,-1.6126437 -1.553223,-2.9826763 Q 10.84936,1.0539989 9.2090392,1.0539989 H 6.3493645 q -1.6693536,0 -3.1935453,1.3843043 -1.5241917,1.3985749 -1.5241917,2.9684057 v 5.0662681 q 0,1.56983 1.4806429,2.954134 1.4951605,1.398576 3.2370941,1.398576 h 2.8596747 q 1.6403208,0.02854 3.1790298,-1.341491 1.553223,-1.370033 1.553223,-3.011219 z m -9.8419251,-0.0999 V 5.5208795 q 0,-0.6564746 0.4790315,-1.041798 L 5.4929136,3.7084394 Q 5.7977525,3.4515583 6.3493645,3.4515583 h 2.8306427 q 0.6241934,0 1.1322558,0.4424057 l 0.740323,0.6422034 q 0.449999,0.3425093 0.449999,0.9561685 v 4.8522011 q 0,0.71356 -0.449999,1.056068 l -0.856452,0.670744 q -0.4354821,0.35678 -1.0161268,0.35678 H 6.654203 q -0.827418,0 -1.2774182,-0.385322 L 4.5493659,11.34352 q -0.449999,-0.37105 -0.449999,-0.97044 z"
       id="path23"
       style="font-size:18.8107px;font-family:'OCR A Extended';-inkscape-font-specification:'OCR A Extended';fill:url(#radialGradient9);fill-rule:evenodd;stroke:#000000;stroke-width:0;stroke-linecap:round;stroke-linejoin:round;stroke-miterlimit:3.6"
       aria-label="o" />
  </g>
  <metadata
     id="metadata1">
    <rdf:RDF>
      <cc:Work
         rdf:about="">
        <dc:title>onu.</dc:title>
      </cc:Work>
    </rdf:RDF>
  </metadata>
  <g
     id="g2"
     transform="matrix(1.0000122,0,0,0.98670274,-0.34802902,-2.0451622)"
     style="stroke-width:0.10067095;stroke-dasharray:none">
    <path
       style="fill:#1a1a1a;stroke:#ffffff;stroke-width:0.50335477;stroke-dasharray:none"
       d="M 4.7536232,18.31884 6.2257149,17.071032 29.565217,4.8695652 26.086957,9.3913043 31.768116,3.7101449 C 31.874145,0.6880105 5.6813061,16.219066 5.6813061,16.219066 l -2.4349292,1.056296 z"
       id="path2"
       sodipodi:nodetypes="cccccccc" />
    <path
       sodipodi:type="star"
       style="fill:#1a1a1a;stroke:#ffffff;stroke-width:0.10067095;stroke-dasharray:none"
       id="path1"
       inkscape:flatsided="false"
       sodipodi:sides="63"
       sodipodi:cx="4.869565"
       sodipodi:cy="17.15942"
       sodipodi:r1="4.0087438"
       sodipodi:r2="2.0247261"
       sodipodi:arg1="0.38841083"
       sodipodi:arg2="-1.6319654"
       inkscape:rounded="0"
       inkscape:randomized="0"
       d="M 8.5797058,18.677604 4.7457916,15.138481 8.410107,19.03947 4.9476273,15.136199 8.2053206,19.382652 5.1486871,15.154026 7.9673821,19.703738 5.3469729,15.191782 7.698656,19.999538 5.540514,15.249095 7.4018132,20.267111 5.7273869,15.325392 7.0798038,20.503799 5.9057343,15.419917 6.735828,20.707249 6.0737839,15.531731 6.3733044,20.875439 6.2298654,15.65972 5.995836,21.006697 6.3724276,15.802615 5.6071743,21.099719 6.5000537,15.958994 5.2111818,21.153581 6.6114753,16.127303 4.8117942,21.167747 6.705585,16.305871 4.4129807,21.142077 6.7814475,16.492921 4.018705,21.076825 l 2.8196038,-4.39023 -3.2054233,4.286045 3.2427184,-4.087672 -3.6162472,3.94559 3.6336053,-3.74449 -3.9911311,3.565923 3.9883799,-3.364093 -4.3263496,3.150814 4.3035162,-2.950261 -4.6185706,2.704392 4.5758821,-2.507109 -4.8648904,2.231092 4.802771,-2.03904 -5.0628606,1.735618 4.9819277,-1.550705 -5.2105139,1.222895 5.1115718,-1.04696 -5.3063828,0.698019 5.1904148,-0.532809 -5.3495144,0.166205 5.2176731,-0.01336 L 0.99540512,18.189426 6.1884809,18.695642 0.91210124,17.798566 6.0289687,18.819329 0.86812842,17.401353 5.8579337,18.92652 0.86392367,17.001737 5.677076,19.016149 0.89952878,16.603687 5.4881928,19.087324 0.9745899,16.211161 5.2931614,19.13934 1.088361,15.828059 5.0939201,19.171678 1.2397115,15.458188 4.892449,19.184017 1.427137,15.105225 4.6907506,19.176235 1.648775,14.772678 4.4908293,19.148409 1.9024226,14.463851 4.294672,19.100815 2.185559,14.181814 4.1042282,19.033927 2.4953702,13.92937 3.9213908,18.948409 2.8287773,13.709027 3.7479767,18.845111 3.1824666,13.522976 3.5857094,18.725061 3.5529231,13.373065 3.4362017,18.58945 3.936465,13.260786 l -0.6355256,5.178841 1.028341,-5.252375 -1.1480136,5.089829 1.5461986,-5.123885 -1.6490921,4.950231 2.0486894,-4.944472 -2.1337813,4.761435 2.5308194,-4.715917 -2.5972639,4.525318 2.987797,-4.440495 -3.0349338,4.244228 3.4150805,-4.120941 -3.4424411,3.920955 3.8084233,-3.76043 -3.8157359,3.558714 4.1639165,-3.362548 -4.1511082,3.161107 4.4780266,-2.931247 -4.4452249,2.732081 4.7476322,-2.470813 -4.695163,2.275903 4.9700536,-1.985823 -4.8984385,1.797106 5.1430806,-1.481097 -5.0530311,1.300449 5.2649931,-0.961653 -5.1574043,0.790868 5.3345799,-0.43265 -5.2105211,0.273426 5.3511492,0.100653 -5.2118532,-0.246733 5.3145363,0.632955 -5.1613877,-0.76444 5.2251052,1.158966 -5.0596259,-1.274549 5.0837447,1.67346 -4.9075793,-1.771993 4.8918596,2.171322 -4.706759,-2.251824 4.651357,2.647604 -4.4591608,-2.709276 4.3646271,3.097573 -4.1672454,-3.139802 z"
       inkscape:transform-center-x="-0.11662583"
       inkscape:transform-center-y="0.21496834" />
  </g>
  <g
     id="g4"
     transform="matrix(-1.0000122,0,0,-0.98670274,32.325908,34.372134)">
    <path
       style="fill:#1a1a1a;stroke:#ffffff;stroke-width:0.40167711;stroke-dasharray:none"
       d="M 4.7536232,18.31884 6.2257149,17.071032 29.565217,4.8695652 26.086957,9.3913043 31.768116,3.7101449 C 31.874145,0.6880105 5.6813061,16.219066 5.6813061,16.219066 l -2.4349292,1.056296 z"
       id="path3"
       sodipodi:nodetypes="cccccccc" />
    <path
       sodipodi:type="star"
       style="fill:#1a1a1a;stroke:#ffffff;stroke-width:0.1"
       id="path4"
       inkscape:flatsided="false"
       sodipodi:sides="77"
       sodipodi:cx="4.869565"
       sodipodi:cy="17.15942"
       sodipodi:r1="4.1799974"
       sodipodi:r2="2.5110564"
       sodipodi:arg1="0.054005738"
       sodipodi:arg2="-2.1724825"
       inkscape:rounded="0"
       inkscape:randomized="0"
       d="m 9.0434682,17.385054 -5.5952448,-2.295705 5.5629652,2.635166 -5.3895058,-2.74413 5.3296644,3.079831 -5.1479006,-3.174295 5.0608956,3.504001 -4.872037,-3.583334 4.7584474,3.904851 -4.5637507,-3.968527 4.4243325,4.279715 -4.2250935,-4.32731 4.0607743,4.626099 L 4.5886964,14.664121 8.2588888,19.605818 4.793021,14.64953 8.048207,19.873939 4.997855,14.651643 7.8163718,20.123996 5.2018352,14.670444 7.5649261,20.354323 5.4036043,14.705809 7.2955432,20.56339 5.6018194,14.757502 7.0100159,20.749803 5.7951614,14.82518 6.7102442,20.912323 5.9823438,14.908392 6.398223,21.049868 6.1621208,15.006584 6.0760289,21.161522 6.3332961,15.119102 5.745806,21.246544 6.4947305,15.245199 5.4097519,21.304366 6.6453496,15.384035 5.0701029,21.334604 6.7841512,15.534685 4.7291194,21.337057 6.9102116,15.696148 4.3890704,21.311709 7.0226918,15.867348 4.0522192,21.258728 7.1208433,16.047147 3.7208072,21.178466 7.2040129,16.234348 3.39704,21.071459 7.2716471,16.427706 3.0830722,20.938418 7.3232959,16.625932 2.7809932,20.780227 7.3586155,16.827709 2.4928133,20.597942 7.3773709,17.031694 2.2204504,20.392773 7.3794373,17.236528 1.9657168,20.166087 7.3648008,17.44085 1.7303079,19.919392 7.333559,17.643298 1.5157902,19.654329 7.2859197,17.842526 1.3235913,19.372664 7.2222,18.037209 1.1549903,19.07627 7.1428238,18.22605 1.0111092,18.767119 7.0483195,18.407792 0.89290546,18.44727 6.939316,18.581227 0.80116574,18.11885 6.8165386,18.7452 0.73650055,17.784045 6.6808044,18.89862 0.69934022,17.445084 6.5330167,19.040466 0.68993204,17.104221 6.374159,19.169793 0.70833864,16.763726 6.2052885,19.285742 0.75443751,16.425864 6.027529,19.387541 0.82792187,16.092884 5.8420634,19.474512 0.9283027,15.767001 5.650126,19.546076 1.054912,15.450385 5.4529941,19.601758 1.2069072,15.145142 5.2519796,19.641186 1.3832767,14.853304 5.0484202,19.664099 1.5828469,14.576812 4.8436705,19.670343 1.8042897,14.317508 4.6390931,19.659877 2.0461314,14.077115 4.4360495,19.632772 2.3067626,13.857236 4.2358908,19.589206 2.5844488,13.659331 4.0399492,19.529471 2.8773421,13.484719 3.8495285,19.453964 3.1834933,13.334562 3.665896,19.363186 3.500865,13.209858 3.4902737,19.257743 3.8273452,13.111438 3.3238304,19.138336 4.1607612,13.039957 3.1676737,19.00576 4.4988941,12.99589 3.0228427,18.860896 4.8394939,12.979531 2.8903014,18.70471 5.1802937,12.990988 2.7709318,18.538239 5.5190257,13.030185 2.6655283,18.362593 5.8534356,13.096862 2.5747922,18.178941 6.1812981,13.190574 2.4993275,17.988503 6.5004312,13.310699 2.4396363,17.792548 6.8087111,13.456436 2.3961159,17.592379 7.1040863,13.626816 2.3690559,17.38933 7.3845912,13.820704 2.3586363,17.18475 7.648359,14.036812 2.3649266,16.980002 7.8936343,14.273699 2.3878849,16.776447 8.118785,14.529791 2.4273583,16.575442 8.3223126,14.803383 2.4830842,16.378322 8.5028628,15.092653 2.5546917,16.186401 8.659234,15.395678 2.6417043,16.000955 8.7903856,15.710439 2.743543,15.823218 8.8954448,16.034844 2.85953,15.654374 8.9737123,16.366733 2.9888934,15.495545 9.0246675,16.703896 3.1307724,15.34779 9.0479712,17.044092 3.2842228,15.21209 Z"
       inkscape:transform-center-x="-0.24165388"
       inkscape:transform-center-y="0.025490257"
       transform="matrix(0.56257055,-0.83790116,0.81574583,0.56257055,-11.993692,11.778264)" />
  </g>
</svg>
