<?xml version="1.0" encoding="UTF-8" standalone="no"?>
<!-- Created with Inkscape (http://www.inkscape.org/) -->

<svg
   width="32"
   height="32"
   viewBox="0 0 32 32"
   version="1.1"
   id="svg1"
   sodipodi:docname="onu.svg"
   inkscape:export-filename="onu.png"
   inkscape:export-xdpi="48"
   inkscape:export-ydpi="48"
   inkscape:version="1.4.2 (f4327f4, 2025-05-13)"
   xmlns:inkscape="http://www.inkscape.org/namespaces/inkscape"
   xmlns:sodipodi="http://sodipodi.sourceforge.net/DTD/sodipodi-0.dtd"
   xmlns:xlink="http://www.w3.org/1999/xlink"
   xmlns="http://www.w3.org/2000/svg"
   xmlns:svg="http://www.w3.org/2000/svg"
   xmlns:rdf="http://www.w3.org/1999/02/22-rdf-syntax-ns#"
   xmlns:cc="http://creativecommons.org/ns#"
   xmlns:dc="http://purl.org/dc/elements/1.1/">
  <sodipodi:namedview
     id="namedview1"
     pagecolor="#505050"
     bordercolor="#eeeeee"
     borderopacity="1"
     inkscape:showpageshadow="0"
     inkscape:pageopacity="0"
     inkscape:pagecheckerboard="0"
     inkscape:deskcolor="#505050"
     inkscape:zoom="6.7064659"
     inkscape:cx="-5.8898384"
     inkscape:cy="-7.8282662"
     inkscape:window-width="1440"
     inkscape:window-height="829"
     inkscape:window-x="-8"
     inkscape:window-y="-8"
     inkscape:window-maximized="1"
     inkscape:current-layer="svg1" />
  <title
     id="title1">onu.</title>
  <defs
     id="defs1">
    <linearGradient
       id="linearGradient9"
       inkscape:collect="always">
      <stop
         style="stop-color:#ffffff;stop-opacity:1;"
         offset="0.41666666"
         id="stop10" />
      <stop
         style="stop-color:#ffffff;stop-opacity:0;"
         offset="0.80612242"
         id="stop11" />
    </linearGradient>
    <linearGradient
       id="linearGradient6"
       inkscape:collect="always">
      <stop
         style="stop-color:#ffffff;stop-opacity:1;"
         offset="0.43877551"
         id="stop6" />
      <stop
         style="stop-color:#ffffff;stop-opacity:0;"
         offset="0.6802721"
         id="stop7" />
    </linearGradient>
    <linearGradient
       id="linearGradient8">
      <stop
         style="stop-color:#000000;stop-opacity:1;"
         offset="0"
         id="stop8" />
      <stop
         style="stop-color:#4c4c4c;stop-opacity:1;"
         offset="1"
         id="stop9" />
    </linearGradient>
    <linearGradient
       id="linearGradient3">
      <stop
         style="stop-color:#ffffff;stop-opacity:1;"
         offset="0.52425051"
         id="stop3" />
      <stop
         style="stop-color:#545454;stop-opacity:0.88682431;"
         offset="1"
         id="stop4" />
    </linearGradient>
    <linearGradient
       id="linearGradient1">
      <stop
         style="stop-color:#9b9b9b;stop-opacity:1;"
         offset="0"
         id="stop1" />
      <stop
         style="stop-color:#ffffff;stop-opacity:0;"
         offset="1"
         id="stop2" />
    </linearGradient>
    <linearGradient
       xlink:href="#linearGradient1"
       id="linearGradient2"
       x1="2.9588647"
       y1="7.7743621"
       x2="14.103027"
       y2="7.7743621"
       gradientUnits="userSpaceOnUse"
       gradientTransform="matrix(1.2080767,0,0,1.2202276,-2.4127722,-1.5672018)" />
    <radialGradient
       xlink:href="#linearGradient3"
       id="radialGradient4"
       cx="9.4339657"
       cy="7.7009387"
       fx="9.4339657"
       fy="7.7009387"
       r="4.1068563"
       gradientTransform="matrix(1.2077656,-0.02768883,0.02557921,1.1383031,-2.6068216,-0.71948307)"
       gradientUnits="userSpaceOnUse" />
    <radialGradient
       xlink:href="#linearGradient8"
       id="radialGradient9"
       cx="8.4425364"
       cy="7.7914448"
       fx="8.4425364"
       fy="7.7914448"
       r="5.0947361"
       gradientTransform="matrix(2.8988137,0.02695556,-0.02484762,2.7261484,-16.493283,-13.528073)"
       gradientUnits="userSpaceOnUse" />
    <linearGradient
       xlink:href="#linearGradient1"
       id="linearGradient4"
       gradientUnits="userSpaceOnUse"
       gradientTransform="matrix(1.2080767,0,0,1.2202276,-2.4127722,-1.5672018)"
       x1="2.9588647"
       y1="7.7743621"
       x2="14.103027"
       y2="7.7743621" />
    <radialGradient
       xlink:href="#linearGradient3"
       id="radialGradient5"
       gradientUnits="userSpaceOnUse"
       gradientTransform="matrix(1.2077656,-0.02768883,0.02557921,1.1383031,-2.6068216,-0.71948307)"
       cx="9.4339657"
       cy="7.7009387"
       fx="9.4339657"
       fy="7.7009387"
       r="4.1068563" />
    <radialGradient
       xlink:href="#linearGradient8"
       id="radialGradient6"
       gradientUnits="userSpaceOnUse"
       gradientTransform="matrix(2.8988137,0.02695556,-0.02484762,2.7261484,-16.493283,-13.528073)"
       cx="8.4425364"
       cy="7.7914448"
       fx="8.4425364"
       fy="7.7914448"
       r="5.0947361" />
    <linearGradient
       inkscape:collect="always"
       xlink:href="#linearGradient6"
       id="linearGradient7"
       x1="2.8350571"
       y1="10.844599"
       x2="31.969234"
       y2="10.844599"
       gradientUnits="userSpaceOnUse" />
    <linearGradient
       inkscape:collect="always"
       xlink:href="#linearGradient9"
       id="linearGradient11"
       x1="2.8350571"
       y1="10.844599"
       x2="31.969234"
       y2="10.844599"
       gradientUnits="userSpaceOnUse" />
  </defs>
  <g
     id="layer1"
     transform="matrix(1.8095185,0,0,1.8710159,1.4943137,0.58043326)">
    <path
       d="m 14.624767,5.2019709 v 5.4352621 q 0,1.730097 -1.698751,3.199914 -1.682875,1.469818 -3.476884,1.469818 H 6.3215237 q -1.8257614,0 -3.492761,-1.485128 -1.6669994,-1.50044 -1.6669994,-3.184604 V 5.2019709 q 0,-1.6841654 1.619371,-3.1692928 1.635247,-1.5004383 3.5403894,-1.5004383 H 9.449132 q 1.794009,-0.0306216 3.476884,1.4391959 1.698751,1.469817 1.698751,3.2305352 z M 3.8607148,5.3091459 v 5.2056021 q 0,0.704287 0.523914,1.117673 l 1.0001998,0.826772 q 0.3333999,0.27559 0.9366951,0.27559 h 3.0958561 q 0.6826762,0 1.2383412,-0.474628 l 0.809687,-0.688977 Q 11.95757,11.203725 11.95757,10.545369 V 5.3397663 q 0,-0.7655297 -0.492162,-1.1329839 L 10.528712,3.4871844 Q 10.052428,3.1044195 9.4173798,3.1044195 H 6.6549236 q -0.9049428,0 -1.3971044,0.413386 L 4.3528765,4.2680248 Q 3.8607148,4.6661002 3.8607148,5.3091459 Z"
       id="text2"
       style="font-size:20.376px;font-family:'OCR A Extended';-inkscape-font-specification:'OCR A Extended';fill:url(#linearGradient4);fill-opacity:1;fill-rule:evenodd;stroke:#000000;stroke-width:0;stroke-linecap:round;stroke-linejoin:round;stroke-miterlimit:3.6"
       aria-label="o" />
    <path
       d="m 13.560395,5.5011253 v 4.9226117 q 0,1.566914 -1.25205,2.898099 -1.24035,1.331188 -2.562608,1.331188 H 7.4405587 q -1.3456623,0 -2.5743102,-1.345053 Q 3.6376004,11.949055 3.6376004,10.423737 V 5.5011253 q 0,-1.5253161 1.1935439,-2.8703676 Q 6.0363894,1.2718394 7.4405587,1.2718394 H 9.745737 q 1.322258,-0.027732 2.562608,1.303452 1.25205,1.3311853 1.25205,2.9258339 z M 5.6268402,5.598192 v 4.714614 q 0,0.637858 0.3861466,1.012256 l 0.7371887,0.748792 q 0.2457297,0.249594 0.6903832,0.249594 h 2.2817742 q 0.5031631,0 0.9127111,-0.42986 l 0.596771,-0.62399 q 0.362744,-0.332799 0.362744,-0.929059 V 5.6259231 q 0,-0.6933253 -0.362744,-1.0261217 L 10.541433,3.9480761 Q 10.190389,3.6014133 9.7223329,3.6014133 H 7.6862883 q -0.6669804,0 -1.029724,0.3743959 L 5.9895838,4.655268 Q 5.6268402,5.0157974 5.6268402,5.598192 Z"
       id="path14"
       style="font-size:18.8107px;font-family:'OCR A Extended';-inkscape-font-specification:'OCR A Extended';fill:url(#radialGradient5);fill-rule:evenodd;stroke:#000000;stroke-width:0;stroke-linecap:round;stroke-linejoin:round;stroke-miterlimit:3.6"
       aria-label="o" />
    <path
       d="M 13.941292,10.472977 V 5.4067089 q 0,-1.6126437 -1.553223,-2.9826763 Q 10.84936,1.0539989 9.2090392,1.0539989 H 6.3493645 q -1.6693536,0 -3.1935453,1.3843043 -1.5241917,1.3985749 -1.5241917,2.9684057 v 5.0662681 q 0,1.56983 1.4806429,2.954134 1.4951605,1.398576 3.2370941,1.398576 h 2.8596747 q 1.6403208,0.02854 3.1790298,-1.341491 1.553223,-1.370033 1.553223,-3.011219 z m -9.8419251,-0.0999 V 5.5208795 q 0,-0.6564746 0.4790315,-1.041798 L 5.4929136,3.7084394 Q 5.7977525,3.4515583 6.3493645,3.4515583 h 2.8306427 q 0.6241934,0 1.1322558,0.4424057 l 0.740323,0.6422034 q 0.449999,0.3425093 0.449999,0.9561685 v 4.8522011 q 0,0.71356 -0.449999,1.056068 l -0.856452,0.670744 q -0.4354821,0.35678 -1.0161268,0.35678 H 6.654203 q -0.827418,0 -1.2774182,-0.385322 L 4.5493659,11.34352 q -0.449999,-0.37105 -0.449999,-0.97044 z"
       id="path23"
       style="font-size:18.8107px;font-family:'OCR A Extended';-inkscape-font-specification:'OCR A Extended';fill:url(#radialGradient6);fill-rule:evenodd;stroke:#000000;stroke-width:0;stroke-linecap:round;stroke-linejoin:round;stroke-miterlimit:3.6"
       aria-label="o" />
  </g>
  <metadata
     id="metadata1">
    <rdf:RDF>
      <cc:Work
         rdf:about="">
        <dc:title>onu.</dc:title>
      </cc:Work>
    </rdf:RDF>
  </metadata>
  <g
     id="g15"
     transform="matrix(1.8095185,0,0,1.8710159,1.4943137,0.58043326)"
     style="opacity:0.322">
    <path
       d="m 14.624767,5.2019709 v 5.4352621 q 0,1.730097 -1.698751,3.199914 -1.682875,1.469818 -3.476884,1.469818 H 6.3215237 q -1.8257614,0 -3.492761,-1.485128 -1.6669994,-1.50044 -1.6669994,-3.184604 V 5.2019709 q 0,-1.6841654 1.619371,-3.1692928 1.635247,-1.5004383 3.5403894,-1.5004383 H 9.449132 q 1.794009,-0.0306216 3.476884,1.4391959 1.698751,1.469817 1.698751,3.2305352 z M 3.8607148,5.3091459 v 5.2056021 q 0,0.704287 0.523914,1.117673 l 1.0001998,0.826772 q 0.3333999,0.27559 0.9366951,0.27559 h 3.0958561 q 0.6826762,0 1.2383412,-0.474628 l 0.809687,-0.688977 Q 11.95757,11.203725 11.95757,10.545369 V 5.3397663 q 0,-0.7655297 -0.492162,-1.1329839 L 10.528712,3.4871844 Q 10.052428,3.1044195 9.4173798,3.1044195 H 6.6549236 q -0.9049428,0 -1.3971044,0.413386 L 4.3528765,4.2680248 Q 3.8607148,4.6661002 3.8607148,5.3091459 Z"
       id="path12"
       style="font-size:20.376px;font-family:'OCR A Extended';-inkscape-font-specification:'OCR A Extended';fill:url(#linearGradient2);fill-opacity:1;fill-rule:evenodd;stroke:#000000;stroke-width:0;stroke-linecap:round;stroke-linejoin:round;stroke-miterlimit:3.6"
       aria-label="o" />
    <path
       d="m 13.560395,5.5011253 v 4.9226117 q 0,1.566914 -1.25205,2.898099 -1.24035,1.331188 -2.562608,1.331188 H 7.4405587 q -1.3456623,0 -2.5743102,-1.345053 Q 3.6376004,11.949055 3.6376004,10.423737 V 5.5011253 q 0,-1.5253161 1.1935439,-2.8703676 Q 6.0363894,1.2718394 7.4405587,1.2718394 H 9.745737 q 1.322258,-0.027732 2.562608,1.303452 1.25205,1.3311853 1.25205,2.9258339 z M 5.6268402,5.598192 v 4.714614 q 0,0.637858 0.3861466,1.012256 l 0.7371887,0.748792 q 0.2457297,0.249594 0.6903832,0.249594 h 2.2817742 q 0.5031631,0 0.9127111,-0.42986 l 0.596771,-0.62399 q 0.362744,-0.332799 0.362744,-0.929059 V 5.6259231 q 0,-0.6933253 -0.362744,-1.0261217 L 10.541433,3.9480761 Q 10.190389,3.6014133 9.7223329,3.6014133 H 7.6862883 q -0.6669804,0 -1.029724,0.3743959 L 5.9895838,4.655268 Q 5.6268402,5.0157974 5.6268402,5.598192 Z"
       id="path13"
       style="font-size:18.8107px;font-family:'OCR A Extended';-inkscape-font-specification:'OCR A Extended';fill:url(#radialGradient4);fill-rule:evenodd;stroke:#000000;stroke-width:0;stroke-linecap:round;stroke-linejoin:round;stroke-miterlimit:3.6"
       aria-label="o" />
    <path
       d="M 13.941292,10.472977 V 5.4067089 q 0,-1.6126437 -1.553223,-2.9826763 Q 10.84936,1.0539989 9.2090392,1.0539989 H 6.3493645 q -1.6693536,0 -3.1935453,1.3843043 -1.5241917,1.3985749 -1.5241917,2.9684057 v 5.0662681 q 0,1.56983 1.4806429,2.954134 1.4951605,1.398576 3.2370941,1.398576 h 2.8596747 q 1.6403208,0.02854 3.1790298,-1.341491 1.553223,-1.370033 1.553223,-3.011219 z m -9.8419251,-0.0999 V 5.5208795 q 0,-0.6564746 0.4790315,-1.041798 L 5.4929136,3.7084394 Q 5.7977525,3.4515583 6.3493645,3.4515583 h 2.8306427 q 0.6241934,0 1.1322558,0.4424057 l 0.740323,0.6422034 q 0.449999,0.3425093 0.449999,0.9561685 v 4.8522011 q 0,0.71356 -0.449999,1.056068 l -0.856452,0.670744 q -0.4354821,0.35678 -1.0161268,0.35678 H 6.654203 q -0.827418,0 -1.2774182,-0.385322 L 4.5493659,11.34352 q -0.449999,-0.37105 -0.449999,-0.97044 z"
       id="path15"
       style="font-size:18.8107px;font-family:'OCR A Extended';-inkscape-font-specification:'OCR A Extended';fill:url(#radialGradient9);fill-rule:evenodd;stroke:#000000;stroke-width:0;stroke-linecap:round;stroke-linejoin:round;stroke-miterlimit:3.6"
       aria-label="o" />
  </g>
  <g
     id="g4"
     transform="matrix(-0.91444158,0,0,-1.0254163,29.599718,34.502488)">
    <path
       style="fill:#1a1a1a;stroke:url(#linearGradient11);stroke-width:0.401677;stroke-dasharray:none"
       d="M 4.7536232,18.31884 6.2257149,17.071032 C 14.004814,13.003876 20.539553,8.9367208 29.565217,4.8695652 L 25.623195,9.1562951 31.768116,3.7101449 C 31.874145,0.6880105 5.6813061,16.219066 5.6813061,16.219066 l -2.4349292,1.056296 z"
       id="path3" />
    <path
       id="path4"
       style="fill:#1a1a1a;stroke:#ffffff;stroke-width:0.08261557;stroke-dasharray:none"
       d="m 7.4547388,14.393197 -5.7182033,3.395907 6.012921,-3.177944 -6.0030162,2.971353 6.27658,-2.732417 -6.2478816,2.527027 6.4984698,-2.268708 -6.4511669,2.065884 6.6771121,-1.789901 -6.6115211,1.590993 6.8113195,-1.299183 -6.7278767,1.105514 6.9001993,-0.799818 -6.7994589,0.612677 6.9431596,-0.29513 -6.8257933,0.115764 6.9399143,0.21152 -6.8067015,-0.381919 6.8904846,0.716765 -6.7423138,-0.877063 6.7951996,1.217238 -6.6330555,-1.366368 6.6546947,1.709613 -6.4796572,-1.846582 6.4699032,2.190608 -6.2831362,-2.314504 6.2420556,2.657025 -6.0448023,-2.767025 5.9726679,3.105761 -5.7662414,-3.201133 5.6635325,3.53383 -5.4493072,-3.613938 5.3167095,3.93838 -5.096109,-4.002691 4.9345027,4.316721 L 4.0589263,15.276645 8.5783838,19.94298 4.2878373,15.245102 8.3621744,20.229998 4.5186308,15.230314 8.120733,20.500596 4.7497697,15.232379 7.8556663,20.752975 4.9797167,15.251282 7.5687374,20.985454 5.2069413,15.286899 7.2618576,21.196486 5.429932,15.338993 6.937068,21.384667 5.6472029,15.407215 6.5965288,21.548745 5.8573101,15.491114 6.2425094,21.687628 6.058855,15.590129 5.8773627,21.800391 6.2504951,15.703602 5.5035203,21.886283 6.430957,15.830779 5.1234695,21.944735 6.5990377,15.970813 4.7397389,21.975355 6.7536197,16.122771 4.354884,21.977942 l 2.5387912,-5.692298 -2.9222106,5.666832 3.046806,-5.49413 -3.4262388,5.440782 3.534545,-5.2594 -3.9074643,5.178526 3.9987617,-4.989671 -4.3626877,4.881808 4.4363679,-4.686735 -4.7888779,4.552601 4.844451,-4.35261 L 2.163929,21.416744 7.3842235,17.427225 1.8411969,21.232914 7.4025946,17.633035 1.5366293,21.025992 7.40212,17.839709 1.2522521,20.797351 7.3828026,18.045872 0.98995841,20.548517 7.3447704,18.250148 0.75149296,20.281144 7.2882763,18.451182 0.53844379,19.997011 7.2136975,18.647635 0.35222784,19.698009 7.1215289,18.838197 0.19408492,19.386128 7.0123852,19.021604 0.06506638,19.063443 6.8869911,19.196633 -0.03396731,18.732103 6.7461819,19.362118 -0.10235954,18.394311 6.5908957,19.516961 -0.13965215,18.052318 6.4221638,19.660129 -0.14560006,17.708396 6.241111,19.790671 -0.12016178,17.364835 6.0489417,19.907717 -0.06350666,17.023923 5.8469334,20.010487 0.02398709,16.687928 5.6364321,20.0983 0.14173828,16.359085 5.4188379,20.17057 0.28896328,16.039582 5.1955995,20.226816 0.46468175,15.731548 4.968201,20.266664 0.66772504,15.43703 4.7381578,20.28985 0.89674091,15.15799 4.5069984,20.296216 1.1502058,14.896283 l 3.1260574,5.38944 -2.8498298,-5.63207 2.6210543,5.604788 -2.323903,-5.826729 2.0986079,5.782837 -1.7825092,-5.98261 1.5621951,5.922401 -1.2292539,-6.098677 1.015386,6.022554 L 2.7201933,13.904057 3.182014,19.986684 3.0800755,13.77813 2.9852575,19.880351 3.4498784,13.678719 2.7990518,19.759926 3.8271383,13.606487 2.6246349,19.626208 4.209347,13.561914 2.4631694,19.480091 4.59396,13.545297 2.3157275,19.322545 4.978417,13.556745 2.1832925,19.154618 5.360161,13.596184 2.0667445,18.977429 5.7366496,13.663351 1.9668591,18.792155 6.1053796,13.757798 1.884302,18.600031 6.4638961,13.878898 1.8196212,18.402335 6.8098122,14.025844 1.773249,18.200383 7.1408284,14.197658 1.7454919,17.995518 Z" />
  </g>
  <g
     id="g11"
     transform="matrix(0.91444158,0,0,1.0254163,0.87397703,-2.3070817)">
    <path
       style="fill:#1a1a1a;stroke:url(#linearGradient7);stroke-width:0.401677;stroke-dasharray:none;fill-opacity:1"
       d="M 4.7536232,18.31884 6.2257149,17.071032 C 14.004814,13.003876 20.539553,8.9367208 29.565217,4.8695652 L 25.623195,9.1562951 31.768116,3.7101449 C 31.874145,0.6880105 5.6813061,16.219066 5.6813061,16.219066 l -2.4349292,1.056296 z"
       id="path10" />
    <path
       id="path11"
       style="fill:#1a1a1a;stroke:#ffffff;stroke-width:0.08261557;stroke-dasharray:none"
       d="M 7.8327638,13.98157 2.3937295,17.377813 8.113093,14.199554 2.4031508,17.171203 8.373301,14.438514 2.430448,16.965792 8.6116552,14.696859 2.4754416,16.762948 8.8265696,14.972869 2.5378304,16.56402 9.0166136,15.264708 2.6171994,16.370331 9.1805233,15.570434 2.7130216,16.183172 9.3172083,15.888013 2.8246579,16.003788 9.4257578,16.21533 2.951367,15.833372 9.5054504,16.550208 3.092304,15.673058 9.5557543,16.890417 3.246532,15.523914 l 6.329805,1.709782 -6.163313,-1.846764 6.1540354,2.190825 -5.9763865,-2.314734 5.9373114,2.657289 -5.7496883,-2.7673 5.6810755,3.10607 -5.484727,-3.201451 5.3870326,3.534179 -5.1832659,-3.614295 5.0571417,3.93877 -4.8473113,-4.003088 4.6935948,4.317149 -4.4790978,-4.36524 4.2988125,4.666797 L 4.8204739,14.83356 8.6958972,19.818949 5.0399999,14.81877 8.4662434,20.089575 5.2598542,14.820835 8.2141175,20.341979 5.4785749,14.83974 7.9411968,20.57448 5.6947062,14.875361 7.6492991,20.785534 5.9068103,14.927459 7.3403662,20.973734 6.1134738,14.995688 7.0164525,21.137827 6.3133232,15.079595 6.6797167,21.276724 6.5050285,15.17862 6.3323969,21.389498 6.6873126,15.292105 5.9768059,21.475399 6.8589641,15.419295 5.6153096,21.533856 7.0188389,15.559342 5.2503132,21.564479 7.165874,15.711316 4.8842473,21.567066 7.2990918,15.874204 4.5195468,21.541599 7.4176044,16.046924 4.1586385,21.488246 7.5206229,16.228324 3.8039254,21.407364 7.6074631,16.417198 3.4577668,21.29949 7.6775462,16.61229 3.1224667,21.165342 7.7304061,16.8123 2.8002572,21.005814 7.765691,17.015899 2.4932812,20.821966 7.7831652,17.22173 2.2035829,20.615022 7.7827138,17.428424 1.9330893,20.38636 7.7643395,17.634606 1.6836011,20.137501 7.7281641,17.838904 1.4567778,19.870101 7.6744281,18.039958 1.25413,19.585939 7.6034903,18.236429 1.0770053,19.286908 7.5158215,18.427011 0.92658308,18.974996 7.4120063,18.610436 0.80386336,18.65228 7.2927341,18.785482 0.70966462,18.320907 7.1587993,18.950984 0.64461138,17.983081 7.0110944,19.105842 0.60913942,17.641053 6.8506002,19.249024 0.60348191,17.297097 6.6783866,19.379579 0.62767826,16.953503 6.4955992,19.496636 0.68156741,16.612557 6.3034531,19.599417 0.76478962,16.276528 6.1032287,19.687239 0.87679206,15.947652 5.8962578,19.759516 1.0168294,15.628119 5.6839181,19.815768 1.1839691,15.320053 5.4676215,19.85562 1.3770995,15.025507 5.2488092,19.878807 1.5949346,14.746438 5.0289353,19.885174 1.836025,14.484706 4.8094648,19.87468 2.098767,14.242051 4.5918585,19.847395 2.381411,14.020089 4.3775625,19.803499 2.6820774,13.820296 4.1680043,19.743285 2.998764,13.644003 3.9645777,19.667153 3.329364,13.492382 3.7686382,19.575612 3.6716764,13.366441 3.5814875,19.469268 4.0234251,13.267021 3.4043727,19.348831 4.3822668,13.194782 3.238471,19.2151 4.7458156,13.150204 3.0848885,19.068969 5.1116515,13.133586 2.9446449,18.911406 5.4773388,13.145035 2.8186754,18.743463 5.8404456,13.184479 2.7078174,18.566256 6.1985536,13.251651 2.6128085,18.380964 6.5492818,13.346108 2.534282,18.188821 6.8902952,13.46722 2.472759,17.991105 7.2193232,13.61418 2.4286507,17.789133 7.5341788,13.786012 2.4022487,17.584248 Z" />
  </g>
</svg>
